G04*
G04 #@! TF.GenerationSoftware,Altium Limited,Altium Designer,25.1.2 (22)*
G04*
G04 Layer_Color=65535*
%FSLAX44Y44*%
%MOMM*%
G71*
G04*
G04 #@! TF.SameCoordinates,5E672C01-8995-41B4-AFFF-24039E6A3FFE*
G04*
G04*
G04 #@! TF.FilePolarity,Positive*
G04*
G01*
G75*
%ADD10C,0.2000*%
%ADD11C,0.5000*%
%ADD12C,0.4000*%
D10*
X170000Y507000D02*
G03*
X170000Y507000I-22000J0D01*
G01*
X633550Y169180D02*
G03*
X633550Y156480I0J-6350D01*
G01*
X44000Y254000D02*
Y272000D01*
X76000Y254000D02*
Y272000D01*
X57000D02*
X63000D01*
X-19630Y195000D02*
X-15630Y199000D01*
Y199401D01*
X-19630Y204000D02*
X-15630Y200000D01*
Y199401D02*
Y200000D01*
X-26229Y199401D02*
X-15630D01*
X-25630Y150000D02*
X-15630D01*
X-26630Y253000D02*
X-15630D01*
Y167204D02*
X-10426D01*
X-15630Y235947D02*
X-10683D01*
X-15630Y150000D02*
Y253000D01*
X-630Y162329D02*
Y240370D01*
X51118Y179156D02*
Y183982D01*
Y218018D02*
Y222590D01*
X32830Y161630D02*
X37148D01*
X32830Y240370D02*
X37148D01*
X-5537Y161801D02*
X11157D01*
X-5537D02*
Y240370D01*
X11240D01*
X7367Y161942D02*
Y240370D01*
X193000Y126000D02*
X195000D01*
X127000D02*
X129000D01*
X182000Y164000D02*
X195000D01*
Y126000D02*
Y164000D01*
X127000D02*
X139000D01*
X127000Y126000D02*
Y164000D01*
X162348Y380998D02*
X181652D01*
X162348Y413256D02*
X181652D01*
Y380998D02*
Y413256D01*
X162348Y380998D02*
Y413256D01*
X275244Y432098D02*
X307502D01*
X275244Y451402D02*
X307502D01*
X275244Y432098D02*
Y451402D01*
X307502Y432098D02*
Y451402D01*
X307252Y410848D02*
Y430152D01*
X274994Y410848D02*
Y430152D01*
X307252D01*
X274994Y410848D02*
X307252D01*
X98652Y250744D02*
Y283002D01*
X79348Y250744D02*
Y283002D01*
Y250744D02*
X98652D01*
X79348Y283002D02*
X98652D01*
X107002Y339348D02*
Y358652D01*
X74744Y339348D02*
Y358652D01*
X107002D01*
X74744Y339348D02*
X107002D01*
X77998Y223652D02*
X110256D01*
X77998Y204348D02*
X110256D01*
Y223652D01*
X77998Y204348D02*
Y223652D01*
Y183348D02*
Y202652D01*
X110256Y183348D02*
Y202652D01*
X77998Y183348D02*
X110256D01*
X77998Y202652D02*
X110256D01*
X77998Y182652D02*
X110256D01*
X77998Y163348D02*
X110256D01*
Y182652D01*
X77998Y163348D02*
Y182652D01*
X210348Y258998D02*
X229652D01*
X210348Y291256D02*
X229652D01*
Y258998D02*
Y291256D01*
X210348Y258998D02*
Y291256D01*
X598348Y447998D02*
Y480256D01*
X617652Y447998D02*
Y480256D01*
X598348D02*
X617652D01*
X598348Y447998D02*
X617652D01*
X571348D02*
X590652D01*
X571348Y480256D02*
X590652D01*
Y447998D02*
Y480256D01*
X571348Y447998D02*
Y480256D01*
X626348Y404998D02*
Y437256D01*
X645652Y404998D02*
Y437256D01*
X626348D02*
X645652D01*
X626348Y404998D02*
X645652D01*
X396002Y90098D02*
Y109402D01*
X363744Y90098D02*
Y109402D01*
X396002D01*
X363744Y90098D02*
X396002D01*
X600998Y236652D02*
X633256D01*
X600998Y217348D02*
X633256D01*
Y236652D01*
X600998Y217348D02*
Y236652D01*
X226998Y432348D02*
Y451652D01*
X259256Y432348D02*
Y451652D01*
X226998Y432348D02*
X259256D01*
X226998Y451652D02*
X259256D01*
X401744Y219348D02*
X434002D01*
X401744Y238652D02*
X434002D01*
X401744Y219348D02*
Y238652D01*
X434002Y219348D02*
Y238652D01*
X569998Y343348D02*
Y362652D01*
X602256Y343348D02*
Y362652D01*
X569998Y343348D02*
X602256D01*
X569998Y362652D02*
X602256D01*
X659348Y183998D02*
Y216256D01*
X678652Y183998D02*
Y216256D01*
X659348D02*
X678652D01*
X659348Y183998D02*
X678652D01*
X22598Y267998D02*
X41902D01*
X22598Y300256D02*
X41902D01*
Y267998D02*
Y300256D01*
X22598Y267998D02*
Y300256D01*
X678652Y217744D02*
Y250002D01*
X659348Y217744D02*
Y250002D01*
Y217744D02*
X678652D01*
X659348Y250002D02*
X678652D01*
X264348Y73002D02*
X283652D01*
X264348Y40744D02*
X283652D01*
X264348D02*
Y73002D01*
X283652Y40744D02*
Y73002D01*
X237348Y140998D02*
Y173256D01*
X256652Y140998D02*
Y173256D01*
X237348D02*
X256652D01*
X237348Y140998D02*
X256652D01*
X5748Y242598D02*
Y261902D01*
X38006Y242598D02*
Y261902D01*
X5748Y242598D02*
X38006D01*
X5748Y261902D02*
X38006D01*
X657652Y217744D02*
Y250002D01*
X638348Y217744D02*
Y250002D01*
Y217744D02*
X657652D01*
X638348Y250002D02*
X657652D01*
X296002Y75348D02*
Y94652D01*
X263744Y75348D02*
Y94652D01*
X296002D01*
X263744Y75348D02*
X296002D01*
X122998Y223652D02*
X155256D01*
X122998Y204348D02*
X155256D01*
Y223652D01*
X122998Y204348D02*
Y223652D01*
X323348Y91002D02*
X342652D01*
X323348Y58744D02*
X342652D01*
X323348D02*
Y91002D01*
X342652Y58744D02*
Y91002D01*
Y39744D02*
Y72002D01*
X323348Y39744D02*
Y72002D01*
Y39744D02*
X342652D01*
X323348Y72002D02*
X342652D01*
X61380Y204030D02*
Y231970D01*
Y204030D02*
X76620D01*
Y231970D01*
X61380D02*
X76620D01*
X61380Y175030D02*
X76620D01*
X61380D02*
Y202970D01*
X76620D01*
Y175030D02*
Y202970D01*
X20500Y261750D02*
Y297750D01*
X6500Y261750D02*
X20500D01*
X6500D02*
Y297750D01*
X600000Y236000D02*
X636000D01*
Y250000D01*
X600000D02*
X636000D01*
X431800Y495300D02*
Y520700D01*
X172720Y495300D02*
X431800D01*
X172720D02*
Y520700D01*
X431800D01*
X416560Y508000D02*
X419100D01*
X103500Y75300D02*
X179700D01*
X103500Y100700D02*
X179700D01*
X113660Y88000D02*
X116200D01*
X103500Y75300D02*
Y100700D01*
X179700Y75300D02*
Y100700D01*
X133300Y458700D02*
X158700D01*
Y357100D02*
Y458700D01*
X133300Y357100D02*
Y458700D01*
Y357100D02*
X158700D01*
X649300Y405500D02*
Y481700D01*
X674700Y405500D02*
Y481700D01*
X662000Y469000D02*
Y471540D01*
X649300Y481700D02*
X674700D01*
X649300Y405500D02*
X674700D01*
X12700Y304154D02*
Y354446D01*
X63500Y304154D02*
Y354446D01*
X12700D02*
X63500D01*
X12700Y304154D02*
X63500D01*
X12700Y423926D02*
X88900D01*
Y373634D02*
Y423926D01*
X12700Y373634D02*
X88900D01*
X12700D02*
Y423926D01*
Y510286D02*
X88900D01*
Y459994D02*
Y510286D01*
X12700Y459994D02*
X88900D01*
X12700D02*
Y510286D01*
X650240Y495300D02*
Y520700D01*
X635000Y508000D02*
X637540D01*
X441960Y495300D02*
X650240D01*
X441960Y520700D02*
X650240D01*
X441960Y495300D02*
Y520700D01*
X492760Y12700D02*
Y38100D01*
X505460Y25400D02*
X508000D01*
X492760Y38100D02*
X650240D01*
X492760Y12700D02*
X650240D01*
Y38100D01*
X264160Y12700D02*
Y38100D01*
X276860Y25400D02*
X279400D01*
X264160Y38100D02*
X472440D01*
X264160Y12700D02*
X472440D01*
Y38100D01*
X295840Y39220D02*
Y74780D01*
X316160D01*
Y39220D02*
Y74780D01*
X295840Y39220D02*
X316160D01*
X254000Y28000D02*
Y68000D01*
X194000Y28000D02*
Y68000D01*
X215000Y18000D02*
X233000D01*
X215000Y78000D02*
X232700D01*
X277550Y111830D02*
Y215830D01*
X633550D01*
Y169180D02*
Y215830D01*
X277550Y111830D02*
X633550D01*
Y156480D01*
X207000Y173000D02*
X225000D01*
X207000Y141000D02*
X225000D01*
Y154000D02*
Y160000D01*
X218160Y103220D02*
Y138780D01*
X197840Y103220D02*
X218160D01*
X197840D02*
Y138780D01*
X218160D01*
X220840Y103220D02*
Y138780D01*
X241160D01*
Y103220D02*
Y138780D01*
X220840Y103220D02*
X241160D01*
X207840Y174220D02*
Y209780D01*
X228160D01*
Y174220D02*
Y209780D01*
X207840Y174220D02*
X228160D01*
X206160D02*
Y209780D01*
X185840Y174220D02*
X206160D01*
X185840D02*
Y209780D01*
X206160D01*
X89500Y91500D02*
X99500Y101500D01*
X84500Y91500D02*
X89500D01*
X44500Y101500D02*
X54500Y91500D01*
X57000D01*
X59500D01*
X84500Y146500D02*
X99500D01*
Y101500D02*
Y146500D01*
X44500D02*
X59500D01*
X44500Y101500D02*
Y146500D01*
X434340Y86530D02*
X454660D01*
X434340Y50970D02*
Y86530D01*
Y50970D02*
X454660D01*
Y86530D01*
X491280Y45340D02*
Y65660D01*
X455720D02*
X491280D01*
X455720Y45340D02*
Y65660D01*
Y45340D02*
X491280D01*
X570220Y342160D02*
X605780D01*
Y321840D02*
Y342160D01*
X570220Y321840D02*
X605780D01*
X570220D02*
Y342160D01*
X637840Y216780D02*
X658160D01*
X637840Y181220D02*
Y216780D01*
Y181220D02*
X658160D01*
Y216780D01*
X83220Y225840D02*
Y246160D01*
Y225840D02*
X118780D01*
Y246160D01*
X83220D02*
X118780D01*
X43220Y283840D02*
Y304160D01*
Y283840D02*
X78780D01*
Y304160D01*
X43220D02*
X78780D01*
X643220Y117840D02*
Y138160D01*
Y117840D02*
X678780D01*
Y138160D01*
X643220D02*
X678780D01*
X437220Y245340D02*
Y265660D01*
Y245340D02*
X472780D01*
Y265660D01*
X437220D02*
X472780D01*
X203840Y414220D02*
X224160D01*
Y449780D01*
X203840D02*
X224160D01*
X203840Y414220D02*
Y449780D01*
X436780Y243840D02*
Y264160D01*
X401220D02*
X436780D01*
X401220Y243840D02*
Y264160D01*
Y243840D02*
X436780D01*
X434470Y88340D02*
Y108660D01*
Y88340D02*
X470030D01*
Y108660D01*
X434470D02*
X470030D01*
X433030Y88840D02*
Y109160D01*
X397470D02*
X433030D01*
X397470Y88840D02*
Y109160D01*
Y88840D02*
X433030D01*
Y66840D02*
Y87160D01*
X397470D02*
X433030D01*
X397470Y66840D02*
Y87160D01*
Y66840D02*
X433030D01*
X235220Y474840D02*
Y495160D01*
Y474840D02*
X270780D01*
Y495160D01*
X235220D02*
X270780D01*
X472780Y219840D02*
Y240160D01*
X437220D02*
X472780D01*
X437220Y219840D02*
Y240160D01*
Y219840D02*
X472780D01*
X491530Y66840D02*
Y87160D01*
X455970D02*
X491530D01*
X455970Y66840D02*
Y87160D01*
Y66840D02*
X491530D01*
X13220Y511840D02*
Y532160D01*
Y511840D02*
X48780D01*
Y532160D01*
X13220D02*
X48780D01*
X344840Y39220D02*
X365160D01*
Y74780D01*
X344840D02*
X365160D01*
X344840Y39220D02*
Y74780D01*
X375220Y39840D02*
Y60160D01*
Y39840D02*
X410780D01*
Y60160D01*
X375220D02*
X410780D01*
X103840Y138780D02*
X124160D01*
X103840Y103220D02*
Y138780D01*
Y103220D02*
X124160D01*
Y138780D01*
X625840Y481780D02*
X646160D01*
X625840Y446220D02*
Y481780D01*
Y446220D02*
X646160D01*
Y481780D01*
X231220Y225840D02*
Y246160D01*
Y225840D02*
X266780D01*
Y246160D01*
X231220D02*
X266780D01*
X231220Y331840D02*
Y352160D01*
Y331840D02*
X266780D01*
Y352160D01*
X231220D02*
X266780D01*
X12590Y423970D02*
X32910D01*
Y459530D01*
X12590D02*
X32910D01*
X12590Y423970D02*
Y459530D01*
X121220Y224840D02*
Y245160D01*
Y224840D02*
X156780D01*
Y245160D01*
X121220D02*
X156780D01*
X163840Y246780D02*
X184160D01*
X163840Y211220D02*
Y246780D01*
Y211220D02*
X184160D01*
Y246780D01*
X208840Y292220D02*
X229160D01*
Y327780D01*
X208840D02*
X229160D01*
X208840Y292220D02*
Y327780D01*
X185840Y246780D02*
X206160D01*
X185840Y211220D02*
Y246780D01*
Y211220D02*
X206160D01*
Y246780D01*
X207840Y211220D02*
X228160D01*
Y246780D01*
X207840D02*
X228160D01*
X207840Y211220D02*
Y246780D01*
X230760Y372380D02*
Y387620D01*
X261240D01*
Y372380D02*
Y387620D01*
X230760Y372380D02*
X261240D01*
X228220D02*
Y387620D01*
X230760D01*
X228220Y372380D02*
X230760D01*
Y390380D02*
Y405620D01*
X261240D01*
Y390380D02*
Y405620D01*
X230760Y390380D02*
X261240D01*
X228220D02*
Y405620D01*
X230760D01*
X228220Y390380D02*
X230760D01*
X229760Y415380D02*
Y430620D01*
X260240D01*
Y415380D02*
Y430620D01*
X229760Y415380D02*
X260240D01*
X227220D02*
Y430620D01*
X229760D01*
X227220Y415380D02*
X229760D01*
X570220Y364380D02*
X572760D01*
X570220Y379620D02*
X572760D01*
X570220Y364380D02*
Y379620D01*
X572760Y364380D02*
X603240D01*
Y379620D01*
X572760D02*
X603240D01*
X572760Y364380D02*
Y379620D01*
X44500Y21500D02*
Y66500D01*
X59500D01*
X99500Y21500D02*
Y66500D01*
X84500D02*
X99500D01*
X57000Y11500D02*
X59500D01*
X54500D02*
X57000D01*
X44500Y21500D02*
X54500Y11500D01*
X84500D02*
X89500D01*
X99500Y21500D01*
X188000Y264000D02*
X190000Y266000D01*
X119000Y265000D02*
X121000D01*
X119000D02*
Y267000D01*
Y265000D02*
Y267000D01*
Y333000D02*
Y335000D01*
X121000D01*
X119000D02*
X121000D01*
X187000D02*
X189000D01*
Y333000D02*
Y335000D01*
Y333000D02*
Y335000D01*
X671250Y276300D02*
Y294000D01*
X611250Y276000D02*
Y294000D01*
X621250Y315000D02*
X661250D01*
X621250Y255000D02*
X661250D01*
X5000Y52000D02*
Y110000D01*
Y52000D02*
X37000D01*
Y110000D01*
X5000D02*
X37000D01*
X658000Y151000D02*
X664000D01*
X645000D02*
Y169000D01*
X677000Y151000D02*
Y169000D01*
X191000Y430000D02*
Y436000D01*
X173000Y417000D02*
X191000D01*
X173000Y449000D02*
X191000D01*
X231000Y248000D02*
X269000D01*
X231000D02*
Y330000D01*
X269000D01*
Y248000D02*
Y330000D01*
X474000Y266000D02*
Y304000D01*
X392000Y266000D02*
X474000D01*
X392000D02*
Y304000D01*
X474000D01*
X374632Y431032D02*
X375108Y429604D01*
Y432461D01*
X374632Y431032D01*
X373680Y431984D01*
X372252Y432461D01*
X371300D01*
X369871Y431984D01*
X368919Y431032D01*
X368443Y430080D01*
X367967Y428652D01*
Y426271D01*
X368443Y424843D01*
X368919Y423891D01*
X369871Y422939D01*
X371300Y422463D01*
X372252D01*
X373680Y422939D01*
X374632Y423891D01*
X375108Y424843D01*
X371300Y432461D02*
X370348Y431984D01*
X369395Y431032D01*
X368919Y430080D01*
X368443Y428652D01*
Y426271D01*
X368919Y424843D01*
X369395Y423891D01*
X370348Y422939D01*
X371300Y422463D01*
X377965Y429128D02*
Y422463D01*
X378441Y429128D02*
Y422463D01*
Y426271D02*
X378917Y427700D01*
X379869Y428652D01*
X380821Y429128D01*
X382250D01*
X382726Y428652D01*
Y428176D01*
X382250Y427700D01*
X381774Y428176D01*
X382250Y428652D01*
X376537Y429128D02*
X378441D01*
X376537Y422463D02*
X379869D01*
X384725Y426271D02*
X390438D01*
Y427224D01*
X389962Y428176D01*
X389486Y428652D01*
X388534Y429128D01*
X387106D01*
X385678Y428652D01*
X384725Y427700D01*
X384249Y426271D01*
Y425319D01*
X384725Y423891D01*
X385678Y422939D01*
X387106Y422463D01*
X388058D01*
X389486Y422939D01*
X390438Y423891D01*
X389962Y426271D02*
Y427700D01*
X389486Y428652D01*
X387106Y429128D02*
X386154Y428652D01*
X385201Y427700D01*
X384725Y426271D01*
Y425319D01*
X385201Y423891D01*
X386154Y422939D01*
X387106Y422463D01*
X392914Y428176D02*
Y427700D01*
X392438D01*
Y428176D01*
X392914Y428652D01*
X393866Y429128D01*
X395771D01*
X396723Y428652D01*
X397199Y428176D01*
X397675Y427224D01*
Y423891D01*
X398151Y422939D01*
X398627Y422463D01*
X397199Y428176D02*
Y423891D01*
X397675Y422939D01*
X398627Y422463D01*
X399103D01*
X397199Y427224D02*
X396723Y426748D01*
X393866Y426271D01*
X392438Y425795D01*
X391962Y424843D01*
Y423891D01*
X392438Y422939D01*
X393866Y422463D01*
X395295D01*
X396247Y422939D01*
X397199Y423891D01*
X393866Y426271D02*
X392914Y425795D01*
X392438Y424843D01*
Y423891D01*
X392914Y422939D01*
X393866Y422463D01*
X403388D02*
X402912Y422939D01*
X402436Y424367D01*
Y432461D01*
X401960D01*
Y424367D01*
X402436Y422939D01*
X403388Y422463D01*
X404340D01*
X405293Y422939D01*
X405769Y423891D01*
X400532Y429128D02*
X404340D01*
X407863Y426271D02*
X413576D01*
Y427224D01*
X413100Y428176D01*
X412624Y428652D01*
X411672Y429128D01*
X410244D01*
X408816Y428652D01*
X407863Y427700D01*
X407387Y426271D01*
Y425319D01*
X407863Y423891D01*
X408816Y422939D01*
X410244Y422463D01*
X411196D01*
X412624Y422939D01*
X413576Y423891D01*
X413100Y426271D02*
Y427700D01*
X412624Y428652D01*
X410244Y429128D02*
X409292Y428652D01*
X408340Y427700D01*
X407863Y426271D01*
Y425319D01*
X408340Y423891D01*
X409292Y422939D01*
X410244Y422463D01*
X420813Y432461D02*
Y422463D01*
X421289Y432461D02*
Y422463D01*
X420813Y427700D02*
X419861Y428652D01*
X418909Y429128D01*
X417957D01*
X416528Y428652D01*
X415576Y427700D01*
X415100Y426271D01*
Y425319D01*
X415576Y423891D01*
X416528Y422939D01*
X417957Y422463D01*
X418909D01*
X419861Y422939D01*
X420813Y423891D01*
X417957Y429128D02*
X417004Y428652D01*
X416052Y427700D01*
X415576Y426271D01*
Y425319D01*
X416052Y423891D01*
X417004Y422939D01*
X417957Y422463D01*
X419385Y432461D02*
X421289D01*
X420813Y422463D02*
X422717D01*
X434524Y432461D02*
Y422463D01*
X435000Y432461D02*
Y422463D01*
Y427700D02*
X435953Y428652D01*
X436905Y429128D01*
X437857D01*
X439285Y428652D01*
X440237Y427700D01*
X440714Y426271D01*
Y425319D01*
X440237Y423891D01*
X439285Y422939D01*
X437857Y422463D01*
X436905D01*
X435953Y422939D01*
X435000Y423891D01*
X437857Y429128D02*
X438809Y428652D01*
X439761Y427700D01*
X440237Y426271D01*
Y425319D01*
X439761Y423891D01*
X438809Y422939D01*
X437857Y422463D01*
X433096Y432461D02*
X435000D01*
X443046Y429128D02*
X445903Y422463D01*
X443522Y429128D02*
X445903Y423415D01*
X448759Y429128D02*
X445903Y422463D01*
X444951Y420558D01*
X443998Y419606D01*
X443046Y419130D01*
X442570D01*
X442094Y419606D01*
X442570Y420082D01*
X443046Y419606D01*
X442094Y429128D02*
X444951D01*
X446855D02*
X449712D01*
X461519Y432461D02*
Y422463D01*
X461995Y432461D02*
X467708Y423415D01*
X461995Y431508D02*
X467708Y422463D01*
Y432461D02*
Y422463D01*
X460090Y432461D02*
X461995D01*
X466279D02*
X469136D01*
X460090Y422463D02*
X462947D01*
X471802Y432461D02*
X471326Y431984D01*
X471802Y431508D01*
X472278Y431984D01*
X471802Y432461D01*
Y429128D02*
Y422463D01*
X472278Y429128D02*
Y422463D01*
X470374Y429128D02*
X472278D01*
X470374Y422463D02*
X473707D01*
X476944Y432461D02*
Y422463D01*
X477420Y432461D02*
Y422463D01*
X482181Y429128D02*
X477420Y424367D01*
X479800Y426271D02*
X482657Y422463D01*
X479324Y426271D02*
X482181Y422463D01*
X475516Y432461D02*
X477420D01*
X480753Y429128D02*
X483609D01*
X475516Y422463D02*
X478848D01*
X480753D02*
X483609D01*
X486370Y432461D02*
Y422463D01*
X486847Y432461D02*
Y422463D01*
Y427700D02*
X487799Y428652D01*
X489227Y429128D01*
X490179D01*
X491607Y428652D01*
X492084Y427700D01*
Y422463D01*
X490179Y429128D02*
X491131Y428652D01*
X491607Y427700D01*
Y422463D01*
X484942Y432461D02*
X486847D01*
X484942Y422463D02*
X488275D01*
X490179D02*
X493512D01*
X496225Y432461D02*
X495749Y431984D01*
X496225Y431508D01*
X496702Y431984D01*
X496225Y432461D01*
Y429128D02*
Y422463D01*
X496702Y429128D02*
Y422463D01*
X494797Y429128D02*
X496702D01*
X494797Y422463D02*
X498130D01*
X501367Y432461D02*
Y422463D01*
X501843Y432461D02*
Y422463D01*
X499939Y432461D02*
X501843D01*
X499939Y422463D02*
X503272D01*
X505557D02*
X505081Y422939D01*
X505557Y423415D01*
X506033Y422939D01*
Y421987D01*
X505557Y421034D01*
X505081Y420558D01*
X399722Y410426D02*
X400674Y410902D01*
X402103Y412331D01*
Y402333D01*
X401627Y411854D02*
Y402333D01*
X399722D02*
X404007D01*
X410482Y408046D02*
X410958Y408998D01*
Y407094D01*
X410482Y408046D01*
X410006Y408522D01*
X409054Y408998D01*
X407149D01*
X406197Y408522D01*
X405721Y408046D01*
Y407094D01*
X406197Y406617D01*
X407149Y406141D01*
X409530Y405189D01*
X410482Y404713D01*
X410958Y404237D01*
X405721Y407570D02*
X406197Y407094D01*
X407149Y406617D01*
X409530Y405665D01*
X410482Y405189D01*
X410958Y404713D01*
Y403285D01*
X410482Y402809D01*
X409530Y402333D01*
X407625D01*
X406673Y402809D01*
X406197Y403285D01*
X405721Y404237D01*
Y402333D01*
X406197Y403285D01*
X415433Y402333D02*
X414957Y402809D01*
X414481Y404237D01*
Y412331D01*
X414005D01*
Y404237D01*
X414481Y402809D01*
X415433Y402333D01*
X416385D01*
X417337Y402809D01*
X417814Y403761D01*
X412577Y408998D02*
X416385D01*
X429859Y412331D02*
Y402333D01*
X430335Y412331D02*
Y402333D01*
X428430Y412331D02*
X433191D01*
X434620Y411854D01*
X435572Y410902D01*
X436048Y409950D01*
X436524Y408522D01*
Y406141D01*
X436048Y404713D01*
X435572Y403761D01*
X434620Y402809D01*
X433191Y402333D01*
X428430D01*
X433191Y412331D02*
X434143Y411854D01*
X435096Y410902D01*
X435572Y409950D01*
X436048Y408522D01*
Y406141D01*
X435572Y404713D01*
X435096Y403761D01*
X434143Y402809D01*
X433191Y402333D01*
X438333Y406141D02*
X444046D01*
Y407094D01*
X443570Y408046D01*
X443094Y408522D01*
X442142Y408998D01*
X440714D01*
X439285Y408522D01*
X438333Y407570D01*
X437857Y406141D01*
Y405189D01*
X438333Y403761D01*
X439285Y402809D01*
X440714Y402333D01*
X441666D01*
X443094Y402809D01*
X444046Y403761D01*
X443570Y406141D02*
Y407570D01*
X443094Y408522D01*
X440714Y408998D02*
X439761Y408522D01*
X438809Y407570D01*
X438333Y406141D01*
Y405189D01*
X438809Y403761D01*
X439761Y402809D01*
X440714Y402333D01*
X450331Y408046D02*
X450807Y408998D01*
Y407094D01*
X450331Y408046D01*
X449854Y408522D01*
X448902Y408998D01*
X446998D01*
X446046Y408522D01*
X445570Y408046D01*
Y407094D01*
X446046Y406617D01*
X446998Y406141D01*
X449378Y405189D01*
X450331Y404713D01*
X450807Y404237D01*
X445570Y407570D02*
X446046Y407094D01*
X446998Y406617D01*
X449378Y405665D01*
X450331Y405189D01*
X450807Y404713D01*
Y403285D01*
X450331Y402809D01*
X449378Y402333D01*
X447474D01*
X446522Y402809D01*
X446046Y403285D01*
X445570Y404237D01*
Y402333D01*
X446046Y403285D01*
X453853Y412331D02*
X453377Y411854D01*
X453853Y411378D01*
X454330Y411854D01*
X453853Y412331D01*
Y408998D02*
Y402333D01*
X454330Y408998D02*
Y402333D01*
X452425Y408998D02*
X454330D01*
X452425Y402333D02*
X455758D01*
X460424Y408998D02*
X459471Y408522D01*
X458995Y408046D01*
X458519Y407094D01*
Y406141D01*
X458995Y405189D01*
X459471Y404713D01*
X460424Y404237D01*
X461376D01*
X462328Y404713D01*
X462804Y405189D01*
X463280Y406141D01*
Y407094D01*
X462804Y408046D01*
X462328Y408522D01*
X461376Y408998D01*
X460424D01*
X459471Y408522D02*
X458995Y407570D01*
Y405665D01*
X459471Y404713D01*
X462328D02*
X462804Y405665D01*
Y407570D01*
X462328Y408522D01*
X462804Y408046D02*
X463280Y408522D01*
X464232Y408998D01*
Y408522D01*
X463280D01*
X458995Y405189D02*
X458519Y404713D01*
X458043Y403761D01*
Y403285D01*
X458519Y402333D01*
X459948Y401856D01*
X462328D01*
X463756Y401381D01*
X464232Y400904D01*
X458043Y403285D02*
X458519Y402809D01*
X459948Y402333D01*
X462328D01*
X463756Y401856D01*
X464232Y400904D01*
Y400428D01*
X463756Y399476D01*
X462328Y399000D01*
X459471D01*
X458043Y399476D01*
X457567Y400428D01*
Y400904D01*
X458043Y401856D01*
X459471Y402333D01*
X467136Y408998D02*
Y402333D01*
X467612Y408998D02*
Y402333D01*
Y407570D02*
X468565Y408522D01*
X469993Y408998D01*
X470945D01*
X472373Y408522D01*
X472850Y407570D01*
Y402333D01*
X470945Y408998D02*
X471897Y408522D01*
X472373Y407570D01*
Y402333D01*
X465708Y408998D02*
X467612D01*
X465708Y402333D02*
X469041D01*
X470945D02*
X474278D01*
X63334Y168998D02*
X60002D01*
X61668D01*
Y160668D01*
X60002Y159002D01*
X58335D01*
X56669Y160668D01*
X66666Y168998D02*
X73331D01*
Y167332D01*
X66666Y160668D01*
Y159002D01*
X265144Y427098D02*
Y422100D01*
X266144Y421100D01*
X268143D01*
X269143Y422100D01*
Y427098D01*
X265000Y402997D02*
X271665D01*
X268332D01*
Y393000D01*
X266000Y376000D02*
Y385997D01*
X270998D01*
X272665Y384331D01*
Y380998D01*
X270998Y379332D01*
X266000D01*
X269332D02*
X272665Y376000D01*
X301334Y491998D02*
X298002D01*
X299668D01*
Y483668D01*
X298002Y482002D01*
X296336D01*
X294669Y483668D01*
X309664Y482002D02*
Y491998D01*
X304666Y487000D01*
X311331D01*
X422000Y527000D02*
Y530332D01*
Y528666D01*
X412003D01*
X413669Y527000D01*
X551000Y96664D02*
Y90000D01*
X544336Y96664D01*
X542669D01*
X541003Y94998D01*
Y91666D01*
X542669Y90000D01*
X541003Y106661D02*
Y99997D01*
X546002D01*
X544336Y103329D01*
Y104995D01*
X546002Y106661D01*
X549334D01*
X551000Y104995D01*
Y101663D01*
X549334Y99997D01*
X318802Y92170D02*
Y95502D01*
Y93836D01*
X308805D01*
X310471Y92170D01*
X308805Y107165D02*
X310471Y103833D01*
X313804Y100501D01*
X317136D01*
X318802Y102167D01*
Y105499D01*
X317136Y107165D01*
X315470D01*
X313804Y105499D01*
Y100501D01*
X296000Y219000D02*
Y222332D01*
Y220666D01*
X286003D01*
X287669Y219000D01*
X296000Y232329D02*
X286003D01*
X291002Y227331D01*
Y233995D01*
X396000Y220000D02*
Y223332D01*
Y221666D01*
X386003D01*
X387669Y220000D01*
Y228331D02*
X386003Y229997D01*
Y233329D01*
X387669Y234995D01*
X394334D01*
X396000Y233329D01*
Y229997D01*
X394334Y228331D01*
X387669D01*
X502003Y226665D02*
Y220000D01*
X507002D01*
X505336Y223332D01*
Y224998D01*
X507002Y226665D01*
X510334D01*
X512000Y224998D01*
Y221666D01*
X510334Y220000D01*
X7998Y312000D02*
Y321997D01*
X3000Y316998D01*
X9664D01*
X3000Y348331D02*
X4666Y349997D01*
X7998D01*
X9664Y348331D01*
Y346665D01*
X7998Y344998D01*
X6332D01*
X7998D01*
X9664Y343332D01*
Y341666D01*
X7998Y340000D01*
X4666D01*
X3000Y341666D01*
X74704Y313912D02*
X68040D01*
X74704Y320577D01*
Y322243D01*
X73038Y323909D01*
X69706D01*
X68040Y322243D01*
X40000Y436997D02*
X43332D01*
X41666D01*
Y427000D01*
X40000D01*
X43332D01*
X54995Y435331D02*
X53329Y436997D01*
X49997D01*
X48331Y435331D01*
Y428666D01*
X49997Y427000D01*
X53329D01*
X54995Y428666D01*
X64992Y435331D02*
X63326Y436997D01*
X59994D01*
X58327Y435331D01*
Y433665D01*
X59994Y431998D01*
X63326D01*
X64992Y430332D01*
Y428666D01*
X63326Y427000D01*
X59994D01*
X58327Y428666D01*
X68324Y427000D02*
Y436997D01*
X73323D01*
X74989Y435331D01*
Y431998D01*
X73323Y430332D01*
X68324D01*
X78321Y427000D02*
X81653D01*
X79987D01*
Y436997D01*
X78321Y435331D01*
X54000Y524997D02*
X57332D01*
X55666D01*
Y515000D01*
X54000D01*
X57332D01*
X68995Y523331D02*
X67329Y524997D01*
X63997D01*
X62331Y523331D01*
Y516666D01*
X63997Y515000D01*
X67329D01*
X68995Y516666D01*
X78992Y523331D02*
X77326Y524997D01*
X73994D01*
X72327Y523331D01*
Y521665D01*
X73994Y519998D01*
X77326D01*
X78992Y518332D01*
Y516666D01*
X77326Y515000D01*
X73994D01*
X72327Y516666D01*
X82324Y515000D02*
Y524997D01*
X87323D01*
X88989Y523331D01*
Y519998D01*
X87323Y518332D01*
X82324D01*
X179003Y32000D02*
X187334D01*
X189000Y33666D01*
Y36998D01*
X187334Y38665D01*
X179003D01*
X180669Y48661D02*
X179003Y46995D01*
Y43663D01*
X180669Y41997D01*
X182335D01*
X184002Y43663D01*
Y46995D01*
X185668Y48661D01*
X187334D01*
X189000Y46995D01*
Y43663D01*
X187334Y41997D01*
X179003Y58658D02*
Y51993D01*
X189000D01*
Y58658D01*
X184002Y51993D02*
Y55326D01*
X189000Y61990D02*
X179003D01*
Y66989D01*
X180669Y68655D01*
X184002D01*
X185668Y66989D01*
Y61990D01*
Y65323D02*
X189000Y68655D01*
X583000Y263000D02*
X573003D01*
Y267998D01*
X574669Y269664D01*
X578002D01*
X579668Y267998D01*
Y263000D01*
Y266332D02*
X583000Y269664D01*
X573003Y279661D02*
Y272997D01*
X583000D01*
Y279661D01*
X578002Y272997D02*
Y276329D01*
X574669Y289658D02*
X573003Y287992D01*
Y284660D01*
X574669Y282994D01*
X576335D01*
X578002Y284660D01*
Y287992D01*
X579668Y289658D01*
X581334D01*
X583000Y287992D01*
Y284660D01*
X581334Y282994D01*
X573003Y299655D02*
Y292990D01*
X583000D01*
Y299655D01*
X578002Y292990D02*
Y296323D01*
X573003Y302987D02*
Y309652D01*
Y306319D01*
X583000D01*
X109730Y69277D02*
X107065D01*
X108398D01*
Y62612D01*
X107065Y61279D01*
X105732D01*
X104399Y62612D01*
X112396Y61279D02*
Y69277D01*
X116395D01*
X117728Y67944D01*
Y65278D01*
X116395Y63945D01*
X112396D01*
X124392Y61279D02*
Y69277D01*
X120394Y65278D01*
X125725D01*
X97000Y82000D02*
X100332D01*
X98666D01*
Y91997D01*
X97000Y90331D01*
X170336Y373998D02*
X167003D01*
X168669D01*
Y365668D01*
X167003Y364002D01*
X165337D01*
X163671Y365668D01*
X173668Y364002D02*
Y373998D01*
X178666D01*
X180332Y372332D01*
Y369000D01*
X178666Y367334D01*
X173668D01*
X183664Y372332D02*
X185331Y373998D01*
X188663D01*
X190329Y372332D01*
Y370666D01*
X188663Y369000D01*
X186997D01*
X188663D01*
X190329Y367334D01*
Y365668D01*
X188663Y364002D01*
X185331D01*
X183664Y365668D01*
X122600Y440380D02*
X125932D01*
X124266D01*
Y450377D01*
X122600Y448711D01*
X657002Y495998D02*
X653669D01*
X655335D01*
Y487668D01*
X653669Y486002D01*
X652003D01*
X650337Y487668D01*
X660334Y486002D02*
Y495998D01*
X665332D01*
X666998Y494332D01*
Y491000D01*
X665332Y489334D01*
X660334D01*
X670331Y486002D02*
X673663D01*
X671997D01*
Y495998D01*
X670331Y494332D01*
X679750Y466000D02*
X683082D01*
X681416D01*
Y475997D01*
X679750Y474331D01*
X33335Y367998D02*
X30003D01*
X31669D01*
Y359668D01*
X30003Y358002D01*
X28337D01*
X26671Y359668D01*
X36668Y358002D02*
Y367998D01*
X41666D01*
X43332Y366332D01*
Y363000D01*
X41666Y361334D01*
X36668D01*
X53329Y358002D02*
X46665D01*
X53329Y364666D01*
Y366332D01*
X51663Y367998D01*
X48331D01*
X46665Y366332D01*
X67000Y338000D02*
X70332D01*
X68666D01*
Y347997D01*
X67000Y346331D01*
X99334Y407998D02*
X96002D01*
X97668D01*
Y399668D01*
X96002Y398002D01*
X94335D01*
X92669Y399668D01*
X109331Y407998D02*
X105998Y406332D01*
X102666Y403000D01*
Y399668D01*
X104332Y398002D01*
X107664D01*
X109331Y399668D01*
Y401334D01*
X107664Y403000D01*
X102666D01*
X6000Y375000D02*
X9332D01*
X7666D01*
Y384997D01*
X6000Y383331D01*
X99334Y490998D02*
X96002D01*
X97668D01*
Y482668D01*
X96002Y481002D01*
X94335D01*
X92669Y482668D01*
X109331Y490998D02*
X102666D01*
Y486000D01*
X105998Y487666D01*
X107664D01*
X109331Y486000D01*
Y482668D01*
X107664Y481002D01*
X104332D01*
X102666Y482668D01*
X4250Y464000D02*
X7582D01*
X5916D01*
Y473997D01*
X4250Y472331D01*
X542334Y491998D02*
X539002D01*
X540668D01*
Y483668D01*
X539002Y482002D01*
X537336D01*
X535669Y483668D01*
X545666Y490332D02*
X547332Y491998D01*
X550664D01*
X552331Y490332D01*
Y488666D01*
X550664Y487000D01*
X548998D01*
X550664D01*
X552331Y485334D01*
Y483668D01*
X550664Y482002D01*
X547332D01*
X545666Y483668D01*
X640000Y527000D02*
Y530332D01*
Y528666D01*
X630003D01*
X631669Y527000D01*
X556334Y52998D02*
X553002D01*
X554668D01*
Y44668D01*
X553002Y43002D01*
X551335D01*
X549669Y44668D01*
X566331Y43002D02*
X559666D01*
X566331Y49666D01*
Y51332D01*
X564664Y52998D01*
X561332D01*
X559666Y51332D01*
X513620Y2000D02*
Y5332D01*
Y3666D01*
X503623D01*
X505289Y2000D01*
X423000Y52998D02*
X419668D01*
X421334D01*
Y44668D01*
X419668Y43002D01*
X418002D01*
X416335Y44668D01*
X426332Y43002D02*
X429664D01*
X427998D01*
Y52998D01*
X426332Y51332D01*
X285020Y2000D02*
Y5332D01*
Y3666D01*
X275023D01*
X276689Y2000D01*
D11*
X200000Y264000D02*
G03*
X200000Y264000I-1000J0D01*
G01*
D12*
X11900Y299950D02*
X15600D01*
X597800Y241400D02*
Y245100D01*
M02*
