G04*
G04 #@! TF.GenerationSoftware,Altium Limited,Altium Designer,25.1.2 (22)*
G04*
G04 Layer_Color=16777215*
%FSLAX44Y44*%
%MOMM*%
G71*
G04*
G04 #@! TF.SameCoordinates,5E672C01-8995-41B4-AFFF-24039E6A3FFE*
G04*
G04*
G04 #@! TF.FilePolarity,Positive*
G04*
G01*
G75*
%ADD84C,0.2540*%
D84*
X959618Y853000D02*
Y868235D01*
X952000Y860618D01*
X962157D01*
X967235Y853000D02*
Y855539D01*
X969774D01*
Y853000D01*
X967235D01*
X1005323Y865696D02*
X1002784Y868235D01*
X997705D01*
X995166Y865696D01*
Y855539D01*
X997705Y853000D01*
X1002784D01*
X1005323Y855539D01*
X1018019Y868235D02*
X1012940D01*
X1010401Y865696D01*
Y855539D01*
X1012940Y853000D01*
X1018019D01*
X1020558Y855539D01*
Y865696D01*
X1018019Y868235D01*
X1025636Y853000D02*
Y868235D01*
X1030715Y863157D01*
X1035793Y868235D01*
Y853000D01*
X1040871D02*
Y868235D01*
X1048489D01*
X1051028Y865696D01*
Y860618D01*
X1048489Y858078D01*
X1040871D01*
X1063724Y868235D02*
X1058645D01*
X1056106Y865696D01*
Y855539D01*
X1058645Y853000D01*
X1063724D01*
X1066263Y855539D01*
Y865696D01*
X1063724Y868235D01*
X1071341Y853000D02*
Y868235D01*
X1081498Y853000D01*
Y868235D01*
X1096733D02*
X1086577D01*
Y853000D01*
X1096733D01*
X1086577Y860618D02*
X1091655D01*
X1101812Y853000D02*
Y868235D01*
X1111968Y853000D01*
Y868235D01*
X1117047D02*
X1127203D01*
X1122125D01*
Y853000D01*
X1147517Y868235D02*
X1152595D01*
X1150056D01*
Y853000D01*
X1147517D01*
X1152595D01*
X1160213Y868235D02*
Y853000D01*
X1167830D01*
X1170369Y855539D01*
Y865696D01*
X1167830Y868235D01*
X1160213D01*
X1185604D02*
X1175448D01*
Y853000D01*
X1185604D01*
X1175448Y860618D02*
X1180526D01*
X1190683Y853000D02*
Y868235D01*
X1200839Y853000D01*
Y868235D01*
X1205918D02*
X1216075D01*
X1210996D01*
Y853000D01*
X1221153Y863157D02*
X1223692D01*
Y860618D01*
X1221153D01*
Y863157D01*
Y855539D02*
X1223692D01*
Y853000D01*
X1221153D01*
Y855539D01*
X1259241Y865696D02*
X1256701Y868235D01*
X1251623D01*
X1249084Y865696D01*
Y855539D01*
X1251623Y853000D01*
X1256701D01*
X1259241Y855539D01*
X1271936Y868235D02*
X1266858D01*
X1264319Y865696D01*
Y855539D01*
X1266858Y853000D01*
X1271936D01*
X1274476Y855539D01*
Y865696D01*
X1271936Y868235D01*
X1279554D02*
Y853000D01*
X1289711D01*
X1302407Y868235D02*
X1297328D01*
X1294789Y865696D01*
Y855539D01*
X1297328Y853000D01*
X1302407D01*
X1304946Y855539D01*
Y865696D01*
X1302407Y868235D01*
X1310024D02*
Y855539D01*
X1312563Y853000D01*
X1317642D01*
X1320181Y855539D01*
Y868235D01*
X1325259Y853000D02*
Y868235D01*
X1332877D01*
X1335416Y865696D01*
Y860618D01*
X1332877Y858078D01*
X1325259D01*
X1330338D02*
X1335416Y853000D01*
X1355729Y868235D02*
X1365886D01*
X1360808D01*
Y853000D01*
X1378582Y868235D02*
X1373504D01*
X1370965Y865696D01*
Y855539D01*
X1373504Y853000D01*
X1378582D01*
X1381121Y855539D01*
Y865696D01*
X1378582Y868235D01*
X1401435D02*
Y853000D01*
X1409052D01*
X1411591Y855539D01*
Y858078D01*
X1409052Y860618D01*
X1401435D01*
X1409052D01*
X1411591Y863157D01*
Y865696D01*
X1409052Y868235D01*
X1401435D01*
X1426826D02*
X1416670D01*
Y853000D01*
X1426826D01*
X1416670Y860618D02*
X1421748D01*
X1447140Y868235D02*
Y853000D01*
X1452218Y858078D01*
X1457297Y853000D01*
Y868235D01*
X1462375D02*
Y853000D01*
Y860618D01*
X1472532D01*
Y868235D01*
Y853000D01*
X1477610Y868235D02*
X1482688D01*
X1480149D01*
Y853000D01*
X1477610D01*
X1482688D01*
X1490306Y868235D02*
X1500463D01*
X1495384D01*
Y853000D01*
X1515698Y868235D02*
X1505541D01*
Y853000D01*
X1515698D01*
X1505541Y860618D02*
X1510619D01*
X952000Y915696D02*
X954539Y918235D01*
X959618D01*
X962157Y915696D01*
Y913157D01*
X959618Y910618D01*
X957078D01*
X959618D01*
X962157Y908078D01*
Y905539D01*
X959618Y903000D01*
X954539D01*
X952000Y905539D01*
X967235Y903000D02*
Y905539D01*
X969774D01*
Y903000D01*
X967235D01*
X1005323Y915696D02*
X1002784Y918235D01*
X997705D01*
X995166Y915696D01*
Y913157D01*
X997705Y910618D01*
X1002784D01*
X1005323Y908078D01*
Y905539D01*
X1002784Y903000D01*
X997705D01*
X995166Y905539D01*
X1018019Y918235D02*
X1012940D01*
X1010401Y915696D01*
Y905539D01*
X1012940Y903000D01*
X1018019D01*
X1020558Y905539D01*
Y915696D01*
X1018019Y918235D01*
X1025636D02*
Y903000D01*
X1035793D01*
X1040871Y918235D02*
Y903000D01*
X1048489D01*
X1051028Y905539D01*
Y915696D01*
X1048489Y918235D01*
X1040871D01*
X1066263D02*
X1056106D01*
Y903000D01*
X1066263D01*
X1056106Y910618D02*
X1061185D01*
X1071341Y903000D02*
Y918235D01*
X1078959D01*
X1081498Y915696D01*
Y910618D01*
X1078959Y908078D01*
X1071341D01*
X1076420D02*
X1081498Y903000D01*
X1101812D02*
Y918235D01*
X1109429D01*
X1111968Y915696D01*
Y910618D01*
X1109429Y908078D01*
X1101812D01*
X1106890D02*
X1111968Y903000D01*
X1127203Y918235D02*
X1117047D01*
Y903000D01*
X1127203D01*
X1117047Y910618D02*
X1122125D01*
X1142438Y915696D02*
X1139899Y918235D01*
X1134821D01*
X1132282Y915696D01*
Y913157D01*
X1134821Y910618D01*
X1139899D01*
X1142438Y908078D01*
Y905539D01*
X1139899Y903000D01*
X1134821D01*
X1132282Y905539D01*
X1147517Y918235D02*
X1152595D01*
X1150056D01*
Y903000D01*
X1147517D01*
X1152595D01*
X1170369Y915696D02*
X1167830Y918235D01*
X1162752D01*
X1160213Y915696D01*
Y913157D01*
X1162752Y910618D01*
X1167830D01*
X1170369Y908078D01*
Y905539D01*
X1167830Y903000D01*
X1162752D01*
X1160213Y905539D01*
X1175448Y918235D02*
X1185604D01*
X1180526D01*
Y903000D01*
X1190683Y913157D02*
X1193222D01*
Y910618D01*
X1190683D01*
Y913157D01*
Y905539D02*
X1193222D01*
Y903000D01*
X1190683D01*
Y905539D01*
X1218614Y903000D02*
Y913157D01*
X1223692Y918235D01*
X1228771Y913157D01*
Y903000D01*
Y910618D01*
X1218614D01*
X1233849Y903000D02*
Y918235D01*
X1241466D01*
X1244006Y915696D01*
Y910618D01*
X1241466Y908078D01*
X1233849D01*
X1249084Y903000D02*
Y918235D01*
X1256701D01*
X1259241Y915696D01*
Y910618D01*
X1256701Y908078D01*
X1249084D01*
X1264319Y918235D02*
Y903000D01*
X1274476D01*
X1279554Y918235D02*
Y915696D01*
X1284632Y910618D01*
X1289711Y915696D01*
Y918235D01*
X1284632Y910618D02*
Y903000D01*
X1310024Y918235D02*
X1320181D01*
X1315103D01*
Y903000D01*
X1332877Y918235D02*
X1327798D01*
X1325259Y915696D01*
Y905539D01*
X1327798Y903000D01*
X1332877D01*
X1335416Y905539D01*
Y915696D01*
X1332877Y918235D01*
X1355729D02*
Y903000D01*
X1363347D01*
X1365886Y905539D01*
Y908078D01*
X1363347Y910618D01*
X1355729D01*
X1363347D01*
X1365886Y913157D01*
Y915696D01*
X1363347Y918235D01*
X1355729D01*
X1378582D02*
X1373504D01*
X1370965Y915696D01*
Y905539D01*
X1373504Y903000D01*
X1378582D01*
X1381121Y905539D01*
Y915696D01*
X1378582Y918235D01*
X1386200D02*
X1396356D01*
X1391278D01*
Y903000D01*
X1401435Y918235D02*
Y903000D01*
Y910618D01*
X1411591D01*
Y918235D01*
Y903000D01*
X1442061Y915696D02*
X1439522Y918235D01*
X1434444D01*
X1431905Y915696D01*
Y913157D01*
X1434444Y910618D01*
X1439522D01*
X1442061Y908078D01*
Y905539D01*
X1439522Y903000D01*
X1434444D01*
X1431905Y905539D01*
X1447140Y918235D02*
X1452218D01*
X1449679D01*
Y903000D01*
X1447140D01*
X1452218D01*
X1459836Y918235D02*
Y903000D01*
X1467453D01*
X1469993Y905539D01*
Y915696D01*
X1467453Y918235D01*
X1459836D01*
X1485228D02*
X1475071D01*
Y903000D01*
X1485228D01*
X1475071Y910618D02*
X1480149D01*
X1500463Y915696D02*
X1497923Y918235D01*
X1492845D01*
X1490306Y915696D01*
Y913157D01*
X1492845Y910618D01*
X1497923D01*
X1500463Y908078D01*
Y905539D01*
X1497923Y903000D01*
X1492845D01*
X1490306Y905539D01*
X1530933Y915696D02*
X1528394Y918235D01*
X1523315D01*
X1520776Y915696D01*
Y905539D01*
X1523315Y903000D01*
X1528394D01*
X1530933Y905539D01*
X1543629Y918235D02*
X1538550D01*
X1536011Y915696D01*
Y905539D01*
X1538550Y903000D01*
X1543629D01*
X1546168Y905539D01*
Y915696D01*
X1543629Y918235D01*
X1551246D02*
Y903000D01*
X1561403D01*
X1574099Y918235D02*
X1569020D01*
X1566481Y915696D01*
Y905539D01*
X1569020Y903000D01*
X1574099D01*
X1576638Y905539D01*
Y915696D01*
X1574099Y918235D01*
X1581716D02*
Y905539D01*
X1584256Y903000D01*
X1589334D01*
X1591873Y905539D01*
Y918235D01*
X1596951Y903000D02*
Y918235D01*
X1604569D01*
X1607108Y915696D01*
Y910618D01*
X1604569Y908078D01*
X1596951D01*
X1602030D02*
X1607108Y903000D01*
X1627422Y910618D02*
X1637578D01*
X1657892Y918235D02*
Y903000D01*
X1665509D01*
X1668048Y905539D01*
Y908078D01*
X1665509Y910618D01*
X1657892D01*
X1665509D01*
X1668048Y913157D01*
Y915696D01*
X1665509Y918235D01*
X1657892D01*
X1673127D02*
Y903000D01*
X1683284D01*
X1688362Y918235D02*
Y905539D01*
X1690901Y903000D01*
X1695979D01*
X1698519Y905539D01*
Y918235D01*
X1713754D02*
X1703597D01*
Y903000D01*
X1713754D01*
X1703597Y910618D02*
X1708675D01*
X962157Y953000D02*
X952000D01*
X962157Y963157D01*
Y965696D01*
X959618Y968235D01*
X954539D01*
X952000Y965696D01*
X967235Y953000D02*
Y955539D01*
X969774D01*
Y953000D01*
X967235D01*
X995166Y968235D02*
Y953000D01*
X1002784D01*
X1005323Y955539D01*
Y958078D01*
X1002784Y960618D01*
X995166D01*
X1002784D01*
X1005323Y963157D01*
Y965696D01*
X1002784Y968235D01*
X995166D01*
X1018019D02*
X1012940D01*
X1010401Y965696D01*
Y955539D01*
X1012940Y953000D01*
X1018019D01*
X1020558Y955539D01*
Y965696D01*
X1018019Y968235D01*
X1025636Y953000D02*
Y963157D01*
X1030715Y968235D01*
X1035793Y963157D01*
Y953000D01*
Y960618D01*
X1025636D01*
X1040871Y953000D02*
Y968235D01*
X1048489D01*
X1051028Y965696D01*
Y960618D01*
X1048489Y958078D01*
X1040871D01*
X1045950D02*
X1051028Y953000D01*
X1056106Y968235D02*
Y953000D01*
X1063724D01*
X1066263Y955539D01*
Y965696D01*
X1063724Y968235D01*
X1056106D01*
X1096733D02*
X1086577D01*
Y960618D01*
X1091655D01*
X1086577D01*
Y953000D01*
X1101812Y968235D02*
X1106890D01*
X1104351D01*
Y953000D01*
X1101812D01*
X1106890D01*
X1114507D02*
Y968235D01*
X1124664Y953000D01*
Y968235D01*
X1129743D02*
X1134821D01*
X1132282D01*
Y953000D01*
X1129743D01*
X1134821D01*
X1152595Y965696D02*
X1150056Y968235D01*
X1144978D01*
X1142438Y965696D01*
Y963157D01*
X1144978Y960618D01*
X1150056D01*
X1152595Y958078D01*
Y955539D01*
X1150056Y953000D01*
X1144978D01*
X1142438Y955539D01*
X1157673Y968235D02*
Y953000D01*
Y960618D01*
X1167830D01*
Y968235D01*
Y953000D01*
X1172909Y963157D02*
X1175448D01*
Y960618D01*
X1172909D01*
Y963157D01*
Y955539D02*
X1175448D01*
Y953000D01*
X1172909D01*
Y955539D01*
X1200839Y968235D02*
X1205918D01*
X1203379D01*
Y953000D01*
X1200839D01*
X1205918D01*
X1213535D02*
Y968235D01*
X1218614Y963157D01*
X1223692Y968235D01*
Y953000D01*
X1228771D02*
Y968235D01*
X1233849Y963157D01*
X1238927Y968235D01*
Y953000D01*
X1254162Y968235D02*
X1244006D01*
Y953000D01*
X1254162D01*
X1244006Y960618D02*
X1249084D01*
X1259241Y953000D02*
Y968235D01*
X1266858D01*
X1269397Y965696D01*
Y960618D01*
X1266858Y958078D01*
X1259241D01*
X1264319D02*
X1269397Y953000D01*
X1284632Y965696D02*
X1282093Y968235D01*
X1277015D01*
X1274476Y965696D01*
Y963157D01*
X1277015Y960618D01*
X1282093D01*
X1284632Y958078D01*
Y955539D01*
X1282093Y953000D01*
X1277015D01*
X1274476Y955539D01*
X1289711Y968235D02*
X1294789D01*
X1292250D01*
Y953000D01*
X1289711D01*
X1294789D01*
X1310024Y968235D02*
X1304946D01*
X1302407Y965696D01*
Y955539D01*
X1304946Y953000D01*
X1310024D01*
X1312563Y955539D01*
Y965696D01*
X1310024Y968235D01*
X1317642Y953000D02*
Y968235D01*
X1327798Y953000D01*
Y968235D01*
X1348112Y953000D02*
Y963157D01*
X1353190Y968235D01*
X1358269Y963157D01*
Y953000D01*
Y960618D01*
X1348112D01*
X1363347Y963157D02*
Y955539D01*
X1365886Y953000D01*
X1373504D01*
Y963157D01*
X1378582Y953000D02*
X1388739Y963157D01*
X1403974Y968235D02*
X1393817D01*
Y953000D01*
X1403974D01*
X1393817Y960618D02*
X1398895D01*
X1409052Y968235D02*
Y953000D01*
X1419209D01*
X1434444Y968235D02*
X1424287D01*
Y953000D01*
X1434444D01*
X1424287Y960618D02*
X1429366D01*
X1449679Y965696D02*
X1447140Y968235D01*
X1442061D01*
X1439522Y965696D01*
Y955539D01*
X1442061Y953000D01*
X1447140D01*
X1449679Y955539D01*
X1454757Y968235D02*
X1464914D01*
X1459836D01*
Y953000D01*
X1469992D02*
Y968235D01*
X1477610D01*
X1480149Y965696D01*
Y960618D01*
X1477610Y958078D01*
X1469992D01*
X1475071D02*
X1480149Y953000D01*
X1492845Y968235D02*
X1487767D01*
X1485228Y965696D01*
Y955539D01*
X1487767Y953000D01*
X1492845D01*
X1495384Y955539D01*
Y965696D01*
X1492845Y968235D01*
X1500463D02*
Y953000D01*
X1510619D01*
X1525854Y968235D02*
X1515698D01*
Y953000D01*
X1525854D01*
X1515698Y960618D02*
X1520776D01*
X1541089Y965696D02*
X1538550Y968235D01*
X1533472D01*
X1530933Y965696D01*
Y963157D01*
X1533472Y960618D01*
X1538550D01*
X1541089Y958078D01*
Y955539D01*
X1538550Y953000D01*
X1533472D01*
X1530933Y955539D01*
X1556324Y965696D02*
X1553785Y968235D01*
X1548707D01*
X1546168Y965696D01*
Y963157D01*
X1548707Y960618D01*
X1553785D01*
X1556324Y958078D01*
Y955539D01*
X1553785Y953000D01*
X1548707D01*
X1546168Y955539D01*
X1576638Y953000D02*
Y968235D01*
X1586795Y953000D01*
Y968235D01*
X1591873Y953000D02*
X1596951D01*
X1594412D01*
Y963157D01*
X1591873D01*
X1604569Y960618D02*
Y963157D01*
X1607108D01*
Y960618D01*
X1604569D01*
Y955539D02*
X1607108D01*
Y953000D01*
X1604569Y950461D01*
X1607108Y953000D02*
X1604569D01*
Y955539D01*
X1632500Y965696D02*
X1635039Y968235D01*
X1640117D01*
X1642657Y965696D01*
Y955539D01*
X1640117Y953000D01*
X1635039D01*
X1632500Y955539D01*
Y965696D01*
X1647735Y953000D02*
Y955539D01*
X1650274D01*
Y953000D01*
X1647735D01*
X1660431Y965696D02*
X1662970Y968235D01*
X1668048D01*
X1670587Y965696D01*
Y955539D01*
X1668048Y953000D01*
X1662970D01*
X1660431Y955539D01*
Y965696D01*
X1685823Y968235D02*
X1675666D01*
Y960618D01*
X1680744Y963157D01*
X1683283D01*
X1685823Y960618D01*
Y955539D01*
X1683283Y953000D01*
X1678205D01*
X1675666Y955539D01*
X1690901Y960618D02*
X1701058D01*
X1706136Y965696D02*
X1708675Y968235D01*
X1713754D01*
X1716293Y965696D01*
Y955539D01*
X1713754Y953000D01*
X1708675D01*
X1706136Y955539D01*
Y965696D01*
X1721371Y953000D02*
Y955539D01*
X1723910D01*
Y953000D01*
X1721371D01*
X1734067D02*
X1739145D01*
X1736606D01*
Y968235D01*
X1734067Y965696D01*
X1756920Y953000D02*
X1746763D01*
X1756920Y963157D01*
Y965696D01*
X1754380Y968235D01*
X1749302D01*
X1746763Y965696D01*
X1777233Y963157D02*
Y955539D01*
X1779772Y953000D01*
X1787390D01*
Y963157D01*
X1792468Y953000D02*
Y963157D01*
X1795007D01*
X1797546Y960618D01*
Y953000D01*
Y960618D01*
X1800086Y963157D01*
X1802625Y960618D01*
Y953000D01*
X1833095Y965696D02*
X1830556Y968235D01*
X1825477D01*
X1822938Y965696D01*
Y955539D01*
X1825477Y953000D01*
X1830556D01*
X1833095Y955539D01*
Y960618D01*
X1828017D01*
X1845791Y968235D02*
X1840712D01*
X1838173Y965696D01*
Y955539D01*
X1840712Y953000D01*
X1845791D01*
X1848330Y955539D01*
Y965696D01*
X1845791Y968235D01*
X1853408D02*
Y953000D01*
X1863565D01*
X1868643Y968235D02*
Y953000D01*
X1876261D01*
X1878800Y955539D01*
Y965696D01*
X1876261Y968235D01*
X1868643D01*
X1883878Y960618D02*
Y963157D01*
X1886418D01*
Y960618D01*
X1883878D01*
Y955539D02*
X1886418D01*
Y953000D01*
X1883878Y950461D01*
X1886418Y953000D02*
X1883878D01*
Y955539D01*
X1911810Y965696D02*
X1914349Y968235D01*
X1919427D01*
X1921966Y965696D01*
Y963157D01*
X1919427Y960618D01*
X1916888D01*
X1919427D01*
X1921966Y958078D01*
Y955539D01*
X1919427Y953000D01*
X1914349D01*
X1911810Y955539D01*
X1927045Y960618D02*
X1937201D01*
X1952436Y968235D02*
X1947358Y965696D01*
X1942280Y960618D01*
Y955539D01*
X1944819Y953000D01*
X1949897D01*
X1952436Y955539D01*
Y958078D01*
X1949897Y960618D01*
X1942280D01*
X1957515Y963157D02*
Y955539D01*
X1960054Y953000D01*
X1967671D01*
Y963157D01*
X1972750Y953000D02*
Y963157D01*
X1975289D01*
X1977828Y960618D01*
Y953000D01*
Y960618D01*
X1980367Y963157D01*
X1982906Y960618D01*
Y953000D01*
X2003220D02*
Y968235D01*
X2013377Y953000D01*
Y968235D01*
X2018455D02*
X2023533D01*
X2020994D01*
Y953000D01*
X2018455D01*
X2023533D01*
X2041308Y965696D02*
X2038768Y968235D01*
X2033690D01*
X2031151Y965696D01*
Y955539D01*
X2033690Y953000D01*
X2038768D01*
X2041308Y955539D01*
X2046386Y968235D02*
Y953000D01*
Y958078D01*
X2056543Y968235D01*
X2048925Y960618D01*
X2056543Y953000D01*
X2071778Y968235D02*
X2061621D01*
Y953000D01*
X2071778D01*
X2061621Y960618D02*
X2066699D01*
X2076856Y968235D02*
Y953000D01*
X2087013D01*
X952000Y1003000D02*
X957078D01*
X954539D01*
Y1018235D01*
X952000Y1015696D01*
X964696Y1003000D02*
Y1005539D01*
X967235D01*
Y1003000D01*
X964696D01*
X1002784Y1018235D02*
X992627D01*
Y1010618D01*
X997705D01*
X992627D01*
Y1003000D01*
X1007862Y1018235D02*
X1012940D01*
X1010401D01*
Y1003000D01*
X1007862D01*
X1012940D01*
X1020558D02*
Y1018235D01*
X1030715Y1003000D01*
Y1018235D01*
X1035793D02*
X1040871D01*
X1038332D01*
Y1003000D01*
X1035793D01*
X1040871D01*
X1058645Y1015696D02*
X1056106Y1018235D01*
X1051028D01*
X1048489Y1015696D01*
Y1013157D01*
X1051028Y1010618D01*
X1056106D01*
X1058645Y1008078D01*
Y1005539D01*
X1056106Y1003000D01*
X1051028D01*
X1048489Y1005539D01*
X1063724Y1018235D02*
Y1003000D01*
Y1010618D01*
X1073881D01*
Y1018235D01*
Y1003000D01*
X1089116Y1018235D02*
X1078959D01*
Y1003000D01*
X1089116D01*
X1078959Y1010618D02*
X1084037D01*
X1094194Y1018235D02*
Y1003000D01*
X1101812D01*
X1104351Y1005539D01*
Y1015696D01*
X1101812Y1018235D01*
X1094194D01*
X1124664Y1003000D02*
Y1018235D01*
X1132282D01*
X1134821Y1015696D01*
Y1010618D01*
X1132282Y1008078D01*
X1124664D01*
X1139899Y1003000D02*
Y1013157D01*
X1144978Y1018235D01*
X1150056Y1013157D01*
Y1003000D01*
Y1010618D01*
X1139899D01*
X1155134Y1003000D02*
Y1018235D01*
X1165291Y1003000D01*
Y1018235D01*
X1180526D02*
X1170369D01*
Y1003000D01*
X1180526D01*
X1170369Y1010618D02*
X1175448D01*
X1185604Y1018235D02*
Y1003000D01*
X1195761D01*
X1216075Y1018235D02*
X1226231D01*
X1221153D01*
Y1003000D01*
X1231310Y1018235D02*
Y1003000D01*
Y1010618D01*
X1241466D01*
Y1018235D01*
Y1003000D01*
X1246545Y1018235D02*
X1251623D01*
X1249084D01*
Y1003000D01*
X1246545D01*
X1251623D01*
X1269397Y1015696D02*
X1266858Y1018235D01*
X1261780D01*
X1259241Y1015696D01*
Y1005539D01*
X1261780Y1003000D01*
X1266858D01*
X1269397Y1005539D01*
X1274476Y1018235D02*
Y1003000D01*
Y1008078D01*
X1284632Y1018235D01*
X1277015Y1010618D01*
X1284632Y1003000D01*
X1289711D02*
Y1018235D01*
X1299868Y1003000D01*
Y1018235D01*
X1315103D02*
X1304946D01*
Y1003000D01*
X1315103D01*
X1304946Y1010618D02*
X1310024D01*
X1330338Y1015696D02*
X1327798Y1018235D01*
X1322720D01*
X1320181Y1015696D01*
Y1013157D01*
X1322720Y1010618D01*
X1327798D01*
X1330338Y1008078D01*
Y1005539D01*
X1327798Y1003000D01*
X1322720D01*
X1320181Y1005539D01*
X1345573Y1015696D02*
X1343033Y1018235D01*
X1337955D01*
X1335416Y1015696D01*
Y1013157D01*
X1337955Y1010618D01*
X1343033D01*
X1345573Y1008078D01*
Y1005539D01*
X1343033Y1003000D01*
X1337955D01*
X1335416Y1005539D01*
X1365886Y1018235D02*
X1370965D01*
X1368425D01*
Y1003000D01*
X1365886D01*
X1370965D01*
X1388739Y1015696D02*
X1386199Y1018235D01*
X1381121D01*
X1378582Y1015696D01*
Y1013157D01*
X1381121Y1010618D01*
X1386199D01*
X1388739Y1008078D01*
Y1005539D01*
X1386199Y1003000D01*
X1381121D01*
X1378582Y1005539D01*
X1409052Y1003000D02*
Y1018235D01*
X1419209Y1003000D01*
Y1018235D01*
X1431905D02*
X1426826D01*
X1424287Y1015696D01*
Y1005539D01*
X1426826Y1003000D01*
X1431905D01*
X1434444Y1005539D01*
Y1015696D01*
X1431905Y1018235D01*
X1439522D02*
X1449679D01*
X1444601D01*
Y1003000D01*
X1480149Y1015696D02*
X1477610Y1018235D01*
X1472532D01*
X1469992Y1015696D01*
Y1005539D01*
X1472532Y1003000D01*
X1477610D01*
X1480149Y1005539D01*
X1485228Y1003000D02*
Y1018235D01*
X1492845D01*
X1495384Y1015696D01*
Y1010618D01*
X1492845Y1008078D01*
X1485228D01*
X1490306D02*
X1495384Y1003000D01*
X1500463Y1018235D02*
X1505541D01*
X1503002D01*
Y1003000D01*
X1500463D01*
X1505541D01*
X1513159Y1018235D02*
X1523315D01*
X1518237D01*
Y1003000D01*
X1528394Y1018235D02*
X1533472D01*
X1530933D01*
Y1003000D01*
X1528394D01*
X1533472D01*
X1551246Y1015696D02*
X1548707Y1018235D01*
X1543629D01*
X1541089Y1015696D01*
Y1005539D01*
X1543629Y1003000D01*
X1548707D01*
X1551246Y1005539D01*
X1556324Y1003000D02*
Y1013157D01*
X1561403Y1018235D01*
X1566481Y1013157D01*
Y1003000D01*
Y1010618D01*
X1556324D01*
X1571560Y1018235D02*
Y1003000D01*
X1581716D01*
X1586795Y1013157D02*
X1589334D01*
Y1010618D01*
X1586795D01*
Y1013157D01*
Y1005539D02*
X1589334D01*
Y1003000D01*
X1586795D01*
Y1005539D01*
X1614726Y1018235D02*
X1624882D01*
X1619804D01*
Y1003000D01*
X1637578Y1018235D02*
X1632500D01*
X1629961Y1015696D01*
Y1005539D01*
X1632500Y1003000D01*
X1637578D01*
X1640117Y1005539D01*
Y1015696D01*
X1637578Y1018235D01*
X1660431D02*
Y1003000D01*
X1668048D01*
X1670587Y1005539D01*
Y1008078D01*
X1668048Y1010618D01*
X1660431D01*
X1668048D01*
X1670587Y1013157D01*
Y1015696D01*
X1668048Y1018235D01*
X1660431D01*
X1685823D02*
X1675666D01*
Y1003000D01*
X1685823D01*
X1675666Y1010618D02*
X1680744D01*
X1706136Y1003000D02*
Y1013157D01*
X1711214Y1018235D01*
X1716293Y1013157D01*
Y1003000D01*
Y1010618D01*
X1706136D01*
X1721371Y1003000D02*
Y1018235D01*
X1728989D01*
X1731528Y1015696D01*
Y1010618D01*
X1728989Y1008078D01*
X1721371D01*
X1736606Y1003000D02*
Y1018235D01*
X1744224D01*
X1746763Y1015696D01*
Y1010618D01*
X1744224Y1008078D01*
X1736606D01*
X1751841Y1003000D02*
Y1018235D01*
X1759459D01*
X1761998Y1015696D01*
Y1010618D01*
X1759459Y1008078D01*
X1751841D01*
X1756920D02*
X1761998Y1003000D01*
X1774694Y1018235D02*
X1769615D01*
X1767076Y1015696D01*
Y1005539D01*
X1769615Y1003000D01*
X1774694D01*
X1777233Y1005539D01*
Y1015696D01*
X1774694Y1018235D01*
X1782311D02*
X1792468Y1003000D01*
Y1018235D02*
X1782311Y1003000D01*
X1797547Y1018235D02*
X1802625D01*
X1800086D01*
Y1003000D01*
X1797547D01*
X1802625D01*
X1810242D02*
Y1018235D01*
X1815321Y1013157D01*
X1820399Y1018235D01*
Y1003000D01*
X1825477D02*
Y1013157D01*
X1830556Y1018235D01*
X1835634Y1013157D01*
Y1003000D01*
Y1010618D01*
X1825477D01*
X1840712Y1018235D02*
X1850869D01*
X1845791D01*
Y1003000D01*
X1866104Y1018235D02*
X1855948D01*
Y1003000D01*
X1866104D01*
X1855948Y1010618D02*
X1861026D01*
X1871183Y1018235D02*
Y1003000D01*
X1881339D01*
X1886418Y1018235D02*
Y1015696D01*
X1891496Y1010618D01*
X1896574Y1015696D01*
Y1018235D01*
X1891496Y1010618D02*
Y1003000D01*
X1916888D02*
X1921966D01*
X1919427D01*
Y1018235D01*
X1916888Y1015696D01*
X1929584Y1003000D02*
Y1005539D01*
X1932123D01*
Y1003000D01*
X1929584D01*
X1952436Y1018235D02*
X1947358Y1015696D01*
X1942280Y1010618D01*
Y1005539D01*
X1944819Y1003000D01*
X1949897D01*
X1952436Y1005539D01*
Y1008078D01*
X1949897Y1010618D01*
X1942280D01*
X1957515Y1003000D02*
Y1013157D01*
X1960054D01*
X1962593Y1010618D01*
Y1003000D01*
Y1010618D01*
X1965132Y1013157D01*
X1967671Y1010618D01*
Y1003000D01*
X1972750D02*
Y1013157D01*
X1975289D01*
X1977828Y1010618D01*
Y1003000D01*
Y1010618D01*
X1980367Y1013157D01*
X1982906Y1010618D01*
Y1003000D01*
X952000Y1053000D02*
Y1068235D01*
X957078Y1063157D01*
X962157Y1068235D01*
Y1053000D01*
X967235D02*
X972313D01*
X969774D01*
Y1063157D01*
X967235D01*
X979931Y1053000D02*
Y1063157D01*
X987549D01*
X990088Y1060618D01*
Y1053000D01*
X995166D02*
X1000244D01*
X997705D01*
Y1063157D01*
X995166D01*
X1007862Y1053000D02*
Y1063157D01*
X1010401D01*
X1012940Y1060618D01*
Y1053000D01*
Y1060618D01*
X1015480Y1063157D01*
X1018019Y1060618D01*
Y1053000D01*
X1023097Y1063157D02*
Y1055539D01*
X1025636Y1053000D01*
X1033254D01*
Y1063157D01*
X1038332Y1053000D02*
Y1063157D01*
X1040871D01*
X1043410Y1060618D01*
Y1053000D01*
Y1060618D01*
X1045950Y1063157D01*
X1048489Y1060618D01*
Y1053000D01*
X1068802Y1068235D02*
X1078959D01*
X1073881D01*
Y1053000D01*
X1084037Y1068235D02*
Y1053000D01*
Y1060618D01*
X1086577Y1063157D01*
X1091655D01*
X1094194Y1060618D01*
Y1053000D01*
X1099272Y1063157D02*
Y1053000D01*
Y1058078D01*
X1101812Y1060618D01*
X1104351Y1063157D01*
X1106890D01*
X1117047Y1053000D02*
X1122125D01*
X1124664Y1055539D01*
Y1060618D01*
X1122125Y1063157D01*
X1117047D01*
X1114507Y1060618D01*
Y1055539D01*
X1117047Y1053000D01*
X1129743Y1063157D02*
Y1055539D01*
X1132282Y1053000D01*
X1139899D01*
Y1063157D01*
X1150056Y1047922D02*
X1152595D01*
X1155134Y1050461D01*
Y1063157D01*
X1147517D01*
X1144978Y1060618D01*
Y1055539D01*
X1147517Y1053000D01*
X1155134D01*
X1160213Y1068235D02*
Y1053000D01*
Y1060618D01*
X1162752Y1063157D01*
X1167830D01*
X1170369Y1060618D01*
Y1053000D01*
X1190683Y1068235D02*
Y1053000D01*
Y1060618D01*
X1200839D01*
Y1068235D01*
Y1053000D01*
X1208457D02*
X1213535D01*
X1216075Y1055539D01*
Y1060618D01*
X1213535Y1063157D01*
X1208457D01*
X1205918Y1060618D01*
Y1055539D01*
X1208457Y1053000D01*
X1221153D02*
X1226231D01*
X1223692D01*
Y1068235D01*
X1221153D01*
X1241466Y1053000D02*
X1236388D01*
X1233849Y1055539D01*
Y1060618D01*
X1236388Y1063157D01*
X1241466D01*
X1244006Y1060618D01*
Y1058078D01*
X1233849D01*
X1264319Y1068235D02*
Y1058078D01*
X1269397Y1053000D01*
X1274476Y1058078D01*
Y1068235D01*
X1279554D02*
X1284632D01*
X1282093D01*
Y1053000D01*
X1279554D01*
X1284632D01*
X1292250D02*
Y1063157D01*
X1297328Y1068235D01*
X1302407Y1063157D01*
Y1053000D01*
Y1060618D01*
X1292250D01*
X1307485Y1063157D02*
X1310024D01*
Y1060618D01*
X1307485D01*
Y1063157D01*
Y1055539D02*
X1310024D01*
Y1053000D01*
X1307485D01*
Y1055539D01*
X1335416Y1065696D02*
X1337955Y1068235D01*
X1343033D01*
X1345573Y1065696D01*
Y1055539D01*
X1343033Y1053000D01*
X1337955D01*
X1335416Y1055539D01*
Y1065696D01*
X1350651Y1053000D02*
Y1055539D01*
X1353190D01*
Y1053000D01*
X1350651D01*
X1373504Y1068235D02*
X1368425Y1065696D01*
X1363347Y1060618D01*
Y1055539D01*
X1365886Y1053000D01*
X1370965D01*
X1373504Y1055539D01*
Y1058078D01*
X1370965Y1060618D01*
X1363347D01*
X1378582Y1053000D02*
Y1063157D01*
X1381121D01*
X1383660Y1060618D01*
Y1053000D01*
Y1060618D01*
X1386199Y1063157D01*
X1388739Y1060618D01*
Y1053000D01*
X1393817D02*
Y1063157D01*
X1396356D01*
X1398895Y1060618D01*
Y1053000D01*
Y1060618D01*
X1401435Y1063157D01*
X1403974Y1060618D01*
Y1053000D01*
X1429366D02*
X1424287Y1058078D01*
Y1063157D01*
X1429366Y1068235D01*
X1436983Y1047922D02*
Y1063157D01*
X1444601D01*
X1447140Y1060618D01*
Y1055539D01*
X1444601Y1053000D01*
X1436983D01*
X1454757Y1063157D02*
X1459836D01*
X1462375Y1060618D01*
Y1053000D01*
X1454757D01*
X1452218Y1055539D01*
X1454757Y1058078D01*
X1462375D01*
X1477610Y1068235D02*
Y1053000D01*
X1469992D01*
X1467453Y1055539D01*
Y1060618D01*
X1469992Y1063157D01*
X1477610D01*
X1482688Y1053000D02*
X1487767Y1058078D01*
Y1063157D01*
X1482688Y1068235D01*
X1510619Y1053000D02*
X1520776Y1063157D01*
X1541089Y1065696D02*
X1543629Y1068235D01*
X1548707D01*
X1551246Y1065696D01*
Y1055539D01*
X1548707Y1053000D01*
X1543629D01*
X1541089Y1055539D01*
Y1065696D01*
X1556324Y1053000D02*
Y1055539D01*
X1558864D01*
Y1053000D01*
X1556324D01*
X1569020Y1065696D02*
X1571560Y1068235D01*
X1576638D01*
X1579177Y1065696D01*
Y1063157D01*
X1576638Y1060618D01*
X1574099D01*
X1576638D01*
X1579177Y1058078D01*
Y1055539D01*
X1576638Y1053000D01*
X1571560D01*
X1569020Y1055539D01*
X1584256Y1053000D02*
Y1063157D01*
X1586795D01*
X1589334Y1060618D01*
Y1053000D01*
Y1060618D01*
X1591873Y1063157D01*
X1594412Y1060618D01*
Y1053000D01*
X1599491D02*
Y1063157D01*
X1602030D01*
X1604569Y1060618D01*
Y1053000D01*
Y1060618D01*
X1607108Y1063157D01*
X1609647Y1060618D01*
Y1053000D01*
X1635039D02*
X1629961Y1058078D01*
Y1063157D01*
X1635039Y1068235D01*
X1652813D02*
Y1053000D01*
X1645196D01*
X1642657Y1055539D01*
Y1060618D01*
X1645196Y1063157D01*
X1652813D01*
X1657892D02*
Y1053000D01*
Y1058078D01*
X1660431Y1060618D01*
X1662970Y1063157D01*
X1665509D01*
X1673127Y1053000D02*
X1678205D01*
X1675666D01*
Y1063157D01*
X1673127D01*
X1685823Y1053000D02*
X1690901D01*
X1688362D01*
Y1068235D01*
X1685823D01*
X1698519Y1053000D02*
X1703597D01*
X1701058D01*
Y1068235D01*
X1698519D01*
X1711214Y1053000D02*
X1716293Y1058078D01*
Y1063157D01*
X1711214Y1068235D01*
X1723910Y1053000D02*
Y1055539D01*
X1726449D01*
Y1053000D01*
X1723910D01*
X1751841Y1068235D02*
Y1053000D01*
X1759459D01*
X1761998Y1055539D01*
Y1065696D01*
X1759459Y1068235D01*
X1751841D01*
X1767076Y1063157D02*
Y1053000D01*
Y1058078D01*
X1769615Y1060618D01*
X1772155Y1063157D01*
X1774694D01*
X1782311Y1053000D02*
X1787390D01*
X1784850D01*
Y1063157D01*
X1782311D01*
X1795007Y1053000D02*
X1800086D01*
X1797546D01*
Y1068235D01*
X1795007D01*
X1807703Y1053000D02*
X1812782D01*
X1810242D01*
Y1068235D01*
X1807703D01*
X1820399Y1053000D02*
X1825477D01*
X1822938D01*
Y1063157D01*
X1820399D01*
X1833095Y1053000D02*
Y1063157D01*
X1840712D01*
X1843252Y1060618D01*
Y1053000D01*
X1853408Y1047922D02*
X1855948D01*
X1858487Y1050461D01*
Y1063157D01*
X1850869D01*
X1848330Y1060618D01*
Y1055539D01*
X1850869Y1053000D01*
X1858487D01*
X1863565Y1063157D02*
X1866104D01*
Y1060618D01*
X1863565D01*
Y1063157D01*
Y1055539D02*
X1866104D01*
Y1053000D01*
X1863565D01*
Y1055539D01*
X1891496Y1068235D02*
Y1053000D01*
X1901653D01*
X1906731D02*
X1911809D01*
X1909270D01*
Y1068235D01*
X1906731Y1065696D01*
X1919427Y1060618D02*
X1929584D01*
X1934662Y1068235D02*
Y1053000D01*
X1944819D01*
X1960054D02*
X1949897D01*
X1960054Y1063157D01*
Y1065696D01*
X1957515Y1068235D01*
X1952436D01*
X1949897Y1065696D01*
X952000Y1078000D02*
Y1093235D01*
X957078Y1088157D01*
X962157Y1093235D01*
Y1078000D01*
X967235D02*
X972313D01*
X969774D01*
Y1088157D01*
X967235D01*
X979931Y1078000D02*
Y1088157D01*
X987549D01*
X990088Y1085618D01*
Y1078000D01*
X995166D02*
X1000244D01*
X997705D01*
Y1088157D01*
X995166D01*
X1007862Y1078000D02*
Y1088157D01*
X1010401D01*
X1012940Y1085618D01*
Y1078000D01*
Y1085618D01*
X1015480Y1088157D01*
X1018019Y1085618D01*
Y1078000D01*
X1023097Y1088157D02*
Y1080539D01*
X1025636Y1078000D01*
X1033254D01*
Y1088157D01*
X1038332Y1078000D02*
Y1088157D01*
X1040871D01*
X1043410Y1085618D01*
Y1078000D01*
Y1085618D01*
X1045950Y1088157D01*
X1048489Y1085618D01*
Y1078000D01*
X1078959Y1090696D02*
X1076420Y1093235D01*
X1071341D01*
X1068802Y1090696D01*
Y1080539D01*
X1071341Y1078000D01*
X1076420D01*
X1078959Y1080539D01*
Y1085618D01*
X1073881D01*
X1086577Y1088157D02*
X1091655D01*
X1094194Y1085618D01*
Y1078000D01*
X1086577D01*
X1084037Y1080539D01*
X1086577Y1083078D01*
X1094194D01*
X1099272Y1072922D02*
Y1088157D01*
X1106890D01*
X1109429Y1085618D01*
Y1080539D01*
X1106890Y1078000D01*
X1099272D01*
X1114507Y1088157D02*
X1117047D01*
Y1085618D01*
X1114507D01*
Y1088157D01*
Y1080539D02*
X1117047D01*
Y1078000D01*
X1114507D01*
Y1080539D01*
X1152595Y1078000D02*
X1142438D01*
X1152595Y1088157D01*
Y1090696D01*
X1150056Y1093235D01*
X1144978D01*
X1142438Y1090696D01*
X1157673D02*
X1160213Y1093235D01*
X1165291D01*
X1167830Y1090696D01*
Y1080539D01*
X1165291Y1078000D01*
X1160213D01*
X1157673Y1080539D01*
Y1090696D01*
X1172909D02*
X1175448Y1093235D01*
X1180526D01*
X1183065Y1090696D01*
Y1080539D01*
X1180526Y1078000D01*
X1175448D01*
X1172909Y1080539D01*
Y1090696D01*
X1188144Y1088157D02*
Y1080539D01*
X1190683Y1078000D01*
X1198300D01*
Y1088157D01*
X1203379Y1078000D02*
Y1088157D01*
X1205918D01*
X1208457Y1085618D01*
Y1078000D01*
Y1085618D01*
X1210996Y1088157D01*
X1213535Y1085618D01*
Y1078000D01*
X952000Y1103000D02*
Y1118235D01*
X957078Y1113157D01*
X962157Y1118235D01*
Y1103000D01*
X967235D02*
X972313D01*
X969774D01*
Y1113157D01*
X967235D01*
X979931Y1103000D02*
Y1113157D01*
X987549D01*
X990088Y1110618D01*
Y1103000D01*
X995166D02*
X1000244D01*
X997705D01*
Y1113157D01*
X995166D01*
X1007862Y1103000D02*
Y1113157D01*
X1010401D01*
X1012940Y1110618D01*
Y1103000D01*
Y1110618D01*
X1015480Y1113157D01*
X1018019Y1110618D01*
Y1103000D01*
X1023097Y1113157D02*
Y1105539D01*
X1025636Y1103000D01*
X1033254D01*
Y1113157D01*
X1038332Y1103000D02*
Y1113157D01*
X1040871D01*
X1043410Y1110618D01*
Y1103000D01*
Y1110618D01*
X1045950Y1113157D01*
X1048489Y1110618D01*
Y1103000D01*
X1068802Y1118235D02*
X1078959D01*
X1073881D01*
Y1103000D01*
X1084037Y1113157D02*
Y1103000D01*
Y1108078D01*
X1086577Y1110618D01*
X1089116Y1113157D01*
X1091655D01*
X1101812D02*
X1106890D01*
X1109429Y1110618D01*
Y1103000D01*
X1101812D01*
X1099272Y1105539D01*
X1101812Y1108078D01*
X1109429D01*
X1124664Y1113157D02*
X1117047D01*
X1114507Y1110618D01*
Y1105539D01*
X1117047Y1103000D01*
X1124664D01*
X1129743D02*
Y1118235D01*
Y1108078D02*
X1137360Y1113157D01*
X1129743Y1108078D02*
X1137360Y1103000D01*
X1144978Y1113157D02*
X1147517D01*
Y1110618D01*
X1144978D01*
Y1113157D01*
Y1105539D02*
X1147517D01*
Y1103000D01*
X1144978D01*
Y1105539D01*
X1183065Y1103000D02*
X1172909D01*
X1183065Y1113157D01*
Y1115696D01*
X1180526Y1118235D01*
X1175448D01*
X1172909Y1115696D01*
X1188144D02*
X1190683Y1118235D01*
X1195761D01*
X1198300Y1115696D01*
Y1105539D01*
X1195761Y1103000D01*
X1190683D01*
X1188144Y1105539D01*
Y1115696D01*
X1203379D02*
X1205918Y1118235D01*
X1210996D01*
X1213535Y1115696D01*
Y1105539D01*
X1210996Y1103000D01*
X1205918D01*
X1203379Y1105539D01*
Y1115696D01*
X1218614Y1113157D02*
Y1105539D01*
X1221153Y1103000D01*
X1228771D01*
Y1113157D01*
X1233849Y1103000D02*
Y1113157D01*
X1236388D01*
X1238927Y1110618D01*
Y1103000D01*
Y1110618D01*
X1241466Y1113157D01*
X1244006Y1110618D01*
Y1103000D01*
X952000Y1143235D02*
Y1128000D01*
X959618D01*
X962157Y1130539D01*
Y1133078D01*
X959618Y1135618D01*
X952000D01*
X959618D01*
X962157Y1138157D01*
Y1140696D01*
X959618Y1143235D01*
X952000D01*
X969774Y1128000D02*
X974853D01*
X977392Y1130539D01*
Y1135618D01*
X974853Y1138157D01*
X969774D01*
X967235Y1135618D01*
Y1130539D01*
X969774Y1128000D01*
X985009Y1138157D02*
X990088D01*
X992627Y1135618D01*
Y1128000D01*
X985009D01*
X982470Y1130539D01*
X985009Y1133078D01*
X992627D01*
X997705Y1138157D02*
Y1128000D01*
Y1133078D01*
X1000244Y1135618D01*
X1002784Y1138157D01*
X1005323D01*
X1023097Y1143235D02*
Y1128000D01*
X1015480D01*
X1012940Y1130539D01*
Y1135618D01*
X1015480Y1138157D01*
X1023097D01*
X1043410Y1128000D02*
X1048489D01*
X1045950D01*
Y1138157D01*
X1043410D01*
X1056106Y1128000D02*
Y1138157D01*
X1063724D01*
X1066263Y1135618D01*
Y1128000D01*
X1073881D02*
Y1140696D01*
Y1135618D01*
X1071341D01*
X1076420D01*
X1073881D01*
Y1140696D01*
X1076420Y1143235D01*
X1086577Y1128000D02*
X1091655D01*
X1094194Y1130539D01*
Y1135618D01*
X1091655Y1138157D01*
X1086577D01*
X1084037Y1135618D01*
Y1130539D01*
X1086577Y1128000D01*
X962157Y818235D02*
X952000D01*
Y810618D01*
X957078Y813157D01*
X959618D01*
X962157Y810618D01*
Y805539D01*
X959618Y803000D01*
X954539D01*
X952000Y805539D01*
X967235Y803000D02*
Y805539D01*
X969774D01*
Y803000D01*
X967235D01*
X995166D02*
Y818235D01*
X1002784D01*
X1005323Y815696D01*
Y810618D01*
X1002784Y808078D01*
X995166D01*
X1010401Y803000D02*
Y813157D01*
X1015480Y818235D01*
X1020558Y813157D01*
Y803000D01*
Y810618D01*
X1010401D01*
X1025636Y803000D02*
Y818235D01*
X1035793Y803000D01*
Y818235D01*
X1051028D02*
X1040871D01*
Y803000D01*
X1051028D01*
X1040871Y810618D02*
X1045950D01*
X1056106Y818235D02*
Y803000D01*
X1066263D01*
X1071341Y818235D02*
X1076420D01*
X1073881D01*
Y803000D01*
X1071341D01*
X1076420D01*
X1084037Y818235D02*
X1094194D01*
Y815696D01*
X1084037Y805539D01*
Y803000D01*
X1094194D01*
X1109429Y818235D02*
X1099272D01*
Y803000D01*
X1109429D01*
X1099272Y810618D02*
X1104351D01*
X1129743Y818235D02*
X1139899D01*
X1134821D01*
Y803000D01*
X1144978Y818235D02*
Y803000D01*
Y810618D01*
X1155134D01*
Y818235D01*
Y803000D01*
X1170369Y818235D02*
X1160213D01*
Y803000D01*
X1170369D01*
X1160213Y810618D02*
X1165291D01*
X1190683Y818235D02*
Y803000D01*
X1198300D01*
X1200839Y805539D01*
Y808078D01*
X1198300Y810618D01*
X1190683D01*
X1198300D01*
X1200839Y813157D01*
Y815696D01*
X1198300Y818235D01*
X1190683D01*
X1213535D02*
X1208457D01*
X1205918Y815696D01*
Y805539D01*
X1208457Y803000D01*
X1213535D01*
X1216075Y805539D01*
Y815696D01*
X1213535Y818235D01*
X1221153Y803000D02*
Y813157D01*
X1226231Y818235D01*
X1231310Y813157D01*
Y803000D01*
Y810618D01*
X1221153D01*
X1236388Y803000D02*
Y818235D01*
X1244006D01*
X1246545Y815696D01*
Y810618D01*
X1244006Y808078D01*
X1236388D01*
X1241466D02*
X1246545Y803000D01*
X1251623Y818235D02*
Y803000D01*
X1259241D01*
X1261780Y805539D01*
Y815696D01*
X1259241Y818235D01*
X1251623D01*
X1287172Y803000D02*
X1282093Y808078D01*
Y813157D01*
X1287172Y818235D01*
X1302407Y803000D02*
Y818235D01*
X1294789Y810618D01*
X1304946D01*
X1310024Y803000D02*
Y818235D01*
X1317642D01*
X1320181Y815696D01*
Y810618D01*
X1317642Y808078D01*
X1310024D01*
X1335416Y815696D02*
X1332877Y818235D01*
X1327798D01*
X1325259Y815696D01*
Y805539D01*
X1327798Y803000D01*
X1332877D01*
X1335416Y805539D01*
X1350651Y815696D02*
X1348112Y818235D01*
X1343033D01*
X1340494Y815696D01*
Y813157D01*
X1343033Y810618D01*
X1348112D01*
X1350651Y808078D01*
Y805539D01*
X1348112Y803000D01*
X1343033D01*
X1340494Y805539D01*
X1370965Y803000D02*
Y818235D01*
X1378582D01*
X1381121Y815696D01*
Y810618D01*
X1378582Y808078D01*
X1370965D01*
X1396356Y818235D02*
X1386200D01*
Y803000D01*
X1396356D01*
X1386200Y810618D02*
X1391278D01*
X1401435Y803000D02*
Y818235D01*
X1409052D01*
X1411591Y815696D01*
Y810618D01*
X1409052Y808078D01*
X1401435D01*
X1406513D02*
X1411591Y803000D01*
X1431905D02*
Y818235D01*
X1439522D01*
X1442061Y815696D01*
Y810618D01*
X1439522Y808078D01*
X1431905D01*
X1447140Y803000D02*
Y813157D01*
X1452218Y818235D01*
X1457297Y813157D01*
Y803000D01*
Y810618D01*
X1447140D01*
X1462375Y803000D02*
Y818235D01*
X1472532Y803000D01*
Y818235D01*
X1487767D02*
X1477610D01*
Y803000D01*
X1487767D01*
X1477610Y810618D02*
X1482688D01*
X1492845Y818235D02*
Y803000D01*
X1503002D01*
X1508080D02*
X1513159Y808078D01*
Y813157D01*
X1508080Y818235D01*
X1520776Y803000D02*
Y805539D01*
X1523315D01*
Y803000D01*
X1520776D01*
X1548707D02*
Y818235D01*
X1556324D01*
X1558864Y815696D01*
Y810618D01*
X1556324Y808078D01*
X1548707D01*
X1563942Y818235D02*
Y803000D01*
X1574099D01*
X1579177D02*
Y813157D01*
X1584256Y818235D01*
X1589334Y813157D01*
Y803000D01*
Y810618D01*
X1579177D01*
X1604569Y815696D02*
X1602030Y818235D01*
X1596951D01*
X1594412Y815696D01*
Y805539D01*
X1596951Y803000D01*
X1602030D01*
X1604569Y805539D01*
X1619804Y818235D02*
X1609647D01*
Y803000D01*
X1619804D01*
X1609647Y810618D02*
X1614726D01*
X1650274Y818235D02*
X1640117D01*
Y810618D01*
X1645196D01*
X1640117D01*
Y803000D01*
X1655352Y818235D02*
X1660431D01*
X1657892D01*
Y803000D01*
X1655352D01*
X1660431D01*
X1668048Y818235D02*
Y803000D01*
X1675666D01*
X1678205Y805539D01*
Y815696D01*
X1675666Y818235D01*
X1668048D01*
X1683284D02*
Y805539D01*
X1685823Y803000D01*
X1690901D01*
X1693440Y805539D01*
Y818235D01*
X1708675Y815696D02*
X1706136Y818235D01*
X1701058D01*
X1698519Y815696D01*
Y805539D01*
X1701058Y803000D01*
X1706136D01*
X1708675Y805539D01*
X1713754Y818235D02*
X1718832D01*
X1716293D01*
Y803000D01*
X1713754D01*
X1718832D01*
X1726449D02*
Y813157D01*
X1731528Y818235D01*
X1736606Y813157D01*
Y803000D01*
Y810618D01*
X1726449D01*
X1741685Y818235D02*
Y803000D01*
X1751841D01*
X1767076Y815696D02*
X1764537Y818235D01*
X1759459D01*
X1756920Y815696D01*
Y813157D01*
X1759459Y810618D01*
X1764537D01*
X1767076Y808078D01*
Y805539D01*
X1764537Y803000D01*
X1759459D01*
X1756920Y805539D01*
X1795007Y818235D02*
X1789929D01*
X1787390Y815696D01*
Y805539D01*
X1789929Y803000D01*
X1795007D01*
X1797547Y805539D01*
Y815696D01*
X1795007Y818235D01*
X1802625Y803000D02*
Y818235D01*
X1812782Y803000D01*
Y818235D01*
X1833095D02*
X1843252D01*
X1838173D01*
Y803000D01*
X1848330Y818235D02*
Y803000D01*
Y810618D01*
X1858487D01*
Y818235D01*
Y803000D01*
X1873722Y818235D02*
X1863565D01*
Y803000D01*
X1873722D01*
X1863565Y810618D02*
X1868643D01*
X1894035Y803000D02*
Y818235D01*
X1901653D01*
X1904192Y815696D01*
Y810618D01*
X1901653Y808078D01*
X1894035D01*
X1909270Y803000D02*
Y813157D01*
X1914349Y818235D01*
X1919427Y813157D01*
Y803000D01*
Y810618D01*
X1909270D01*
X1924505Y803000D02*
Y818235D01*
X1934662Y803000D01*
Y818235D01*
X1949897D02*
X1939740D01*
Y803000D01*
X1949897D01*
X1939740Y810618D02*
X1944819D01*
X1954976Y818235D02*
Y803000D01*
X1965132D01*
X1995602Y815696D02*
X1993063Y818235D01*
X1987985D01*
X1985446Y815696D01*
Y813157D01*
X1987985Y810618D01*
X1993063D01*
X1995602Y808078D01*
Y805539D01*
X1993063Y803000D01*
X1987985D01*
X1985446Y805539D01*
X2000681Y818235D02*
X2010838D01*
X2005759D01*
Y803000D01*
X2015916D02*
Y818235D01*
X2023533D01*
X2026073Y815696D01*
Y810618D01*
X2023533Y808078D01*
X2015916D01*
X2020994D02*
X2026073Y803000D01*
X2031151Y818235D02*
X2036229D01*
X2033690D01*
Y803000D01*
X2031151D01*
X2036229D01*
X2043847D02*
Y818235D01*
X2051464D01*
X2054003Y815696D01*
Y810618D01*
X2051464Y808078D01*
X2043847D01*
X2069239Y815696D02*
X2066699Y818235D01*
X2061621D01*
X2059082Y815696D01*
Y813157D01*
X2061621Y810618D01*
X2066699D01*
X2069239Y808078D01*
Y805539D01*
X2066699Y803000D01*
X2061621D01*
X2059082Y805539D01*
X2089552Y803000D02*
Y813157D01*
X2094630Y818235D01*
X2099709Y813157D01*
Y803000D01*
Y810618D01*
X2089552D01*
X2114944Y815696D02*
X2112405Y818235D01*
X2107326D01*
X2104787Y815696D01*
Y813157D01*
X2107326Y810618D01*
X2112405D01*
X2114944Y808078D01*
Y805539D01*
X2112405Y803000D01*
X2107326D01*
X2104787Y805539D01*
X2145414Y818235D02*
X2135257D01*
Y810618D01*
X2140336D01*
X2135257D01*
Y803000D01*
X2158110Y818235D02*
X2153031D01*
X2150492Y815696D01*
Y805539D01*
X2153031Y803000D01*
X2158110D01*
X2160649Y805539D01*
Y815696D01*
X2158110Y818235D01*
X2165727D02*
Y803000D01*
X2175884D01*
X2180963Y818235D02*
Y803000D01*
X2191119D01*
X2203815Y818235D02*
X2198737D01*
X2196198Y815696D01*
Y805539D01*
X2198737Y803000D01*
X2203815D01*
X2206354Y805539D01*
Y815696D01*
X2203815Y818235D01*
X2211433D02*
Y803000D01*
X2216511Y808078D01*
X2221589Y803000D01*
Y818235D01*
X2236824Y815696D02*
X2234285Y818235D01*
X2229207D01*
X2226668Y815696D01*
Y813157D01*
X2229207Y810618D01*
X2234285D01*
X2236824Y808078D01*
Y805539D01*
X2234285Y803000D01*
X2229207D01*
X2226668Y805539D01*
X2241903Y813157D02*
X2244442D01*
Y810618D01*
X2241903D01*
Y813157D01*
Y805539D02*
X2244442D01*
Y803000D01*
X2241903D01*
Y805539D01*
X1002000Y785618D02*
X1012157D01*
X1042627Y793235D02*
X1032470D01*
Y785618D01*
X1037549D01*
X1032470D01*
Y778000D01*
X1047705Y793235D02*
X1052784D01*
X1050244D01*
Y778000D01*
X1047705D01*
X1052784D01*
X1060401Y793235D02*
Y778000D01*
X1068019D01*
X1070558Y780539D01*
Y790696D01*
X1068019Y793235D01*
X1060401D01*
X1075636D02*
Y780539D01*
X1078175Y778000D01*
X1083254D01*
X1085793Y780539D01*
Y793235D01*
X1101028Y790696D02*
X1098489Y793235D01*
X1093410D01*
X1090871Y790696D01*
Y780539D01*
X1093410Y778000D01*
X1098489D01*
X1101028Y780539D01*
X1106106Y793235D02*
X1111185D01*
X1108645D01*
Y778000D01*
X1106106D01*
X1111185D01*
X1118802D02*
Y788157D01*
X1123881Y793235D01*
X1128959Y788157D01*
Y778000D01*
Y785618D01*
X1118802D01*
X1134037Y793235D02*
Y778000D01*
X1144194D01*
X1164507Y793235D02*
Y778000D01*
X1172125D01*
X1174664Y780539D01*
Y790696D01*
X1172125Y793235D01*
X1164507D01*
X1179743D02*
X1184821D01*
X1182282D01*
Y778000D01*
X1179743D01*
X1184821D01*
X1192438D02*
Y788157D01*
X1197517Y793235D01*
X1202595Y788157D01*
Y778000D01*
Y785618D01*
X1192438D01*
X1207673Y778000D02*
Y793235D01*
X1212752Y788157D01*
X1217830Y793235D01*
Y778000D01*
X1222908Y793235D02*
X1233065D01*
X1227987D01*
Y778000D01*
X1248300Y793235D02*
X1238144D01*
Y778000D01*
X1248300D01*
X1238144Y785618D02*
X1243222D01*
X1253379Y778000D02*
Y793235D01*
X1260996D01*
X1263535Y790696D01*
Y785618D01*
X1260996Y783078D01*
X1253379D01*
X1258457D02*
X1263535Y778000D01*
X1283849D02*
X1288927D01*
X1286388D01*
Y793235D01*
X1283849Y790696D01*
X1296545Y785618D02*
X1306701D01*
X1311780Y778000D02*
X1316858D01*
X1314319D01*
Y793235D01*
X1311780Y790696D01*
X1324476Y778000D02*
Y780539D01*
X1327015D01*
Y778000D01*
X1324476D01*
X1347328Y793235D02*
X1337171D01*
Y785618D01*
X1342250Y788157D01*
X1344789D01*
X1347328Y785618D01*
Y780539D01*
X1344789Y778000D01*
X1339711D01*
X1337171Y780539D01*
X1352407Y778000D02*
Y793235D01*
X1357485Y788157D01*
X1362563Y793235D01*
Y778000D01*
X1367642D02*
Y793235D01*
X1372720Y788157D01*
X1377798Y793235D01*
Y778000D01*
X1385416Y775461D02*
X1387955Y778000D01*
Y780539D01*
X1385416D01*
Y778000D01*
X1387955D01*
X1385416Y775461D01*
X1382877Y772922D01*
X1423504Y790696D02*
X1420964Y793235D01*
X1415886D01*
X1413347Y790696D01*
Y788157D01*
X1415886Y785618D01*
X1420964D01*
X1423504Y783078D01*
Y780539D01*
X1420964Y778000D01*
X1415886D01*
X1413347Y780539D01*
X1436199Y793235D02*
X1431121D01*
X1428582Y790696D01*
Y780539D01*
X1431121Y778000D01*
X1436199D01*
X1438739Y780539D01*
Y790696D01*
X1436199Y793235D01*
X1443817D02*
Y778000D01*
X1453974D01*
X1459052Y793235D02*
Y778000D01*
X1466670D01*
X1469209Y780539D01*
Y790696D01*
X1466670Y793235D01*
X1459052D01*
X1484444D02*
X1474287D01*
Y778000D01*
X1484444D01*
X1474287Y785618D02*
X1479366D01*
X1489522Y778000D02*
Y793235D01*
X1497140D01*
X1499679Y790696D01*
Y785618D01*
X1497140Y783078D01*
X1489522D01*
X1494601D02*
X1499679Y778000D01*
X1519992D02*
Y793235D01*
X1525071Y788157D01*
X1530149Y793235D01*
Y778000D01*
X1535228D02*
Y788157D01*
X1540306Y793235D01*
X1545384Y788157D01*
Y778000D01*
Y785618D01*
X1535228D01*
X1560619Y790696D02*
X1558080Y793235D01*
X1553002D01*
X1550463Y790696D01*
Y788157D01*
X1553002Y785618D01*
X1558080D01*
X1560619Y783078D01*
Y780539D01*
X1558080Y778000D01*
X1553002D01*
X1550463Y780539D01*
X1565698Y793235D02*
Y778000D01*
Y783078D01*
X1575854Y793235D01*
X1568237Y785618D01*
X1575854Y778000D01*
X1603785Y793235D02*
X1598707D01*
X1596168Y790696D01*
Y780539D01*
X1598707Y778000D01*
X1603785D01*
X1606324Y780539D01*
Y790696D01*
X1603785Y793235D01*
X1611403Y778000D02*
Y793235D01*
X1619020D01*
X1621560Y790696D01*
Y785618D01*
X1619020Y783078D01*
X1611403D01*
X1636795Y793235D02*
X1626638D01*
Y778000D01*
X1636795D01*
X1626638Y785618D02*
X1631716D01*
X1641873Y778000D02*
Y793235D01*
X1652030Y778000D01*
Y793235D01*
X1657108D02*
X1662186D01*
X1659647D01*
Y778000D01*
X1657108D01*
X1662186D01*
X1669804D02*
Y793235D01*
X1679961Y778000D01*
Y793235D01*
X1695196Y790696D02*
X1692657Y793235D01*
X1687578D01*
X1685039Y790696D01*
Y780539D01*
X1687578Y778000D01*
X1692657D01*
X1695196Y780539D01*
Y785618D01*
X1690117D01*
X1715509Y778000D02*
Y788157D01*
X1720587Y793235D01*
X1725666Y788157D01*
Y778000D01*
Y785618D01*
X1715509D01*
X1730744Y793235D02*
X1740901D01*
X1735823D01*
Y778000D01*
X1761214Y793235D02*
Y778000D01*
X1771371D01*
X1786606Y793235D02*
X1776449D01*
Y778000D01*
X1786606D01*
X1776449Y785618D02*
X1781528D01*
X1791685Y778000D02*
Y788157D01*
X1796763Y793235D01*
X1801841Y788157D01*
Y778000D01*
Y785618D01*
X1791685D01*
X1817076Y790696D02*
X1814537Y793235D01*
X1809459D01*
X1806920Y790696D01*
Y788157D01*
X1809459Y785618D01*
X1814537D01*
X1817076Y783078D01*
Y780539D01*
X1814537Y778000D01*
X1809459D01*
X1806920Y780539D01*
X1822155Y793235D02*
X1832311D01*
X1827233D01*
Y778000D01*
X1852625D02*
X1857703D01*
X1855164D01*
Y793235D01*
X1852625Y790696D01*
X1865321Y778000D02*
Y793235D01*
X1870399Y788157D01*
X1875477Y793235D01*
Y778000D01*
X1880556D02*
Y793235D01*
X1885634Y788157D01*
X1890712Y793235D01*
Y778000D01*
X1921183Y790696D02*
X1918643Y793235D01*
X1913565D01*
X1911026Y790696D01*
Y780539D01*
X1913565Y778000D01*
X1918643D01*
X1921183Y780539D01*
Y785618D01*
X1916104D01*
X1926261Y778000D02*
Y793235D01*
X1933878D01*
X1936418Y790696D01*
Y785618D01*
X1933878Y783078D01*
X1926261D01*
X1931339D02*
X1936418Y778000D01*
X1951653Y793235D02*
X1941496D01*
Y778000D01*
X1951653D01*
X1941496Y785618D02*
X1946574D01*
X1956731Y778000D02*
Y788157D01*
X1961810Y793235D01*
X1966888Y788157D01*
Y778000D01*
Y785618D01*
X1956731D01*
X1971966Y793235D02*
X1982123D01*
X1977045D01*
Y778000D01*
X1997358Y793235D02*
X1987201D01*
Y778000D01*
X1997358D01*
X1987201Y785618D02*
X1992280D01*
X2002436Y778000D02*
Y793235D01*
X2010054D01*
X2012593Y790696D01*
Y785618D01*
X2010054Y783078D01*
X2002436D01*
X2007515D02*
X2012593Y778000D01*
X2032906Y793235D02*
X2043063D01*
X2037985D01*
Y778000D01*
X2048142Y793235D02*
Y778000D01*
Y785618D01*
X2058298D01*
Y793235D01*
Y778000D01*
X2063377D02*
Y788157D01*
X2068455Y793235D01*
X2073533Y788157D01*
Y778000D01*
Y785618D01*
X2063377D01*
X2078612Y778000D02*
Y793235D01*
X2088768Y778000D01*
Y793235D01*
X2119239D02*
X2109082D01*
Y785618D01*
X2114160D01*
X2109082D01*
Y778000D01*
X2124317Y793235D02*
X2129395D01*
X2126856D01*
Y778000D01*
X2124317D01*
X2129395D01*
X2137013Y793235D02*
Y778000D01*
X2144630D01*
X2147169Y780539D01*
Y790696D01*
X2144630Y793235D01*
X2137013D01*
X2152248D02*
Y780539D01*
X2154787Y778000D01*
X2159865D01*
X2162405Y780539D01*
Y793235D01*
X2177640Y790696D02*
X2175101Y793235D01*
X2170022D01*
X2167483Y790696D01*
Y780539D01*
X2170022Y778000D01*
X2175101D01*
X2177640Y780539D01*
X2182718Y793235D02*
X2187796D01*
X2185257D01*
Y778000D01*
X2182718D01*
X2187796D01*
X2195414D02*
Y788157D01*
X2200492Y793235D01*
X2205571Y788157D01*
Y778000D01*
Y785618D01*
X2195414D01*
X2210649Y793235D02*
Y778000D01*
X2220806D01*
X1002000Y760618D02*
X1012157D01*
X1032470Y753000D02*
Y768235D01*
X1037549Y763157D01*
X1042627Y768235D01*
Y753000D01*
X1047705Y768235D02*
X1052784D01*
X1050244D01*
Y753000D01*
X1047705D01*
X1052784D01*
X1060401D02*
Y768235D01*
X1070558Y753000D01*
Y768235D01*
X1075636D02*
X1080714D01*
X1078175D01*
Y753000D01*
X1075636D01*
X1080714D01*
X1088332D02*
Y768235D01*
X1093410Y763157D01*
X1098489Y768235D01*
Y753000D01*
X1103567Y768235D02*
Y755539D01*
X1106106Y753000D01*
X1111185D01*
X1113724Y755539D01*
Y768235D01*
X1118802Y753000D02*
Y768235D01*
X1123881Y763157D01*
X1128959Y768235D01*
Y753000D01*
X1156890D02*
Y768235D01*
X1149272Y760618D01*
X1159429D01*
X1164507Y753000D02*
Y768235D01*
X1169586Y763157D01*
X1174664Y768235D01*
Y753000D01*
X1179743D02*
Y768235D01*
X1184821Y763157D01*
X1189899Y768235D01*
Y753000D01*
X1210213Y768235D02*
Y753000D01*
X1217830D01*
X1220369Y755539D01*
Y765696D01*
X1217830Y768235D01*
X1210213D01*
X1225448D02*
X1230526D01*
X1227987D01*
Y753000D01*
X1225448D01*
X1230526D01*
X1248300Y765696D02*
X1245761Y768235D01*
X1240683D01*
X1238144Y765696D01*
Y763157D01*
X1240683Y760618D01*
X1245761D01*
X1248300Y758078D01*
Y755539D01*
X1245761Y753000D01*
X1240683D01*
X1238144Y755539D01*
X1253379Y768235D02*
X1263535D01*
X1258457D01*
Y753000D01*
X1268614D02*
Y763157D01*
X1273692Y768235D01*
X1278771Y763157D01*
Y753000D01*
Y760618D01*
X1268614D01*
X1283849Y753000D02*
Y768235D01*
X1294005Y753000D01*
Y768235D01*
X1309241Y765696D02*
X1306701Y768235D01*
X1301623D01*
X1299084Y765696D01*
Y755539D01*
X1301623Y753000D01*
X1306701D01*
X1309241Y755539D01*
X1324476Y768235D02*
X1314319D01*
Y753000D01*
X1324476D01*
X1314319Y760618D02*
X1319397D01*
X1354946Y768235D02*
X1344789D01*
Y760618D01*
X1349868D01*
X1344789D01*
Y753000D01*
X1360024D02*
Y768235D01*
X1367642D01*
X1370181Y765696D01*
Y760618D01*
X1367642Y758078D01*
X1360024D01*
X1365103D02*
X1370181Y753000D01*
X1382877Y768235D02*
X1377798D01*
X1375259Y765696D01*
Y755539D01*
X1377798Y753000D01*
X1382877D01*
X1385416Y755539D01*
Y765696D01*
X1382877Y768235D01*
X1390494Y753000D02*
Y768235D01*
X1395573Y763157D01*
X1400651Y768235D01*
Y753000D01*
X1420965Y768235D02*
X1431121D01*
X1426043D01*
Y753000D01*
X1436199Y768235D02*
Y753000D01*
Y760618D01*
X1446356D01*
Y768235D01*
Y753000D01*
X1461591Y768235D02*
X1451435D01*
Y753000D01*
X1461591D01*
X1451435Y760618D02*
X1456513D01*
X1481905Y753000D02*
Y768235D01*
X1489522D01*
X1492061Y765696D01*
Y760618D01*
X1489522Y758078D01*
X1481905D01*
X1497140Y753000D02*
Y763157D01*
X1502218Y768235D01*
X1507297Y763157D01*
Y753000D01*
Y760618D01*
X1497140D01*
X1512375Y753000D02*
Y768235D01*
X1522532Y753000D01*
Y768235D01*
X1537767D02*
X1527610D01*
Y753000D01*
X1537767D01*
X1527610Y760618D02*
X1532688D01*
X1542845Y768235D02*
Y753000D01*
X1553002D01*
X1583472Y768235D02*
X1573315D01*
Y753000D01*
X1583472D01*
X1573315Y760618D02*
X1578394D01*
X1588550Y768235D02*
Y753000D01*
X1596168D01*
X1598707Y755539D01*
Y765696D01*
X1596168Y768235D01*
X1588550D01*
X1613942Y765696D02*
X1611403Y768235D01*
X1606324D01*
X1603785Y765696D01*
Y755539D01*
X1606324Y753000D01*
X1611403D01*
X1613942Y755539D01*
Y760618D01*
X1608864D01*
X1629177Y768235D02*
X1619020D01*
Y753000D01*
X1629177D01*
X1619020Y760618D02*
X1624099D01*
X1002000Y735618D02*
X1012157D01*
X1032470Y740696D02*
X1035009Y743235D01*
X1040088D01*
X1042627Y740696D01*
Y738157D01*
X1040088Y735618D01*
X1037549D01*
X1040088D01*
X1042627Y733078D01*
Y730539D01*
X1040088Y728000D01*
X1035009D01*
X1032470Y730539D01*
X1073097Y743235D02*
X1062940D01*
Y735618D01*
X1068019D01*
X1062940D01*
Y728000D01*
X1078175Y743235D02*
X1083254D01*
X1080715D01*
Y728000D01*
X1078175D01*
X1083254D01*
X1090871Y743235D02*
Y728000D01*
X1098489D01*
X1101028Y730539D01*
Y740696D01*
X1098489Y743235D01*
X1090871D01*
X1106106D02*
Y730539D01*
X1108645Y728000D01*
X1113724D01*
X1116263Y730539D01*
Y743235D01*
X1131498Y740696D02*
X1128959Y743235D01*
X1123881D01*
X1121341Y740696D01*
Y730539D01*
X1123881Y728000D01*
X1128959D01*
X1131498Y730539D01*
X1136577Y743235D02*
X1141655D01*
X1139116D01*
Y728000D01*
X1136577D01*
X1141655D01*
X1149272D02*
Y738157D01*
X1154351Y743235D01*
X1159429Y738157D01*
Y728000D01*
Y735618D01*
X1149272D01*
X1164507Y743235D02*
Y728000D01*
X1174664D01*
X1189899Y740696D02*
X1187360Y743235D01*
X1182282D01*
X1179743Y740696D01*
Y738157D01*
X1182282Y735618D01*
X1187360D01*
X1189899Y733078D01*
Y730539D01*
X1187360Y728000D01*
X1182282D01*
X1179743Y730539D01*
X1220369Y740696D02*
X1217830Y743235D01*
X1212752D01*
X1210213Y740696D01*
Y738157D01*
X1212752Y735618D01*
X1217830D01*
X1220369Y733078D01*
Y730539D01*
X1217830Y728000D01*
X1212752D01*
X1210213Y730539D01*
X1225448Y743235D02*
Y728000D01*
Y735618D01*
X1235604D01*
Y743235D01*
Y728000D01*
X1248300Y743235D02*
X1243222D01*
X1240683Y740696D01*
Y730539D01*
X1243222Y728000D01*
X1248300D01*
X1250839Y730539D01*
Y740696D01*
X1248300Y743235D01*
X1255918D02*
Y730539D01*
X1258457Y728000D01*
X1263535D01*
X1266075Y730539D01*
Y743235D01*
X1271153D02*
Y728000D01*
X1281310D01*
X1286388Y743235D02*
Y728000D01*
X1294005D01*
X1296545Y730539D01*
Y740696D01*
X1294005Y743235D01*
X1286388D01*
X1316858D02*
Y728000D01*
X1327015D01*
X1332093Y743235D02*
X1337172D01*
X1334632D01*
Y728000D01*
X1332093D01*
X1337172D01*
X1354946Y743235D02*
X1344789D01*
Y728000D01*
X1354946D01*
X1344789Y735618D02*
X1349868D01*
X1382877Y743235D02*
X1377798D01*
X1375259Y740696D01*
Y730539D01*
X1377798Y728000D01*
X1382877D01*
X1385416Y730539D01*
Y740696D01*
X1382877Y743235D01*
X1390494Y728000D02*
Y743235D01*
X1400651Y728000D01*
Y743235D01*
X1420965D02*
X1431121D01*
X1426043D01*
Y728000D01*
X1436199Y743235D02*
Y728000D01*
X1441278Y733078D01*
X1446356Y728000D01*
Y743235D01*
X1459052D02*
X1453974D01*
X1451435Y740696D01*
Y730539D01*
X1453974Y728000D01*
X1459052D01*
X1461591Y730539D01*
Y740696D01*
X1459052Y743235D01*
X1481905D02*
Y728000D01*
X1492061D01*
X1497140Y743235D02*
X1502218D01*
X1499679D01*
Y728000D01*
X1497140D01*
X1502218D01*
X1509836D02*
Y743235D01*
X1519992Y728000D01*
Y743235D01*
X1535228D02*
X1525071D01*
Y728000D01*
X1535228D01*
X1525071Y735618D02*
X1530149D01*
X1550463Y740696D02*
X1547923Y743235D01*
X1542845D01*
X1540306Y740696D01*
Y738157D01*
X1542845Y735618D01*
X1547923D01*
X1550463Y733078D01*
Y730539D01*
X1547923Y728000D01*
X1542845D01*
X1540306Y730539D01*
X1570776Y743235D02*
X1580933D01*
X1575854D01*
Y728000D01*
X1586011Y743235D02*
Y728000D01*
Y735618D01*
X1596168D01*
Y743235D01*
Y728000D01*
X1601246D02*
Y738157D01*
X1606324Y743235D01*
X1611403Y738157D01*
Y728000D01*
Y735618D01*
X1601246D01*
X1616481Y743235D02*
X1626638D01*
X1621560D01*
Y728000D01*
X1646951Y743235D02*
X1652030D01*
X1649491D01*
Y728000D01*
X1646951D01*
X1652030D01*
X1659647D02*
Y743235D01*
X1669804Y728000D01*
Y743235D01*
X1674882D02*
X1685039D01*
X1679961D01*
Y728000D01*
X1700274Y743235D02*
X1690117D01*
Y728000D01*
X1700274D01*
X1690117Y735618D02*
X1695196D01*
X1705352Y728000D02*
Y743235D01*
X1712970D01*
X1715509Y740696D01*
Y735618D01*
X1712970Y733078D01*
X1705352D01*
X1710431D02*
X1715509Y728000D01*
X1730744Y740696D02*
X1728205Y743235D01*
X1723127D01*
X1720587Y740696D01*
Y738157D01*
X1723127Y735618D01*
X1728205D01*
X1730744Y733078D01*
Y730539D01*
X1728205Y728000D01*
X1723127D01*
X1720587Y730539D01*
X1745979Y743235D02*
X1735823D01*
Y728000D01*
X1745979D01*
X1735823Y735618D02*
X1740901D01*
X1761214Y740696D02*
X1758675Y743235D01*
X1753597D01*
X1751058Y740696D01*
Y730539D01*
X1753597Y728000D01*
X1758675D01*
X1761214Y730539D01*
X1766293Y743235D02*
X1776449D01*
X1771371D01*
Y728000D01*
X1796763D02*
Y738157D01*
X1801841Y743235D01*
X1806920Y738157D01*
Y728000D01*
Y735618D01*
X1796763D01*
X1811998Y743235D02*
X1822155D01*
X1817076D01*
Y728000D01*
X1842468D02*
Y738157D01*
X1847547Y743235D01*
X1852625Y738157D01*
Y728000D01*
Y735618D01*
X1842468D01*
X1872938Y728000D02*
Y743235D01*
X1880556D01*
X1883095Y740696D01*
Y735618D01*
X1880556Y733078D01*
X1872938D01*
X1878017D02*
X1883095Y728000D01*
X1888173Y743235D02*
X1893252D01*
X1890712D01*
Y728000D01*
X1888173D01*
X1893252D01*
X1911026Y740696D02*
X1908487Y743235D01*
X1903408D01*
X1900869Y740696D01*
Y730539D01*
X1903408Y728000D01*
X1908487D01*
X1911026Y730539D01*
Y735618D01*
X1905948D01*
X1916104Y743235D02*
Y728000D01*
Y735618D01*
X1926261D01*
Y743235D01*
Y728000D01*
X1931339Y743235D02*
X1941496D01*
X1936418D01*
Y728000D01*
X1961810D02*
Y738157D01*
X1966888Y743235D01*
X1971966Y738157D01*
Y728000D01*
Y735618D01*
X1961810D01*
X1977045Y728000D02*
Y743235D01*
X1987201Y728000D01*
Y743235D01*
X2002436Y740696D02*
X1999897Y743235D01*
X1994819D01*
X1992280Y740696D01*
Y730539D01*
X1994819Y728000D01*
X1999897D01*
X2002436Y730539D01*
Y735618D01*
X1997358D01*
X2007515Y743235D02*
Y728000D01*
X2017672D01*
X2032906Y743235D02*
X2022750D01*
Y728000D01*
X2032906D01*
X2022750Y735618D02*
X2027828D01*
X1002000Y710618D02*
X1012157D01*
X1032470Y703000D02*
Y718235D01*
X1040088D01*
X1042627Y715696D01*
Y710618D01*
X1040088Y708078D01*
X1032470D01*
X1047705Y718235D02*
Y703000D01*
X1057862D01*
X1062940D02*
Y713157D01*
X1068019Y718235D01*
X1073097Y713157D01*
Y703000D01*
Y710618D01*
X1062940D01*
X1088332Y715696D02*
X1085793Y718235D01*
X1080715D01*
X1078175Y715696D01*
Y705539D01*
X1080715Y703000D01*
X1085793D01*
X1088332Y705539D01*
X1103567Y718235D02*
X1093410D01*
Y703000D01*
X1103567D01*
X1093410Y710618D02*
X1098489D01*
X1131498Y718235D02*
X1126420D01*
X1123881Y715696D01*
Y705539D01*
X1126420Y703000D01*
X1131498D01*
X1134037Y705539D01*
Y715696D01*
X1131498Y718235D01*
X1139116Y703000D02*
Y718235D01*
X1149272Y703000D01*
Y718235D01*
X1164507D02*
X1154351D01*
Y703000D01*
X1164507D01*
X1154351Y710618D02*
X1159429D01*
X1194978Y718235D02*
X1184821D01*
Y710618D01*
X1189899D01*
X1184821D01*
Y703000D01*
X1200056Y718235D02*
X1205134D01*
X1202595D01*
Y703000D01*
X1200056D01*
X1205134D01*
X1212752Y718235D02*
Y703000D01*
X1220369D01*
X1222909Y705539D01*
Y715696D01*
X1220369Y718235D01*
X1212752D01*
X1227987D02*
Y705539D01*
X1230526Y703000D01*
X1235604D01*
X1238144Y705539D01*
Y718235D01*
X1253379Y715696D02*
X1250839Y718235D01*
X1245761D01*
X1243222Y715696D01*
Y705539D01*
X1245761Y703000D01*
X1250839D01*
X1253379Y705539D01*
X1258457Y718235D02*
X1263535D01*
X1260996D01*
Y703000D01*
X1258457D01*
X1263535D01*
X1271153D02*
Y713157D01*
X1276231Y718235D01*
X1281310Y713157D01*
Y703000D01*
Y710618D01*
X1271153D01*
X1286388Y718235D02*
Y703000D01*
X1296545D01*
X1316858Y718235D02*
X1321936D01*
X1319397D01*
Y703000D01*
X1316858D01*
X1321936D01*
X1329554D02*
Y718235D01*
X1339711Y703000D01*
Y718235D01*
X1344789D02*
X1354946D01*
X1349868D01*
Y703000D01*
X1367642Y718235D02*
X1362563D01*
X1360024Y715696D01*
Y705539D01*
X1362563Y703000D01*
X1367642D01*
X1370181Y705539D01*
Y715696D01*
X1367642Y718235D01*
X1400651D02*
X1390494D01*
Y703000D01*
X1400651D01*
X1390494Y710618D02*
X1395573D01*
X1405729Y703000D02*
Y713157D01*
X1410808Y718235D01*
X1415886Y713157D01*
Y703000D01*
Y710618D01*
X1405729D01*
X1431121Y715696D02*
X1428582Y718235D01*
X1423504D01*
X1420965Y715696D01*
Y705539D01*
X1423504Y703000D01*
X1428582D01*
X1431121Y705539D01*
X1436199Y718235D02*
Y703000D01*
Y710618D01*
X1446356D01*
Y718235D01*
Y703000D01*
X1466670D02*
Y718235D01*
X1474287D01*
X1476826Y715696D01*
Y710618D01*
X1474287Y708078D01*
X1466670D01*
X1481905Y703000D02*
Y713157D01*
X1486983Y718235D01*
X1492061Y713157D01*
Y703000D01*
Y710618D01*
X1481905D01*
X1497140Y703000D02*
Y718235D01*
X1507297Y703000D01*
Y718235D01*
X1522532D02*
X1512375D01*
Y703000D01*
X1522532D01*
X1512375Y710618D02*
X1517453D01*
X1527610Y718235D02*
Y703000D01*
X1537767D01*
X1568237Y715696D02*
X1565698Y718235D01*
X1560619D01*
X1558080Y715696D01*
Y705539D01*
X1560619Y703000D01*
X1565698D01*
X1568237Y705539D01*
X1580933Y718235D02*
X1575854D01*
X1573315Y715696D01*
Y705539D01*
X1575854Y703000D01*
X1580933D01*
X1583472Y705539D01*
Y715696D01*
X1580933Y718235D01*
X1588550Y703000D02*
Y718235D01*
X1596168D01*
X1598707Y715696D01*
Y710618D01*
X1596168Y708078D01*
X1588550D01*
X1593629D02*
X1598707Y703000D01*
X1603785D02*
Y718235D01*
X1613942Y703000D01*
Y718235D01*
X1629177D02*
X1619020D01*
Y703000D01*
X1629177D01*
X1619020Y710618D02*
X1624099D01*
X1634256Y703000D02*
Y718235D01*
X1641873D01*
X1644412Y715696D01*
Y710618D01*
X1641873Y708078D01*
X1634256D01*
X1639334D02*
X1644412Y703000D01*
X1669804D02*
X1664726Y708078D01*
Y713157D01*
X1669804Y718235D01*
X1687578D02*
X1677422D01*
Y710618D01*
X1682500D01*
X1677422D01*
Y703000D01*
X1700274Y718235D02*
X1695196D01*
X1692657Y715696D01*
Y705539D01*
X1695196Y703000D01*
X1700274D01*
X1702813Y705539D01*
Y715696D01*
X1700274Y718235D01*
X1707892D02*
Y705539D01*
X1710431Y703000D01*
X1715509D01*
X1718048Y705539D01*
Y718235D01*
X1723127Y703000D02*
Y718235D01*
X1730744D01*
X1733284Y715696D01*
Y710618D01*
X1730744Y708078D01*
X1723127D01*
X1728205D02*
X1733284Y703000D01*
X1761214Y718235D02*
X1756136D01*
X1753597Y715696D01*
Y705539D01*
X1756136Y703000D01*
X1761214D01*
X1763754Y705539D01*
Y715696D01*
X1761214Y718235D01*
X1768832Y703000D02*
Y718235D01*
X1778989Y703000D01*
Y718235D01*
X1799302D02*
X1809459D01*
X1804380D01*
Y703000D01*
X1814537Y718235D02*
Y703000D01*
Y710618D01*
X1824694D01*
Y718235D01*
Y703000D01*
X1839929Y718235D02*
X1829772D01*
Y703000D01*
X1839929D01*
X1829772Y710618D02*
X1834851D01*
X1860242Y718235D02*
X1870399D01*
X1865321D01*
Y703000D01*
X1883095Y718235D02*
X1878017D01*
X1875477Y715696D01*
Y705539D01*
X1878017Y703000D01*
X1883095D01*
X1885634Y705539D01*
Y715696D01*
X1883095Y718235D01*
X1890712Y703000D02*
Y718235D01*
X1898330D01*
X1900869Y715696D01*
Y710618D01*
X1898330Y708078D01*
X1890712D01*
X1921183Y718235D02*
Y703000D01*
X1931339D01*
X1936418D02*
Y713157D01*
X1941496Y718235D01*
X1946575Y713157D01*
Y703000D01*
Y710618D01*
X1936418D01*
X1951653Y718235D02*
Y715696D01*
X1956731Y710618D01*
X1961810Y715696D01*
Y718235D01*
X1956731Y710618D02*
Y703000D01*
X1977045Y718235D02*
X1966888D01*
Y703000D01*
X1977045D01*
X1966888Y710618D02*
X1971966D01*
X1982123Y703000D02*
Y718235D01*
X1989740D01*
X1992280Y715696D01*
Y710618D01*
X1989740Y708078D01*
X1982123D01*
X1987201D02*
X1992280Y703000D01*
X1997358D02*
X2002436Y708078D01*
Y713157D01*
X1997358Y718235D01*
X55000Y892696D02*
X65157Y882539D01*
X55000D02*
X65157Y892696D01*
X55000Y887617D02*
X65157D01*
X60078Y882539D02*
Y892696D01*
X70235Y880000D02*
Y882539D01*
X72774D01*
Y880000D01*
X70235D01*
X93088Y892696D02*
X90548Y895235D01*
X85470D01*
X82931Y892696D01*
Y882539D01*
X85470Y880000D01*
X90548D01*
X93088Y882539D01*
Y887617D01*
X88009D01*
X98166Y880000D02*
Y895235D01*
X103244Y890157D01*
X108323Y895235D01*
Y880000D01*
X123558D02*
X113401D01*
X123558Y890157D01*
Y892696D01*
X121019Y895235D01*
X115940D01*
X113401Y892696D01*
X128636D02*
X131175Y895235D01*
X136254D01*
X138793Y892696D01*
Y890157D01*
X136254Y887617D01*
X138793Y885078D01*
Y882539D01*
X136254Y880000D01*
X131175D01*
X128636Y882539D01*
Y885078D01*
X131175Y887617D01*
X128636Y890157D01*
Y892696D01*
X131175Y887617D02*
X136254D01*
X159106D02*
X169263D01*
X189576Y895235D02*
Y880000D01*
X197194D01*
X199733Y882539D01*
Y885078D01*
X197194Y887617D01*
X189576D01*
X197194D01*
X199733Y890157D01*
Y892696D01*
X197194Y895235D01*
X189576D01*
X207351Y880000D02*
X212429D01*
X214968Y882539D01*
Y887617D01*
X212429Y890157D01*
X207351D01*
X204811Y887617D01*
Y882539D01*
X207351Y880000D01*
X222586Y890157D02*
X227664D01*
X230203Y887617D01*
Y880000D01*
X222586D01*
X220047Y882539D01*
X222586Y885078D01*
X230203D01*
X235282Y890157D02*
Y880000D01*
Y885078D01*
X237821Y887617D01*
X240360Y890157D01*
X242899D01*
X260674Y895235D02*
Y880000D01*
X253056D01*
X250517Y882539D01*
Y887617D01*
X253056Y890157D01*
X260674D01*
X288604Y895235D02*
X283526D01*
X280987Y892696D01*
Y882539D01*
X283526Y880000D01*
X288604D01*
X291144Y882539D01*
Y892696D01*
X288604Y895235D01*
X296222Y890157D02*
Y882539D01*
X298761Y880000D01*
X306379D01*
Y890157D01*
X313996Y892696D02*
Y890157D01*
X311457D01*
X316535D01*
X313996D01*
Y882539D01*
X316535Y880000D01*
X324153D02*
X329231D01*
X326692D01*
Y895235D01*
X324153D01*
X336849Y880000D02*
X341927D01*
X339388D01*
Y890157D01*
X336849D01*
X349545Y880000D02*
Y890157D01*
X357162D01*
X359701Y887617D01*
Y880000D01*
X372397D02*
X367319D01*
X364780Y882539D01*
Y887617D01*
X367319Y890157D01*
X372397D01*
X374936Y887617D01*
Y885078D01*
X364780D01*
X65157Y1170235D02*
X55000D01*
Y1162617D01*
X60078D01*
X55000D01*
Y1155000D01*
X70235D02*
X75313D01*
X72774D01*
Y1165157D01*
X70235D01*
X82931Y1155000D02*
X88009D01*
X85470D01*
Y1170235D01*
X82931D01*
X103244Y1155000D02*
X98166D01*
X95627Y1157539D01*
Y1162617D01*
X98166Y1165157D01*
X103244D01*
X105784Y1162617D01*
Y1160078D01*
X95627D01*
X110862Y1155000D02*
X118479D01*
X121019Y1157539D01*
X118479Y1160078D01*
X113401D01*
X110862Y1162617D01*
X113401Y1165157D01*
X121019D01*
X55000Y1142696D02*
X65157Y1132539D01*
X55000D02*
X65157Y1142696D01*
X55000Y1137617D02*
X65157D01*
X60078Y1132539D02*
Y1142696D01*
X70235Y1130000D02*
Y1132539D01*
X72774D01*
Y1130000D01*
X70235D01*
X93088Y1142696D02*
X90548Y1145235D01*
X85470D01*
X82931Y1142696D01*
Y1132539D01*
X85470Y1130000D01*
X90548D01*
X93088Y1132539D01*
Y1137617D01*
X88009D01*
X98166Y1145235D02*
X108323D01*
X103244D01*
Y1130000D01*
X121019Y1145235D02*
X115940D01*
X113401Y1142696D01*
Y1132539D01*
X115940Y1130000D01*
X121019D01*
X123558Y1132539D01*
Y1142696D01*
X121019Y1145235D01*
X143871Y1137617D02*
X154028D01*
X174341Y1145235D02*
X184498D01*
X179420D01*
Y1130000D01*
X192116D02*
X197194D01*
X199733Y1132539D01*
Y1137617D01*
X197194Y1140157D01*
X192116D01*
X189576Y1137617D01*
Y1132539D01*
X192116Y1130000D01*
X204811Y1124922D02*
Y1140157D01*
X212429D01*
X214968Y1137617D01*
Y1132539D01*
X212429Y1130000D01*
X204811D01*
X242899Y1145235D02*
X237821D01*
X235282Y1142696D01*
Y1132539D01*
X237821Y1130000D01*
X242899D01*
X245438Y1132539D01*
Y1142696D01*
X242899Y1145235D01*
X250517Y1140157D02*
X255595Y1130000D01*
X260674Y1140157D01*
X273369Y1130000D02*
X268291D01*
X265752Y1132539D01*
Y1137617D01*
X268291Y1140157D01*
X273369D01*
X275909Y1137617D01*
Y1135078D01*
X265752D01*
X280987Y1140157D02*
Y1130000D01*
Y1135078D01*
X283526Y1137617D01*
X286065Y1140157D01*
X288604D01*
X296222Y1130000D02*
X301300D01*
X298761D01*
Y1145235D01*
X296222D01*
X311457Y1140157D02*
X316535D01*
X319075Y1137617D01*
Y1130000D01*
X311457D01*
X308918Y1132539D01*
X311457Y1135078D01*
X319075D01*
X324153Y1140157D02*
Y1132539D01*
X326692Y1130000D01*
X334310D01*
Y1127461D01*
X331771Y1124922D01*
X329231D01*
X334310Y1130000D02*
Y1140157D01*
X55000Y1117696D02*
X65157Y1107539D01*
X55000D02*
X65157Y1117696D01*
X55000Y1112617D02*
X65157D01*
X60078Y1107539D02*
Y1117696D01*
X70235Y1105000D02*
Y1107539D01*
X72774D01*
Y1105000D01*
X70235D01*
X93088Y1117696D02*
X90548Y1120235D01*
X85470D01*
X82931Y1117696D01*
Y1107539D01*
X85470Y1105000D01*
X90548D01*
X93088Y1107539D01*
Y1112617D01*
X88009D01*
X98166Y1120235D02*
X108323D01*
X103244D01*
Y1105000D01*
X113401D02*
Y1120235D01*
X121019D01*
X123558Y1117696D01*
Y1112617D01*
X121019Y1110078D01*
X113401D01*
X143871Y1112617D02*
X154028D01*
X174341Y1120235D02*
X184498D01*
X179420D01*
Y1105000D01*
X192116D02*
X197194D01*
X199733Y1107539D01*
Y1112617D01*
X197194Y1115157D01*
X192116D01*
X189576Y1112617D01*
Y1107539D01*
X192116Y1105000D01*
X204811Y1099922D02*
Y1115157D01*
X212429D01*
X214968Y1112617D01*
Y1107539D01*
X212429Y1105000D01*
X204811D01*
X235282D02*
Y1120235D01*
X242899D01*
X245438Y1117696D01*
Y1112617D01*
X242899Y1110078D01*
X235282D01*
X253056Y1115157D02*
X258134D01*
X260674Y1112617D01*
Y1105000D01*
X253056D01*
X250517Y1107539D01*
X253056Y1110078D01*
X260674D01*
X265752Y1105000D02*
X273369D01*
X275909Y1107539D01*
X273369Y1110078D01*
X268291D01*
X265752Y1112617D01*
X268291Y1115157D01*
X275909D01*
X283526Y1117696D02*
Y1115157D01*
X280987D01*
X286065D01*
X283526D01*
Y1107539D01*
X286065Y1105000D01*
X301300D02*
X296222D01*
X293683Y1107539D01*
Y1112617D01*
X296222Y1115157D01*
X301300D01*
X303839Y1112617D01*
Y1110078D01*
X293683D01*
X55000Y1092696D02*
X65157Y1082539D01*
X55000D02*
X65157Y1092696D01*
X55000Y1087617D02*
X65157D01*
X60078Y1082539D02*
Y1092696D01*
X70235Y1080000D02*
Y1082539D01*
X72774D01*
Y1080000D01*
X70235D01*
X93088Y1092696D02*
X90548Y1095235D01*
X85470D01*
X82931Y1092696D01*
Y1082539D01*
X85470Y1080000D01*
X90548D01*
X93088Y1082539D01*
Y1087617D01*
X88009D01*
X98166Y1095235D02*
X108323D01*
X103244D01*
Y1080000D01*
X123558Y1092696D02*
X121019Y1095235D01*
X115940D01*
X113401Y1092696D01*
Y1090157D01*
X115940Y1087617D01*
X121019D01*
X123558Y1085078D01*
Y1082539D01*
X121019Y1080000D01*
X115940D01*
X113401Y1082539D01*
X143871Y1087617D02*
X154028D01*
X174341Y1095235D02*
X184498D01*
X179420D01*
Y1080000D01*
X192116D02*
X197194D01*
X199733Y1082539D01*
Y1087617D01*
X197194Y1090157D01*
X192116D01*
X189576Y1087617D01*
Y1082539D01*
X192116Y1080000D01*
X204811Y1074922D02*
Y1090157D01*
X212429D01*
X214968Y1087617D01*
Y1082539D01*
X212429Y1080000D01*
X204811D01*
X245438Y1092696D02*
X242899Y1095235D01*
X237821D01*
X235282Y1092696D01*
Y1090157D01*
X237821Y1087617D01*
X242899D01*
X245438Y1085078D01*
Y1082539D01*
X242899Y1080000D01*
X237821D01*
X235282Y1082539D01*
X253056Y1080000D02*
X258134D01*
X260674Y1082539D01*
Y1087617D01*
X258134Y1090157D01*
X253056D01*
X250517Y1087617D01*
Y1082539D01*
X253056Y1080000D01*
X265752D02*
X270830D01*
X268291D01*
Y1095235D01*
X265752D01*
X288604D02*
Y1080000D01*
X280987D01*
X278448Y1082539D01*
Y1087617D01*
X280987Y1090157D01*
X288604D01*
X301300Y1080000D02*
X296222D01*
X293683Y1082539D01*
Y1087617D01*
X296222Y1090157D01*
X301300D01*
X303839Y1087617D01*
Y1085078D01*
X293683D01*
X308918Y1090157D02*
Y1080000D01*
Y1085078D01*
X311457Y1087617D01*
X313996Y1090157D01*
X316535D01*
X55000Y1067696D02*
X65157Y1057539D01*
X55000D02*
X65157Y1067696D01*
X55000Y1062617D02*
X65157D01*
X60078Y1057539D02*
Y1067696D01*
X70235Y1055000D02*
Y1057539D01*
X72774D01*
Y1055000D01*
X70235D01*
X93088Y1067696D02*
X90548Y1070235D01*
X85470D01*
X82931Y1067696D01*
Y1057539D01*
X85470Y1055000D01*
X90548D01*
X93088Y1057539D01*
Y1062617D01*
X88009D01*
X98166Y1070235D02*
X108323D01*
X103244D01*
Y1055000D01*
X113401Y1070235D02*
Y1055000D01*
X123558D01*
X143871Y1062617D02*
X154028D01*
X174341Y1070235D02*
Y1055000D01*
X184498D01*
X189576D02*
X194655D01*
X192116D01*
Y1070235D01*
X189576Y1067696D01*
X222586Y1055000D02*
X217507Y1060078D01*
Y1065157D01*
X222586Y1070235D01*
X230203Y1055000D02*
Y1070235D01*
X237821D01*
X240360Y1067696D01*
Y1062617D01*
X237821Y1060078D01*
X230203D01*
X247978Y1055000D02*
X253056D01*
X255595Y1057539D01*
Y1062617D01*
X253056Y1065157D01*
X247978D01*
X245438Y1062617D01*
Y1057539D01*
X247978Y1055000D01*
X260673D02*
X268291D01*
X270830Y1057539D01*
X268291Y1060078D01*
X263213D01*
X260673Y1062617D01*
X263213Y1065157D01*
X270830D01*
X275909Y1055000D02*
X280987D01*
X278448D01*
Y1065157D01*
X275909D01*
X291144Y1067696D02*
Y1065157D01*
X288604D01*
X293683D01*
X291144D01*
Y1057539D01*
X293683Y1055000D01*
X301300D02*
X306379D01*
X303839D01*
Y1065157D01*
X301300D01*
X313996D02*
X319074Y1055000D01*
X324153Y1065157D01*
X336849Y1055000D02*
X331770D01*
X329231Y1057539D01*
Y1062617D01*
X331770Y1065157D01*
X336849D01*
X339388Y1062617D01*
Y1060078D01*
X329231D01*
X344466Y1055000D02*
X349545Y1060078D01*
Y1065157D01*
X344466Y1070235D01*
X55000Y1042696D02*
X65157Y1032539D01*
X55000D02*
X65157Y1042696D01*
X55000Y1037617D02*
X65157D01*
X60078Y1032539D02*
Y1042696D01*
X70235Y1030000D02*
Y1032539D01*
X72774D01*
Y1030000D01*
X70235D01*
X93088Y1042696D02*
X90548Y1045235D01*
X85470D01*
X82931Y1042696D01*
Y1032539D01*
X85470Y1030000D01*
X90548D01*
X93088Y1032539D01*
Y1037617D01*
X88009D01*
X98166Y1045235D02*
Y1030000D01*
X105784D01*
X108323Y1032539D01*
Y1035078D01*
X105784Y1037617D01*
X98166D01*
X105784D01*
X108323Y1040157D01*
Y1042696D01*
X105784Y1045235D01*
X98166D01*
X113401D02*
Y1030000D01*
X123558D01*
X143871Y1037617D02*
X154028D01*
X174341Y1045235D02*
Y1030000D01*
X184498D01*
X199733D02*
X189576D01*
X199733Y1040157D01*
Y1042696D01*
X197194Y1045235D01*
X192116D01*
X189576Y1042696D01*
X225125Y1030000D02*
X220047Y1035078D01*
Y1040157D01*
X225125Y1045235D01*
X232743Y1030000D02*
Y1045235D01*
X240360D01*
X242899Y1042696D01*
Y1037617D01*
X240360Y1035078D01*
X232743D01*
X250517Y1030000D02*
X255595D01*
X258134Y1032539D01*
Y1037617D01*
X255595Y1040157D01*
X250517D01*
X247978Y1037617D01*
Y1032539D01*
X250517Y1030000D01*
X263213D02*
X270830D01*
X273369Y1032539D01*
X270830Y1035078D01*
X265752D01*
X263213Y1037617D01*
X265752Y1040157D01*
X273369D01*
X278448Y1030000D02*
X283526D01*
X280987D01*
Y1040157D01*
X278448D01*
X293683Y1042696D02*
Y1040157D01*
X291144D01*
X296222D01*
X293683D01*
Y1032539D01*
X296222Y1030000D01*
X303839D02*
X308918D01*
X306379D01*
Y1040157D01*
X303839D01*
X316535D02*
X321614Y1030000D01*
X326692Y1040157D01*
X339388Y1030000D02*
X334310D01*
X331770Y1032539D01*
Y1037617D01*
X334310Y1040157D01*
X339388D01*
X341927Y1037617D01*
Y1035078D01*
X331770D01*
X347006Y1030000D02*
X352084Y1035078D01*
Y1040157D01*
X347006Y1045235D01*
X55000Y1017696D02*
X65157Y1007539D01*
X55000D02*
X65157Y1017696D01*
X55000Y1012617D02*
X65157D01*
X60078Y1007539D02*
Y1017696D01*
X70235Y1005000D02*
Y1007539D01*
X72774D01*
Y1005000D01*
X70235D01*
X93088Y1017696D02*
X90548Y1020235D01*
X85470D01*
X82931Y1017696D01*
Y1007539D01*
X85470Y1005000D01*
X90548D01*
X93088Y1007539D01*
Y1012617D01*
X88009D01*
X98166Y1020235D02*
Y1005000D01*
X105784D01*
X108323Y1007539D01*
Y1010078D01*
X105784Y1012617D01*
X98166D01*
X105784D01*
X108323Y1015157D01*
Y1017696D01*
X105784Y1020235D01*
X98166D01*
X123558Y1017696D02*
X121019Y1020235D01*
X115940D01*
X113401Y1017696D01*
Y1015157D01*
X115940Y1012617D01*
X121019D01*
X123558Y1010078D01*
Y1007539D01*
X121019Y1005000D01*
X115940D01*
X113401Y1007539D01*
X143871Y1012617D02*
X154028D01*
X174341Y1020235D02*
Y1005000D01*
X181959D01*
X184498Y1007539D01*
Y1010078D01*
X181959Y1012617D01*
X174341D01*
X181959D01*
X184498Y1015157D01*
Y1017696D01*
X181959Y1020235D01*
X174341D01*
X192116Y1005000D02*
X197194D01*
X199733Y1007539D01*
Y1012617D01*
X197194Y1015157D01*
X192116D01*
X189576Y1012617D01*
Y1007539D01*
X192116Y1005000D01*
X207351Y1017696D02*
Y1015157D01*
X204811D01*
X209890D01*
X207351D01*
Y1007539D01*
X209890Y1005000D01*
X220047Y1017696D02*
Y1015157D01*
X217507D01*
X222586D01*
X220047D01*
Y1007539D01*
X222586Y1005000D01*
X232743D02*
X237821D01*
X240360Y1007539D01*
Y1012617D01*
X237821Y1015157D01*
X232743D01*
X230203Y1012617D01*
Y1007539D01*
X232743Y1005000D01*
X245438D02*
Y1015157D01*
X247978D01*
X250517Y1012617D01*
Y1005000D01*
Y1012617D01*
X253056Y1015157D01*
X255595Y1012617D01*
Y1005000D01*
X286065Y1017696D02*
X283526Y1020235D01*
X278448D01*
X275909Y1017696D01*
Y1015157D01*
X278448Y1012617D01*
X283526D01*
X286065Y1010078D01*
Y1007539D01*
X283526Y1005000D01*
X278448D01*
X275909Y1007539D01*
X293683Y1005000D02*
X298761D01*
X301300Y1007539D01*
Y1012617D01*
X298761Y1015157D01*
X293683D01*
X291144Y1012617D01*
Y1007539D01*
X293683Y1005000D01*
X306379D02*
X311457D01*
X308918D01*
Y1020235D01*
X306379D01*
X329231D02*
Y1005000D01*
X321614D01*
X319074Y1007539D01*
Y1012617D01*
X321614Y1015157D01*
X329231D01*
X341927Y1005000D02*
X336849D01*
X334310Y1007539D01*
Y1012617D01*
X336849Y1015157D01*
X341927D01*
X344466Y1012617D01*
Y1010078D01*
X334310D01*
X349545Y1015157D02*
Y1005000D01*
Y1010078D01*
X352084Y1012617D01*
X354623Y1015157D01*
X357162D01*
X55000Y992696D02*
X65157Y982539D01*
X55000D02*
X65157Y992696D01*
X55000Y987617D02*
X65157D01*
X60078Y982539D02*
Y992696D01*
X70235Y980000D02*
Y982539D01*
X72774D01*
Y980000D01*
X70235D01*
X93088Y992696D02*
X90548Y995235D01*
X85470D01*
X82931Y992696D01*
Y982539D01*
X85470Y980000D01*
X90548D01*
X93088Y982539D01*
Y987617D01*
X88009D01*
X98166Y995235D02*
Y980000D01*
X105784D01*
X108323Y982539D01*
Y985078D01*
X105784Y987617D01*
X98166D01*
X105784D01*
X108323Y990157D01*
Y992696D01*
X105784Y995235D01*
X98166D01*
X121019D02*
X115940D01*
X113401Y992696D01*
Y982539D01*
X115940Y980000D01*
X121019D01*
X123558Y982539D01*
Y992696D01*
X121019Y995235D01*
X143871Y987617D02*
X154028D01*
X174341Y995235D02*
Y980000D01*
X181959D01*
X184498Y982539D01*
Y985078D01*
X181959Y987617D01*
X174341D01*
X181959D01*
X184498Y990157D01*
Y992696D01*
X181959Y995235D01*
X174341D01*
X192116Y980000D02*
X197194D01*
X199733Y982539D01*
Y987617D01*
X197194Y990157D01*
X192116D01*
X189576Y987617D01*
Y982539D01*
X192116Y980000D01*
X207351Y992696D02*
Y990157D01*
X204811D01*
X209890D01*
X207351D01*
Y982539D01*
X209890Y980000D01*
X220047Y992696D02*
Y990157D01*
X217507D01*
X222586D01*
X220047D01*
Y982539D01*
X222586Y980000D01*
X232743D02*
X237821D01*
X240360Y982539D01*
Y987617D01*
X237821Y990157D01*
X232743D01*
X230203Y987617D01*
Y982539D01*
X232743Y980000D01*
X245438D02*
Y990157D01*
X247978D01*
X250517Y987617D01*
Y980000D01*
Y987617D01*
X253056Y990157D01*
X255595Y987617D01*
Y980000D01*
X283526Y995235D02*
X278448D01*
X275909Y992696D01*
Y982539D01*
X278448Y980000D01*
X283526D01*
X286065Y982539D01*
Y992696D01*
X283526Y995235D01*
X291144Y990157D02*
X296222Y980000D01*
X301300Y990157D01*
X313996Y980000D02*
X308918D01*
X306379Y982539D01*
Y987617D01*
X308918Y990157D01*
X313996D01*
X316535Y987617D01*
Y985078D01*
X306379D01*
X321614Y990157D02*
Y980000D01*
Y985078D01*
X324153Y987617D01*
X326692Y990157D01*
X329231D01*
X336849Y980000D02*
X341927D01*
X339388D01*
Y995235D01*
X336849D01*
X352084Y990157D02*
X357162D01*
X359701Y987617D01*
Y980000D01*
X352084D01*
X349545Y982539D01*
X352084Y985078D01*
X359701D01*
X364780Y990157D02*
Y982539D01*
X367319Y980000D01*
X374936D01*
Y977461D01*
X372397Y974922D01*
X369858D01*
X374936Y980000D02*
Y990157D01*
X55000Y967696D02*
X65157Y957539D01*
X55000D02*
X65157Y967696D01*
X55000Y962617D02*
X65157D01*
X60078Y957539D02*
Y967696D01*
X70235Y955000D02*
Y957539D01*
X72774D01*
Y955000D01*
X70235D01*
X93088Y967696D02*
X90548Y970235D01*
X85470D01*
X82931Y967696D01*
Y957539D01*
X85470Y955000D01*
X90548D01*
X93088Y957539D01*
Y962617D01*
X88009D01*
X98166Y955000D02*
Y970235D01*
X103244Y965157D01*
X108323Y970235D01*
Y955000D01*
X123558D02*
X113401D01*
X123558Y965157D01*
Y967696D01*
X121019Y970235D01*
X115940D01*
X113401Y967696D01*
X143871Y962617D02*
X154028D01*
X174341Y955000D02*
Y970235D01*
X179420Y965157D01*
X184498Y970235D01*
Y955000D01*
X197194D02*
X192116D01*
X189576Y957539D01*
Y962617D01*
X192116Y965157D01*
X197194D01*
X199733Y962617D01*
Y960078D01*
X189576D01*
X214968Y965157D02*
X207351D01*
X204811Y962617D01*
Y957539D01*
X207351Y955000D01*
X214968D01*
X220047Y970235D02*
Y955000D01*
Y962617D01*
X222586Y965157D01*
X227664D01*
X230203Y962617D01*
Y955000D01*
X237821Y965157D02*
X242899D01*
X245438Y962617D01*
Y955000D01*
X237821D01*
X235282Y957539D01*
X237821Y960078D01*
X245438D01*
X250517Y955000D02*
Y965157D01*
X258134D01*
X260674Y962617D01*
Y955000D01*
X265752D02*
X270830D01*
X268291D01*
Y965157D01*
X265752D01*
X288604D02*
X280987D01*
X278448Y962617D01*
Y957539D01*
X280987Y955000D01*
X288604D01*
X296222Y965157D02*
X301300D01*
X303839Y962617D01*
Y955000D01*
X296222D01*
X293683Y957539D01*
X296222Y960078D01*
X303839D01*
X308918Y955000D02*
X313996D01*
X311457D01*
Y970235D01*
X308918D01*
X336849D02*
Y955000D01*
X344466D01*
X347006Y957539D01*
Y967696D01*
X344466Y970235D01*
X336849D01*
X352084Y965157D02*
Y955000D01*
Y960078D01*
X354623Y962617D01*
X357162Y965157D01*
X359701D01*
X369858D02*
X374936D01*
X377476Y962617D01*
Y955000D01*
X369858D01*
X367319Y957539D01*
X369858Y960078D01*
X377476D01*
X382554Y965157D02*
Y957539D01*
X385093Y955000D01*
X387632Y957539D01*
X390172Y955000D01*
X392711Y957539D01*
Y965157D01*
X397789Y955000D02*
X402867D01*
X400328D01*
Y965157D01*
X397789D01*
X410485Y955000D02*
Y965157D01*
X418102D01*
X420642Y962617D01*
Y955000D01*
X430798Y949922D02*
X433338D01*
X435877Y952461D01*
Y965157D01*
X428259D01*
X425720Y962617D01*
Y957539D01*
X428259Y955000D01*
X435877D01*
X55000Y917696D02*
X65157Y907539D01*
X55000D02*
X65157Y917696D01*
X55000Y912617D02*
X65157D01*
X60078Y907539D02*
Y917696D01*
X70235Y905000D02*
Y907539D01*
X72774D01*
Y905000D01*
X70235D01*
X93088Y917696D02*
X90548Y920235D01*
X85470D01*
X82931Y917696D01*
Y907539D01*
X85470Y905000D01*
X90548D01*
X93088Y907539D01*
Y912617D01*
X88009D01*
X98166Y905000D02*
Y920235D01*
X103244Y915157D01*
X108323Y920235D01*
Y905000D01*
X121019D02*
Y920235D01*
X113401Y912617D01*
X123558D01*
X143871D02*
X154028D01*
X174341Y920235D02*
Y905000D01*
X184498D01*
X189576D02*
X194655D01*
X192116D01*
Y915157D01*
X189576D01*
X212429D02*
X204811D01*
X202272Y912617D01*
Y907539D01*
X204811Y905000D01*
X212429D01*
X225125D02*
X220047D01*
X217507Y907539D01*
Y912617D01*
X220047Y915157D01*
X225125D01*
X227664Y912617D01*
Y910078D01*
X217507D01*
X232743Y905000D02*
Y915157D01*
X240360D01*
X242899Y912617D01*
Y905000D01*
X258134Y915157D02*
X250517D01*
X247978Y912617D01*
Y907539D01*
X250517Y905000D01*
X258134D01*
X270830D02*
X265752D01*
X263213Y907539D01*
Y912617D01*
X265752Y915157D01*
X270830D01*
X273369Y912617D01*
Y910078D01*
X263213D01*
X55000Y942696D02*
X65157Y932539D01*
X55000D02*
X65157Y942696D01*
X55000Y937617D02*
X65157D01*
X60078Y932539D02*
Y942696D01*
X70235Y930000D02*
Y932539D01*
X72774D01*
Y930000D01*
X70235D01*
X93088Y942696D02*
X90548Y945235D01*
X85470D01*
X82931Y942696D01*
Y932539D01*
X85470Y930000D01*
X90548D01*
X93088Y932539D01*
Y937617D01*
X88009D01*
X98166Y930000D02*
Y945235D01*
X103244Y940157D01*
X108323Y945235D01*
Y930000D01*
X113401Y942696D02*
X115940Y945235D01*
X121019D01*
X123558Y942696D01*
Y940157D01*
X121019Y937617D01*
X118479D01*
X121019D01*
X123558Y935078D01*
Y932539D01*
X121019Y930000D01*
X115940D01*
X113401Y932539D01*
X143871Y937617D02*
X154028D01*
X174341Y930000D02*
Y945235D01*
X179420Y940157D01*
X184498Y945235D01*
Y930000D01*
X192116Y940157D02*
X197194D01*
X199733Y937617D01*
Y930000D01*
X192116D01*
X189576Y932539D01*
X192116Y935078D01*
X199733D01*
X204811Y930000D02*
Y940157D01*
X212429D01*
X214968Y937617D01*
Y930000D01*
X220047Y940157D02*
Y932539D01*
X222586Y930000D01*
X230203D01*
Y940157D01*
X237821Y930000D02*
Y942696D01*
Y937617D01*
X235282D01*
X240360D01*
X237821D01*
Y942696D01*
X240360Y945235D01*
X250517Y940157D02*
X255595D01*
X258134Y937617D01*
Y930000D01*
X250517D01*
X247978Y932539D01*
X250517Y935078D01*
X258134D01*
X273369Y940157D02*
X265752D01*
X263213Y937617D01*
Y932539D01*
X265752Y930000D01*
X273369D01*
X280987Y942696D02*
Y940157D01*
X278448D01*
X283526D01*
X280987D01*
Y932539D01*
X283526Y930000D01*
X291144Y940157D02*
Y932539D01*
X293683Y930000D01*
X301300D01*
Y940157D01*
X306379D02*
Y930000D01*
Y935078D01*
X308918Y937617D01*
X311457Y940157D01*
X313996D01*
X321614Y930000D02*
X326692D01*
X324153D01*
Y940157D01*
X321614D01*
X334310Y930000D02*
Y940157D01*
X341927D01*
X344466Y937617D01*
Y930000D01*
X354623Y924922D02*
X357162D01*
X359701Y927461D01*
Y940157D01*
X352084D01*
X349545Y937617D01*
Y932539D01*
X352084Y930000D01*
X359701D01*
X380015D02*
Y945235D01*
X390172Y930000D01*
Y945235D01*
X397789Y930000D02*
X402867D01*
X405407Y932539D01*
Y937617D01*
X402867Y940157D01*
X397789D01*
X395250Y937617D01*
Y932539D01*
X397789Y930000D01*
X413024Y942696D02*
Y940157D01*
X410485D01*
X415563D01*
X413024D01*
Y932539D01*
X415563Y930000D01*
X430798D02*
X425720D01*
X423181Y932539D01*
Y937617D01*
X425720Y940157D01*
X430798D01*
X433338Y937617D01*
Y935078D01*
X423181D01*
X438416Y930000D02*
X446034D01*
X448573Y932539D01*
X446034Y935078D01*
X440955D01*
X438416Y937617D01*
X440955Y940157D01*
X448573D01*
M02*
