G04*
G04 #@! TF.GenerationSoftware,Altium Limited,Altium Designer,25.1.2 (22)*
G04*
G04 Layer_Color=8388736*
%FSLAX44Y44*%
%MOMM*%
G71*
G04*
G04 #@! TF.SameCoordinates,5E672C01-8995-41B4-AFFF-24039E6A3FFE*
G04*
G04*
G04 #@! TF.FilePolarity,Positive*
G04*
G01*
G75*
%ADD83C,1.0160*%
%ADD84C,0.2540*%
%ADD85C,0.3810*%
%ADD86C,0.7000*%
%ADD87C,0.1524*%
D83*
X676400Y355600D02*
G03*
X676400Y355600I-16000J0D01*
G01*
Y75946D02*
G03*
X676400Y75946I-16000J0D01*
G01*
X155700Y25400D02*
G03*
X155700Y25400I-16000J0D01*
G01*
X163828Y506984D02*
G03*
X163828Y506984I-16000J0D01*
G01*
X0Y0D02*
Y533400D01*
Y0D02*
X685800D01*
Y533400D01*
X0D02*
X685800D01*
D84*
X-152540Y0D02*
X-7620D01*
X-152540Y76200D02*
X619860D01*
X-150000D02*
Y101600D01*
Y-25400D02*
Y0D01*
Y76200D02*
X-144920Y91440D01*
X-155080D02*
X-150000Y76200D01*
X-155080Y-15240D02*
X-150000Y0D01*
X-144920Y-15240D01*
X-77540Y0D02*
X-7620D01*
X-77540Y25400D02*
X494460D01*
X-75000D02*
Y50800D01*
Y-25400D02*
Y0D01*
Y25400D02*
X-69920Y40640D01*
X-80080D02*
X-75000Y25400D01*
X-80080Y-15240D02*
X-75000Y0D01*
X-69920Y-15240D01*
X-252540Y0D02*
X-7620D01*
X-252540Y135572D02*
X-2496D01*
X-250000Y0D02*
Y39344D01*
Y88099D02*
Y135572D01*
Y0D02*
X-244920Y15240D01*
X-255080D02*
X-250000Y0D01*
X-255080Y120332D02*
X-250000Y135572D01*
X-244920Y120332D01*
X-327540Y0D02*
X-7620D01*
X-327540Y234000D02*
X8455D01*
X-325000Y0D02*
Y91098D01*
Y134774D02*
Y234000D01*
Y0D02*
X-319920Y15240D01*
X-330080D02*
X-325000Y0D01*
X-330080Y218760D02*
X-325000Y234000D01*
X-319920Y218760D01*
X-402540Y0D02*
X-7620D01*
X-402540Y355600D02*
X619860D01*
X-400000Y0D02*
Y143011D01*
Y204461D02*
Y355600D01*
Y0D02*
X-394920Y15240D01*
X-405080D02*
X-400000Y0D01*
X-405080Y340360D02*
X-400000Y355600D01*
X-394920Y340360D01*
X-477540Y0D02*
X-7620D01*
X-477540Y386080D02*
X13360D01*
X-475000Y0D02*
Y158251D01*
Y219701D02*
Y386080D01*
Y0D02*
X-469920Y15240D01*
X-480080D02*
X-475000Y0D01*
X-480080Y370840D02*
X-475000Y386080D01*
X-469920Y370840D01*
X-552540Y0D02*
X-7620D01*
X-552540Y472440D02*
X13360D01*
X-550000Y0D02*
Y201431D01*
Y262881D02*
Y472440D01*
Y0D02*
X-544920Y15240D01*
X-555080D02*
X-550000Y0D01*
X-555080Y457200D02*
X-550000Y472440D01*
X-544920Y457200D01*
X-627540Y0D02*
X-7620D01*
X-627540Y508000D02*
X621460D01*
X-625000Y0D02*
Y217941D01*
Y281931D02*
Y508000D01*
Y0D02*
X-619920Y15240D01*
X-630080D02*
X-625000Y0D01*
X-630080Y492760D02*
X-625000Y508000D01*
X-619920Y492760D01*
X0Y-27540D02*
Y-7620D01*
X21044Y-27540D02*
Y32D01*
Y-25000D02*
X46444D01*
X-25400D02*
X0D01*
X21044D02*
X36284Y-30080D01*
X21044Y-25000D02*
X36284Y-19920D01*
X-15240D02*
X0Y-25000D01*
X-15240Y-30080D02*
X0Y-25000D01*
Y-77540D02*
Y-7620D01*
X25400Y-77540D02*
Y374040D01*
Y-75000D02*
X50800D01*
X-25400D02*
X0D01*
X25400D02*
X40640Y-80080D01*
X25400Y-75000D02*
X40640Y-69920D01*
X-15240D02*
X0Y-75000D01*
X-15240Y-80080D02*
X0Y-75000D01*
Y-502540D02*
Y-7620D01*
X635000Y-502540D02*
Y494460D01*
X0Y-500000D02*
X281441D01*
X345431D02*
X635000D01*
X0D02*
X15240Y-505080D01*
X0Y-500000D02*
X15240Y-494920D01*
X619760D02*
X635000Y-500000D01*
X619760Y-505080D02*
X635000Y-500000D01*
X685800Y-652540D02*
Y-7620D01*
X0Y-652540D02*
Y-7620D01*
X370831Y-650000D02*
X685800D01*
X0D02*
X306841D01*
X670560Y-644920D02*
X685800Y-650000D01*
X670560Y-655080D02*
X685800Y-650000D01*
X0D02*
X15240Y-655080D01*
X0Y-650000D02*
X15240Y-644920D01*
X0Y-577540D02*
Y-7620D01*
X660400Y-577540D02*
Y315060D01*
X0Y-575000D02*
X294141D01*
X358131D02*
X660400D01*
X0D02*
X15240Y-580080D01*
X0Y-575000D02*
X15240Y-569920D01*
X645160D02*
X660400Y-575000D01*
X645160Y-580080D02*
X660400Y-575000D01*
X0Y-427540D02*
Y-7620D01*
X508000Y-427540D02*
Y11860D01*
X0Y-425000D02*
X217941D01*
X281931D02*
X508000D01*
X0D02*
X15240Y-430080D01*
X0Y-425000D02*
X15240Y-419920D01*
X492760D02*
X508000Y-425000D01*
X492760Y-430080D02*
X508000Y-425000D01*
X0Y-352540D02*
Y-7620D01*
X416560Y-352540D02*
Y494460D01*
X0Y-350000D02*
X173491D01*
X234941D02*
X416560D01*
X0D02*
X15240Y-355080D01*
X0Y-350000D02*
X15240Y-344920D01*
X401320D02*
X416560Y-350000D01*
X401320Y-355080D02*
X416560Y-350000D01*
X0Y-277540D02*
Y-7620D01*
X279400Y-277540D02*
Y11860D01*
X0Y-275000D02*
X106180D01*
X165092D02*
X279400D01*
X0D02*
X15240Y-280080D01*
X0Y-275000D02*
X15240Y-269920D01*
X264160D02*
X279400Y-275000D01*
X264160Y-280080D02*
X279400Y-275000D01*
X0Y-202540D02*
Y-7620D01*
X148000Y-202540D02*
Y487460D01*
X0Y-200000D02*
X45559D01*
X94313D02*
X148000D01*
X0D02*
X15240Y-205080D01*
X0Y-200000D02*
X15240Y-194920D01*
X132760D02*
X148000Y-200000D01*
X132760Y-205080D02*
X148000Y-200000D01*
X0Y-127540D02*
Y-7620D01*
X139700Y-127540D02*
Y-15140D01*
X0Y-125000D02*
X41409D01*
X90163D02*
X139700D01*
X0D02*
X15240Y-130080D01*
X0Y-125000D02*
X15240Y-119920D01*
X124460D02*
X139700Y-125000D01*
X124460Y-130080D02*
X139700Y-125000D01*
X-702540Y533400D02*
X-7620D01*
X-702540Y0D02*
X-7620D01*
X-700000Y293361D02*
Y533400D01*
Y0D02*
Y231911D01*
X-705080Y518160D02*
X-700000Y533400D01*
X-694920Y518160D01*
X-700000Y0D02*
X-694920Y15240D01*
X-705080D02*
X-700000Y0D01*
D85*
X-398000Y-125687D02*
Y-142614D01*
X-394614Y-146000D01*
X-387843D01*
X-384458Y-142614D01*
Y-125687D01*
X-377687Y-146000D02*
Y-132458D01*
X-367530D01*
X-364144Y-135843D01*
Y-146000D01*
X-357373D02*
X-350602D01*
X-353988D01*
Y-132458D01*
X-357373D01*
X-337060Y-129072D02*
Y-132458D01*
X-340445D01*
X-333674D01*
X-337060D01*
Y-142614D01*
X-333674Y-146000D01*
X-323517D02*
X-313361D01*
X-309975Y-142614D01*
X-313361Y-139229D01*
X-320132D01*
X-323517Y-135843D01*
X-320132Y-132458D01*
X-309975D01*
X-303204D02*
X-299818D01*
Y-135843D01*
X-303204D01*
Y-132458D01*
Y-142614D02*
X-299818D01*
Y-146000D01*
X-303204D01*
Y-142614D01*
X-265963Y-146000D02*
Y-132458D01*
X-262577D01*
X-259192Y-135843D01*
Y-146000D01*
Y-135843D01*
X-255806Y-132458D01*
X-252421Y-135843D01*
Y-146000D01*
X-245649D02*
X-238878D01*
X-242264D01*
Y-132458D01*
X-245649D01*
X-228722Y-146000D02*
X-221950D01*
X-225336D01*
Y-125687D01*
X-228722D01*
X-211794Y-146000D02*
X-201637D01*
X-198251Y-142614D01*
X-201637Y-139229D01*
X-208408D01*
X-211794Y-135843D01*
X-208408Y-132458D01*
X-198251D01*
X-384458Y-179072D02*
X-387843Y-175687D01*
X-394614D01*
X-398000Y-179072D01*
Y-182458D01*
X-394614Y-185843D01*
X-387843D01*
X-384458Y-189229D01*
Y-192614D01*
X-387843Y-196000D01*
X-394614D01*
X-398000Y-192614D01*
X-364144Y-182458D02*
X-374301D01*
X-377687Y-185843D01*
Y-192614D01*
X-374301Y-196000D01*
X-364144D01*
X-353988Y-182458D02*
X-347216D01*
X-343831Y-185843D01*
Y-196000D01*
X-353988D01*
X-357373Y-192614D01*
X-353988Y-189229D01*
X-343831D01*
X-337060Y-196000D02*
X-330289D01*
X-333674D01*
Y-175687D01*
X-337060D01*
X-309975Y-196000D02*
X-316746D01*
X-320132Y-192614D01*
Y-185843D01*
X-316746Y-182458D01*
X-309975D01*
X-306590Y-185843D01*
Y-189229D01*
X-320132D01*
X-299818Y-182458D02*
X-296433D01*
Y-185843D01*
X-299818D01*
Y-182458D01*
Y-192614D02*
X-296433D01*
Y-196000D01*
X-299818D01*
Y-192614D01*
X-262577Y-196000D02*
X-255806D01*
X-259192D01*
Y-175687D01*
X-262577Y-179072D01*
X-245649Y-182458D02*
X-242264D01*
Y-185843D01*
X-245649D01*
Y-182458D01*
Y-192614D02*
X-242264D01*
Y-196000D01*
X-245649D01*
Y-192614D01*
X-228722Y-196000D02*
X-221950D01*
X-225336D01*
Y-175687D01*
X-228722Y-179072D01*
D86*
X432000Y691989D02*
Y668663D01*
X443663Y657000D01*
X455326Y668663D01*
Y691989D01*
X466989Y657000D02*
X478652D01*
X472820D01*
Y691989D01*
X466989Y686157D01*
X496146Y691989D02*
X507809D01*
X501977D01*
Y657000D01*
X496146D01*
X507809D01*
X525303D02*
X536966D01*
X531135D01*
Y691989D01*
X525303Y686157D01*
X112831Y657000D02*
X124494D01*
X130326Y662831D01*
Y674494D01*
X124494Y680326D01*
X112831D01*
X107000Y674494D01*
Y662831D01*
X112831Y657000D01*
X147820D02*
Y686157D01*
Y674494D01*
X141989D01*
X153652D01*
X147820D01*
Y686157D01*
X153652Y691989D01*
X229460Y657000D02*
X206135D01*
X229460Y680326D01*
Y686157D01*
X223629Y691989D01*
X211966D01*
X206135Y686157D01*
X241123D02*
X246955Y691989D01*
X258618D01*
X264449Y686157D01*
Y680326D01*
X258618Y674494D01*
X264449Y668663D01*
Y662831D01*
X258618Y657000D01*
X246955D01*
X241123Y662831D01*
Y668663D01*
X246955Y674494D01*
X241123Y680326D01*
Y686157D01*
X246955Y674494D02*
X258618D01*
X276112Y657000D02*
Y691989D01*
X293606D01*
X299438Y686157D01*
Y674494D01*
X293606Y668663D01*
X276112D01*
X311101Y657000D02*
X322764D01*
X316932D01*
Y680326D01*
X311101D01*
X340258Y657000D02*
Y680326D01*
X357752D01*
X363584Y674494D01*
Y657000D01*
X375247D02*
X392741D01*
X398573Y662831D01*
X392741Y668663D01*
X381078D01*
X375247Y674494D01*
X381078Y680326D01*
X398573D01*
X57000Y718663D02*
Y753652D01*
X68663Y741989D01*
X80326Y753652D01*
Y718663D01*
X109483D02*
X97820D01*
X91989Y724494D01*
Y736157D01*
X97820Y741989D01*
X109483D01*
X115315Y736157D01*
Y730326D01*
X91989D01*
X150303Y741989D02*
X132809D01*
X126977Y736157D01*
Y724494D01*
X132809Y718663D01*
X150303D01*
X161966Y753652D02*
Y718663D01*
Y736157D01*
X167798Y741989D01*
X179460D01*
X185292Y736157D01*
Y718663D01*
X202786Y741989D02*
X214449D01*
X220281Y736157D01*
Y718663D01*
X202786D01*
X196955Y724494D01*
X202786Y730326D01*
X220281D01*
X231943Y718663D02*
Y741989D01*
X249438D01*
X255269Y736157D01*
Y718663D01*
X266932D02*
X278595D01*
X272764D01*
Y741989D01*
X266932D01*
X319415D02*
X301921D01*
X296089Y736157D01*
Y724494D01*
X301921Y718663D01*
X319415D01*
X336910Y741989D02*
X348573D01*
X354404Y736157D01*
Y718663D01*
X336910D01*
X331078Y724494D01*
X336910Y730326D01*
X354404D01*
X366067Y718663D02*
X377730D01*
X371898D01*
Y753652D01*
X366067D01*
X430213D02*
Y718663D01*
X447707D01*
X453539Y724494D01*
Y747820D01*
X447707Y753652D01*
X430213D01*
X465201Y741989D02*
Y718663D01*
Y730326D01*
X471033Y736157D01*
X476864Y741989D01*
X482696D01*
X506022D02*
X517685D01*
X523516Y736157D01*
Y718663D01*
X506022D01*
X500190Y724494D01*
X506022Y730326D01*
X523516D01*
X535179Y741989D02*
Y724494D01*
X541010Y718663D01*
X546842Y724494D01*
X552673Y718663D01*
X558505Y724494D01*
Y741989D01*
X570168Y718663D02*
X581830D01*
X575999D01*
Y741989D01*
X570168D01*
X599325Y718663D02*
Y741989D01*
X616819D01*
X622651Y736157D01*
Y718663D01*
X645976Y707000D02*
X651808D01*
X657639Y712831D01*
Y741989D01*
X640145D01*
X634314Y736157D01*
Y724494D01*
X640145Y718663D01*
X657639D01*
D87*
X-153554Y-71615D02*
X-156094Y-69076D01*
Y-63997D01*
X-153554Y-61458D01*
X-151015D01*
X-148476Y-63997D01*
Y-66536D01*
Y-63997D01*
X-145937Y-61458D01*
X-143398D01*
X-140858Y-63997D01*
Y-69076D01*
X-143398Y-71615D01*
X-153554Y-56380D02*
X-156094Y-53841D01*
Y-48762D01*
X-153554Y-46223D01*
X-143398D01*
X-140858Y-48762D01*
Y-53841D01*
X-143398Y-56380D01*
X-153554D01*
Y-41145D02*
X-156094Y-38605D01*
Y-33527D01*
X-153554Y-30988D01*
X-143398D01*
X-140858Y-33527D01*
Y-38605D01*
X-143398Y-41145D01*
X-153554D01*
X-65858Y-69076D02*
Y-63997D01*
Y-66536D01*
X-81094D01*
X-78554Y-69076D01*
Y-56380D02*
X-81094Y-53841D01*
Y-48762D01*
X-78554Y-46223D01*
X-68398D01*
X-65858Y-48762D01*
Y-53841D01*
X-68398Y-56380D01*
X-78554D01*
Y-41145D02*
X-81094Y-38605D01*
Y-33527D01*
X-78554Y-30988D01*
X-68398D01*
X-65858Y-33527D01*
Y-38605D01*
X-68398Y-41145D01*
X-78554D01*
X-256094Y53565D02*
Y43408D01*
X-248476D01*
X-251015Y48487D01*
Y51026D01*
X-248476Y53565D01*
X-243398D01*
X-240858Y51026D01*
Y45948D01*
X-243398Y43408D01*
X-253554Y58644D02*
X-256094Y61183D01*
Y66261D01*
X-253554Y68800D01*
X-251015D01*
X-248476Y66261D01*
Y63722D01*
Y66261D01*
X-245937Y68800D01*
X-243398D01*
X-240858Y66261D01*
Y61183D01*
X-243398Y58644D01*
X-240858Y81496D02*
X-256094D01*
X-248476Y73879D01*
Y84035D01*
X-318398Y95162D02*
X-315858Y97701D01*
Y102779D01*
X-318398Y105318D01*
X-328554D01*
X-331093Y102779D01*
Y97701D01*
X-328554Y95162D01*
X-326015D01*
X-323476Y97701D01*
Y105318D01*
X-315858Y120554D02*
Y110397D01*
X-326015Y120554D01*
X-328554D01*
X-331093Y118014D01*
Y112936D01*
X-328554Y110397D01*
X-315858Y125632D02*
Y130710D01*
Y128171D01*
X-331093D01*
X-328554Y125632D01*
X-390858Y147075D02*
Y152153D01*
Y149614D01*
X-406093D01*
X-403554Y147075D01*
X-390858Y167388D02*
X-406093D01*
X-398476Y159770D01*
Y169927D01*
X-403554Y175006D02*
X-406093Y177545D01*
Y182623D01*
X-403554Y185162D01*
X-393398D01*
X-390858Y182623D01*
Y177545D01*
X-393398Y175006D01*
X-403554D01*
Y190241D02*
X-406093Y192780D01*
Y197858D01*
X-403554Y200397D01*
X-393398D01*
X-390858Y197858D01*
Y192780D01*
X-393398Y190241D01*
X-403554D01*
X-465858Y162315D02*
Y167393D01*
Y164854D01*
X-481093D01*
X-478554Y162315D01*
X-481093Y185167D02*
Y175011D01*
X-473476D01*
X-476015Y180089D01*
Y182628D01*
X-473476Y185167D01*
X-468398D01*
X-465858Y182628D01*
Y177550D01*
X-468398Y175011D01*
X-465858Y200402D02*
Y190246D01*
X-476015Y200402D01*
X-478554D01*
X-481093Y197863D01*
Y192785D01*
X-478554Y190246D01*
Y205481D02*
X-481093Y208020D01*
Y213098D01*
X-478554Y215637D01*
X-468398D01*
X-465858Y213098D01*
Y208020D01*
X-468398Y205481D01*
X-478554D01*
X-540858Y205495D02*
Y210573D01*
Y208034D01*
X-556093D01*
X-553554Y205495D01*
Y218190D02*
X-556093Y220730D01*
Y225808D01*
X-553554Y228347D01*
X-551015D01*
X-548476Y225808D01*
X-545937Y228347D01*
X-543398D01*
X-540858Y225808D01*
Y220730D01*
X-543398Y218190D01*
X-545937D01*
X-548476Y220730D01*
X-551015Y218190D01*
X-553554D01*
X-548476Y220730D02*
Y225808D01*
X-556093Y243582D02*
X-553554Y238504D01*
X-548476Y233426D01*
X-543398D01*
X-540858Y235965D01*
Y241043D01*
X-543398Y243582D01*
X-545937D01*
X-548476Y241043D01*
Y233426D01*
X-553554Y248661D02*
X-556093Y251200D01*
Y256278D01*
X-553554Y258817D01*
X-543398D01*
X-540858Y256278D01*
Y251200D01*
X-543398Y248661D01*
X-553554D01*
X-615858Y232162D02*
Y222005D01*
X-626015Y232162D01*
X-628554D01*
X-631093Y229623D01*
Y224544D01*
X-628554Y222005D01*
Y237240D02*
X-631093Y239779D01*
Y244858D01*
X-628554Y247397D01*
X-618398D01*
X-615858Y244858D01*
Y239779D01*
X-618398Y237240D01*
X-628554D01*
Y252475D02*
X-631093Y255014D01*
Y260093D01*
X-628554Y262632D01*
X-618398D01*
X-615858Y260093D01*
Y255014D01*
X-618398Y252475D01*
X-628554D01*
Y267710D02*
X-631093Y270249D01*
Y275328D01*
X-628554Y277867D01*
X-618398D01*
X-615858Y275328D01*
Y270249D01*
X-618398Y267710D01*
X-628554D01*
X48984Y-21446D02*
X51523Y-18907D01*
X56602D01*
X59141Y-21446D01*
Y-23985D01*
X56602Y-26524D01*
X59141Y-29063D01*
Y-31602D01*
X56602Y-34141D01*
X51523D01*
X48984Y-31602D01*
Y-29063D01*
X51523Y-26524D01*
X48984Y-23985D01*
Y-21446D01*
X51523Y-26524D02*
X56602D01*
X64219Y-21446D02*
X66758Y-18907D01*
X71837D01*
X74376Y-21446D01*
Y-23985D01*
X71837Y-26524D01*
X69297D01*
X71837D01*
X74376Y-29063D01*
Y-31602D01*
X71837Y-34141D01*
X66758D01*
X64219Y-31602D01*
X53340Y-84142D02*
X58418D01*
X55879D01*
Y-68906D01*
X53340Y-71446D01*
X66036D02*
X68575Y-68906D01*
X73653D01*
X76193Y-71446D01*
Y-81602D01*
X73653Y-84142D01*
X68575D01*
X66036Y-81602D01*
Y-71446D01*
X81271D02*
X83810Y-68906D01*
X88889D01*
X91428Y-71446D01*
Y-81602D01*
X88889Y-84142D01*
X83810D01*
X81271Y-81602D01*
Y-71446D01*
X295662Y-509142D02*
X285505D01*
X295662Y-498985D01*
Y-496446D01*
X293123Y-493907D01*
X288044D01*
X285505Y-496446D01*
X310897Y-493907D02*
X300740D01*
Y-501524D01*
X305818Y-498985D01*
X308358D01*
X310897Y-501524D01*
Y-506602D01*
X308358Y-509142D01*
X303279D01*
X300740Y-506602D01*
X315975Y-496446D02*
X318514Y-493907D01*
X323593D01*
X326132Y-496446D01*
Y-506602D01*
X323593Y-509142D01*
X318514D01*
X315975Y-506602D01*
Y-496446D01*
X331210D02*
X333749Y-493907D01*
X338828D01*
X341367Y-496446D01*
Y-506602D01*
X338828Y-509142D01*
X333749D01*
X331210Y-506602D01*
Y-496446D01*
X321062Y-659141D02*
X310905D01*
X321062Y-648985D01*
Y-646446D01*
X318523Y-643906D01*
X313444D01*
X310905Y-646446D01*
X326140Y-643906D02*
X336297D01*
Y-646446D01*
X326140Y-656602D01*
Y-659141D01*
X341375Y-646446D02*
X343914Y-643906D01*
X348993D01*
X351532Y-646446D01*
Y-656602D01*
X348993Y-659141D01*
X343914D01*
X341375Y-656602D01*
Y-646446D01*
X356610D02*
X359149Y-643906D01*
X364228D01*
X366767Y-646446D01*
Y-656602D01*
X364228Y-659141D01*
X359149D01*
X356610Y-656602D01*
Y-646446D01*
X308362Y-584142D02*
X298205D01*
X308362Y-573985D01*
Y-571446D01*
X305823Y-568907D01*
X300744D01*
X298205Y-571446D01*
X323597Y-568907D02*
X318518Y-571446D01*
X313440Y-576524D01*
Y-581602D01*
X315979Y-584142D01*
X321058D01*
X323597Y-581602D01*
Y-579063D01*
X321058Y-576524D01*
X313440D01*
X328675Y-571446D02*
X331214Y-568907D01*
X336293D01*
X338832Y-571446D01*
Y-581602D01*
X336293Y-584142D01*
X331214D01*
X328675Y-581602D01*
Y-571446D01*
X343910D02*
X346449Y-568907D01*
X351528D01*
X354067Y-571446D01*
Y-581602D01*
X351528Y-584142D01*
X346449D01*
X343910Y-581602D01*
Y-571446D01*
X232162Y-434142D02*
X222005D01*
X232162Y-423985D01*
Y-421446D01*
X229623Y-418907D01*
X224544D01*
X222005Y-421446D01*
X237240D02*
X239779Y-418907D01*
X244858D01*
X247397Y-421446D01*
Y-431602D01*
X244858Y-434142D01*
X239779D01*
X237240Y-431602D01*
Y-421446D01*
X252475D02*
X255014Y-418907D01*
X260093D01*
X262632Y-421446D01*
Y-431602D01*
X260093Y-434142D01*
X255014D01*
X252475Y-431602D01*
Y-421446D01*
X267710D02*
X270249Y-418907D01*
X275328D01*
X277867Y-421446D01*
Y-431602D01*
X275328Y-434142D01*
X270249D01*
X267710Y-431602D01*
Y-421446D01*
X177555Y-359142D02*
X182633D01*
X180094D01*
Y-343907D01*
X177555Y-346446D01*
X200407Y-343907D02*
X195329Y-346446D01*
X190250Y-351524D01*
Y-356602D01*
X192790Y-359142D01*
X197868D01*
X200407Y-356602D01*
Y-354063D01*
X197868Y-351524D01*
X190250D01*
X213103Y-359142D02*
Y-343907D01*
X205486Y-351524D01*
X215642D01*
X220721Y-346446D02*
X223260Y-343907D01*
X228338D01*
X230877Y-346446D01*
Y-356602D01*
X228338Y-359142D01*
X223260D01*
X220721Y-356602D01*
Y-346446D01*
X110244Y-284142D02*
X115323D01*
X112783D01*
Y-268906D01*
X110244Y-271446D01*
X122940Y-284142D02*
X128018D01*
X125479D01*
Y-268906D01*
X122940Y-271446D01*
X135636D02*
X138175Y-268906D01*
X143253D01*
X145793Y-271446D01*
Y-281602D01*
X143253Y-284142D01*
X138175D01*
X135636Y-281602D01*
Y-271446D01*
X150871D02*
X153410Y-268906D01*
X158489D01*
X161028Y-271446D01*
Y-281602D01*
X158489Y-284142D01*
X153410D01*
X150871Y-281602D01*
Y-271446D01*
X59779Y-193906D02*
X49623D01*
Y-201524D01*
X54701Y-198985D01*
X57240D01*
X59779Y-201524D01*
Y-206602D01*
X57240Y-209142D01*
X52162D01*
X49623Y-206602D01*
X64858Y-196446D02*
X67397Y-193906D01*
X72475D01*
X75014Y-196446D01*
Y-198985D01*
X72475Y-201524D01*
X75014Y-204063D01*
Y-206602D01*
X72475Y-209142D01*
X67397D01*
X64858Y-206602D01*
Y-204063D01*
X67397Y-201524D01*
X64858Y-198985D01*
Y-196446D01*
X67397Y-201524D02*
X72475D01*
X80093Y-196446D02*
X82632Y-193906D01*
X87710D01*
X90249Y-196446D01*
Y-198985D01*
X87710Y-201524D01*
X85171D01*
X87710D01*
X90249Y-204063D01*
Y-206602D01*
X87710Y-209142D01*
X82632D01*
X80093Y-206602D01*
X55629Y-118906D02*
X45473D01*
Y-126524D01*
X50551Y-123985D01*
X53090D01*
X55629Y-126524D01*
Y-131602D01*
X53090Y-134142D01*
X48012D01*
X45473Y-131602D01*
X70864Y-118906D02*
X60708D01*
Y-126524D01*
X65786Y-123985D01*
X68325D01*
X70864Y-126524D01*
Y-131602D01*
X68325Y-134142D01*
X63247D01*
X60708Y-131602D01*
X75943Y-121446D02*
X78482Y-118906D01*
X83560D01*
X86099Y-121446D01*
Y-131602D01*
X83560Y-134142D01*
X78482D01*
X75943Y-131602D01*
Y-121446D01*
X-690859Y246131D02*
Y235975D01*
X-701015Y246131D01*
X-703554D01*
X-706094Y243592D01*
Y238514D01*
X-703554Y235975D01*
X-690859Y251210D02*
Y256288D01*
Y253749D01*
X-706094D01*
X-703554Y251210D01*
Y263906D02*
X-706094Y266445D01*
Y271523D01*
X-703554Y274062D01*
X-693398D01*
X-690859Y271523D01*
Y266445D01*
X-693398Y263906D01*
X-703554D01*
Y279141D02*
X-706094Y281680D01*
Y286758D01*
X-703554Y289297D01*
X-693398D01*
X-690859Y286758D01*
Y281680D01*
X-693398Y279141D01*
X-703554D01*
M02*
