G04*
G04 #@! TF.GenerationSoftware,Altium Limited,Altium Designer,25.1.2 (22)*
G04*
G04 Layer_Physical_Order=1*
G04 Layer_Color=255*
%FSLAX44Y44*%
%MOMM*%
G71*
G04*
G04 #@! TF.SameCoordinates,5E672C01-8995-41B4-AFFF-24039E6A3FFE*
G04*
G04*
G04 #@! TF.FilePolarity,Positive*
G04*
G01*
G75*
%ADD10C,0.2000*%
%ADD11C,0.5000*%
%ADD12C,0.4000*%
%ADD13R,0.5500X1.0000*%
%ADD14R,1.3500X0.4000*%
%ADD15R,1.4000X1.6000*%
%ADD16R,1.9000X1.9000*%
%ADD17R,3.5000X2.2000*%
%ADD18R,0.6000X2.2000*%
%ADD19R,1.3000X0.7000*%
%ADD20R,0.7000X1.3000*%
%ADD21R,0.9000X0.6000*%
%ADD22R,0.6858X0.5588*%
%ADD23R,0.5588X0.6858*%
%ADD24R,1.3000X0.9000*%
%ADD25R,1.0000X0.5500*%
%ADD26R,0.5500X1.5000*%
%ADD27R,0.8000X0.8000*%
%ADD28R,0.9000X1.3000*%
%ADD29R,1.5000X0.5500*%
%ADD30R,1.6000X3.0000*%
%ADD31R,2.5000X2.6000*%
%ADD32R,2.6000X2.5000*%
%ADD33R,2.7000X2.0000*%
%ADD61R,1.9000X1.9000*%
%ADD62C,1.9000*%
%ADD68C,1.0160*%
%ADD69C,0.6000*%
%ADD70C,0.8000*%
%ADD71C,1.0000*%
G04:AMPARAMS|DCode=72|XSize=2mm|YSize=1.25mm|CornerRadius=0.375mm|HoleSize=0mm|Usage=FLASHONLY|Rotation=0.000|XOffset=0mm|YOffset=0mm|HoleType=Round|Shape=RoundedRectangle|*
%AMROUNDEDRECTD72*
21,1,2.0000,0.5000,0,0,0.0*
21,1,1.2500,1.2500,0,0,0.0*
1,1,0.7500,0.6250,-0.2500*
1,1,0.7500,-0.6250,-0.2500*
1,1,0.7500,-0.6250,0.2500*
1,1,0.7500,0.6250,0.2500*
%
%ADD72ROUNDEDRECTD72*%
%ADD73O,1.6000X2.0000*%
%ADD74R,1.6000X2.0000*%
%ADD75O,2.0000X1.6000*%
%ADD76R,2.0000X1.6000*%
%ADD77R,1.7000X1.7000*%
%ADD78C,1.7000*%
%ADD79C,3.2000*%
%ADD80C,7.4000*%
%ADD81C,4.0000*%
%ADD82C,0.6000*%
G36*
X109000Y420000D02*
X128000D01*
X129000Y419000D01*
Y403000D01*
X89000D01*
Y425000D01*
X88000Y424000D01*
X35000D01*
Y403885D01*
X34957Y403934D01*
X35000Y404000D01*
X16000D01*
Y438000D01*
X29000D01*
X32000Y441000D01*
Y442000D01*
X87000D01*
X109000Y420000D01*
D02*
G37*
G36*
X413422Y365000D02*
X400000D01*
Y494000D01*
X413422D01*
Y365000D01*
D02*
G37*
G36*
X643000Y407000D02*
X687000D01*
Y301000D01*
X684000Y298000D01*
X592000D01*
Y343000D01*
X602000D01*
Y362500D01*
Y365000D01*
X603000D01*
Y379000D01*
X602000D01*
Y379000D01*
X584000D01*
Y368000D01*
X576000D01*
Y376000D01*
X571000D01*
Y403000D01*
X629000D01*
Y414061D01*
X629000Y415000D01*
X643000D01*
Y407000D01*
D02*
G37*
G36*
X89020Y110780D02*
X90730Y111488D01*
X92000Y111006D01*
Y104244D01*
X90730Y103469D01*
X89520Y103970D01*
Y98500D01*
X88250D01*
Y97230D01*
X82780D01*
X83553Y95362D01*
X85112Y93803D01*
X86400Y93270D01*
X86147Y92000D01*
X81000D01*
X80000Y91000D01*
Y83000D01*
X2000D01*
Y107000D01*
X63000D01*
X64000Y108000D01*
Y114000D01*
X82685D01*
X83053Y113112D01*
X84612Y111553D01*
X86480Y110780D01*
Y116250D01*
X89020D01*
Y110780D01*
D02*
G37*
G36*
X196000Y116000D02*
X214402D01*
Y113843D01*
X214790Y111892D01*
X215000Y111578D01*
Y92000D01*
X206581D01*
X206325Y92148D01*
X203146Y93000D01*
X199854D01*
X196675Y92148D01*
X196419Y92000D01*
X188000D01*
Y78000D01*
X158261D01*
X158000Y79162D01*
Y100000D01*
X167000D01*
Y101000D01*
X170000D01*
Y125000D01*
X196000D01*
Y116000D01*
D02*
G37*
G36*
X152000Y103000D02*
X135000D01*
X125000Y93000D01*
Y76732D01*
X107000D01*
Y116000D01*
X121000D01*
X130000Y125000D01*
X152000D01*
Y103000D01*
D02*
G37*
G36*
X430000Y117000D02*
X431000Y116000D01*
Y83000D01*
X451000D01*
Y74000D01*
X429000D01*
Y72230D01*
X427730Y71381D01*
X427444Y71500D01*
X425056D01*
X423849Y71000D01*
X420650D01*
X420000Y71269D01*
Y105000D01*
X409000Y116000D01*
Y136000D01*
X430000D01*
Y117000D01*
D02*
G37*
G36*
X435000Y43000D02*
X440000Y38000D01*
Y16000D01*
X398000D01*
X397969Y16031D01*
Y56958D01*
X398000Y57000D01*
X405000D01*
X415980Y67980D01*
X417250Y67500D01*
Y67500D01*
X432250D01*
Y69000D01*
X435000D01*
Y43000D01*
D02*
G37*
G36*
X487000Y108680D02*
Y84000D01*
X501000D01*
Y49000D01*
X478000D01*
Y84000D01*
X481000D01*
Y98000D01*
X478000Y101000D01*
Y109000D01*
X486521D01*
X487000Y108680D01*
D02*
G37*
G36*
X389000Y79000D02*
Y44000D01*
X392000Y41000D01*
X393000D01*
Y15000D01*
X372000D01*
Y34000D01*
X375000Y37000D01*
Y58000D01*
X379000Y62000D01*
Y71000D01*
X371000Y79000D01*
X341296D01*
X341000Y79059D01*
X326941D01*
X326000Y80000D01*
Y89000D01*
X379000D01*
X389000Y79000D01*
D02*
G37*
G36*
X362000Y36000D02*
X364000Y34000D01*
Y15000D01*
X347000D01*
Y29000D01*
X334000Y42000D01*
X327517D01*
X326513Y43270D01*
X326559Y43500D01*
X326559Y43500D01*
Y51430D01*
X326826Y51829D01*
X326860Y52000D01*
X362000D01*
Y36000D01*
D02*
G37*
G36*
X341000Y59000D02*
X340000Y58000D01*
X324000D01*
Y53000D01*
X323500D01*
Y43500D01*
X318000Y38000D01*
Y15000D01*
X295000D01*
Y51204D01*
X296000Y52000D01*
X314000D01*
Y59000D01*
X315500D01*
Y74000D01*
X314000D01*
Y76000D01*
X341000D01*
Y59000D01*
D02*
G37*
G36*
X54000Y234485D02*
X53913Y234399D01*
X53000Y232194D01*
Y229806D01*
X53913Y227601D01*
X54000Y227515D01*
Y225254D01*
X53481Y224000D01*
X38000D01*
Y190000D01*
X38995D01*
Y189500D01*
X54917D01*
Y186240D01*
X54111Y185434D01*
X53227Y184111D01*
X52917Y182550D01*
X52917Y182550D01*
Y175763D01*
X52917Y175762D01*
X53227Y174202D01*
X54111Y172878D01*
X56000Y170990D01*
Y168000D01*
X59000Y165000D01*
X78000D01*
Y163500D01*
X91000D01*
Y165000D01*
X100000D01*
Y180000D01*
X107000D01*
X113000Y186000D01*
Y187791D01*
X113899Y188163D01*
X115587Y189851D01*
X116500Y192057D01*
Y193000D01*
X128103D01*
X128809Y191944D01*
X128530Y191270D01*
X139470D01*
X139191Y191944D01*
X139897Y193000D01*
X145884D01*
X149238Y189645D01*
X150892Y188540D01*
X152843Y188152D01*
X165330D01*
X166159Y187598D01*
X168500Y187132D01*
X170841Y187598D01*
X172826Y188924D01*
X176901Y193000D01*
X179000D01*
Y167053D01*
X176947Y165000D01*
X143000D01*
X138000Y160000D01*
X132000D01*
Y135000D01*
X123000Y126000D01*
X103000D01*
Y75000D01*
X104549D01*
X104837Y74569D01*
X105829Y73906D01*
X107000Y73674D01*
X125000D01*
X126171Y73906D01*
X127163Y74569D01*
X127451Y75000D01*
X140879D01*
X141600Y74905D01*
X142321Y75000D01*
X157703D01*
X157739Y74986D01*
X158003Y74993D01*
X158261Y74941D01*
X166725D01*
X167000Y74905D01*
X167274Y74941D01*
X188000D01*
X188295Y75000D01*
X192000D01*
Y88941D01*
X196419D01*
X196616Y88981D01*
X196818Y88967D01*
X197197Y89096D01*
X197589Y89174D01*
X197720Y89261D01*
X200257Y89941D01*
X202743D01*
X205280Y89261D01*
X205411Y89174D01*
X205803Y89096D01*
X206182Y88967D01*
X206383Y88981D01*
X206581Y88941D01*
X213000D01*
Y71000D01*
X202000D01*
Y26000D01*
X203000Y25000D01*
X214000D01*
Y2000D01*
X99000D01*
Y44000D01*
X63000D01*
Y79000D01*
X85000D01*
X84000Y80000D01*
Y88000D01*
X94000D01*
X95000Y89000D01*
Y103949D01*
X95059Y104244D01*
Y111006D01*
X95050Y111052D01*
X95057Y111098D01*
X95000Y111347D01*
Y124000D01*
X61000D01*
Y114296D01*
X60941Y114000D01*
Y110059D01*
X2000D01*
Y241000D01*
X54000D01*
Y234485D01*
D02*
G37*
G36*
X39000Y34000D02*
X80000D01*
Y2000D01*
X2000D01*
Y74000D01*
X39000D01*
Y34000D01*
D02*
G37*
%LPC*%
G36*
X86980Y103970D02*
X85112Y103197D01*
X83553Y101638D01*
X82780Y99770D01*
X86980D01*
Y103970D01*
D02*
G37*
G36*
X139470Y188730D02*
X128530D01*
X129303Y186862D01*
X130336Y185830D01*
X130721Y185000D01*
X130336Y184170D01*
X129303Y183138D01*
X128687Y181651D01*
X127313D01*
X126697Y183138D01*
X125138Y184697D01*
X123270Y185470D01*
Y180000D01*
Y174530D01*
X125138Y175303D01*
X126697Y176862D01*
X127313Y178349D01*
X128687D01*
X129303Y176862D01*
X130862Y175303D01*
X132349Y174687D01*
Y173313D01*
X130862Y172697D01*
X129303Y171138D01*
X128530Y169270D01*
X139470D01*
X138697Y171138D01*
X137138Y172697D01*
X135651Y173313D01*
Y174687D01*
X137138Y175303D01*
X138697Y176862D01*
X139470Y178730D01*
X134000D01*
Y181270D01*
X139470D01*
X138697Y183138D01*
X137664Y184170D01*
X137279Y185000D01*
X137664Y185830D01*
X138697Y186862D01*
X139470Y188730D01*
D02*
G37*
G36*
X120730Y185470D02*
X118862Y184697D01*
X117303Y183138D01*
X116530Y181270D01*
X120730D01*
Y185470D01*
D02*
G37*
G36*
Y178730D02*
X116530D01*
X117303Y176862D01*
X118862Y175303D01*
X120730Y174530D01*
Y178730D01*
D02*
G37*
G36*
X139470Y166730D02*
X135270D01*
Y162530D01*
X137138Y163303D01*
X138697Y164862D01*
X139470Y166730D01*
D02*
G37*
G36*
X132730D02*
X128530D01*
X129303Y164862D01*
X130862Y163303D01*
X132730Y162530D01*
Y166730D01*
D02*
G37*
G36*
X98730Y159470D02*
X96862Y158697D01*
X95303Y157138D01*
X94530Y155270D01*
X98730D01*
Y159470D01*
D02*
G37*
G36*
X120270Y158470D02*
Y154270D01*
X124470D01*
X123697Y156138D01*
X122138Y157697D01*
X120270Y158470D01*
D02*
G37*
G36*
X110270Y159470D02*
Y154000D01*
X107730D01*
Y159470D01*
X105862Y158697D01*
X104500Y157335D01*
X103138Y158697D01*
X101270Y159470D01*
Y154000D01*
Y148530D01*
X103138Y149303D01*
X104500Y150665D01*
X105862Y149303D01*
X107349Y148687D01*
Y147313D01*
X105862Y146697D01*
X104303Y145138D01*
X103530Y143270D01*
X114470D01*
X113697Y145138D01*
X112138Y146697D01*
X110651Y147313D01*
Y148687D01*
X112138Y149303D01*
X112861Y150026D01*
X114303Y149862D01*
X115862Y148303D01*
X117730Y147530D01*
Y153000D01*
Y158470D01*
X115862Y157697D01*
X115139Y156974D01*
X113697Y157138D01*
X112138Y158697D01*
X110270Y159470D01*
D02*
G37*
G36*
X98730Y152730D02*
X94530D01*
X95303Y150862D01*
X96862Y149303D01*
X98730Y148530D01*
Y152730D01*
D02*
G37*
G36*
X124470Y151730D02*
X120270D01*
Y147530D01*
X122138Y148303D01*
X123697Y149862D01*
X124470Y151730D01*
D02*
G37*
G36*
X114470Y140730D02*
X110270D01*
Y136530D01*
X112138Y137303D01*
X113697Y138862D01*
X114470Y140730D01*
D02*
G37*
G36*
X107730D02*
X103530D01*
X104303Y138862D01*
X105862Y137303D01*
X107730Y136530D01*
Y140730D01*
D02*
G37*
%LPD*%
D10*
X289500Y506440D02*
Y508000D01*
X56995Y182550D02*
X58995Y184550D01*
X56995Y175762D02*
X61257Y171500D01*
X56995Y175762D02*
Y182550D01*
X58995Y184550D02*
Y191743D01*
X417500Y361500D02*
Y508000D01*
X370000Y359000D02*
X415000D01*
X417500Y361500D01*
X268000Y213000D02*
X307000Y252000D01*
Y342000D01*
X259757Y213000D02*
X268000D01*
X365760Y506000D02*
X378000Y493760D01*
X376243Y371000D02*
X378000Y372757D01*
X358000Y371000D02*
X376243D01*
X378000Y372757D02*
Y493760D01*
X342117Y484000D02*
X364243D01*
Y376000D02*
X366000Y377757D01*
X364243Y484000D02*
X366000Y482243D01*
X352716Y376000D02*
X364243D01*
X366000Y377757D02*
Y482243D01*
X352243Y474000D02*
X354000Y472243D01*
X307000Y342000D02*
X354000Y389000D01*
Y472243D01*
X316757Y474000D02*
X352243D01*
X318000Y341284D02*
X352716Y376000D01*
X365000Y327000D02*
X384000Y346000D01*
X365000Y252595D02*
Y327000D01*
X384000Y346000D02*
X423000D01*
X358000Y252666D02*
Y336000D01*
X375000Y353000D02*
X417000D01*
X358000Y336000D02*
X375000Y353000D01*
X328000Y341000D02*
X358000Y371000D01*
X328000Y246000D02*
Y341000D01*
X350000Y339000D02*
X370000Y359000D01*
X350000Y251737D02*
Y339000D01*
X331061Y232798D02*
X350000Y251737D01*
X339000Y247808D02*
Y340000D01*
X330692Y239500D02*
X339000Y247808D01*
Y340000D02*
X365000Y366000D01*
X389403D01*
X393000Y339000D02*
X429000D01*
X372000Y318000D02*
X393000Y339000D01*
X372000Y212187D02*
Y318000D01*
X269000Y205071D02*
X318000Y254071D01*
Y341284D01*
X333132Y227798D02*
X358000Y252666D01*
X341250Y228845D02*
X365000Y252595D01*
X366650Y206837D02*
X372000Y212187D01*
X366650Y201930D02*
Y206837D01*
X266000Y221000D02*
X294000Y249000D01*
Y341000D01*
X340000Y387000D01*
X311692Y222500D02*
X321990Y232798D01*
X331061D01*
X296520Y222500D02*
X311692D01*
X319500Y239500D02*
X330692D01*
X290450Y216430D02*
X296520Y222500D01*
X309000Y229000D02*
X319500Y239500D01*
X327218Y227798D02*
X333132D01*
X315850Y216430D02*
X327218Y227798D01*
X341250Y201930D02*
Y228845D01*
X315850Y201930D02*
Y216430D01*
X290450Y201930D02*
Y216430D01*
X389403Y366000D02*
X391160Y367757D01*
Y508000D01*
X270757Y187750D02*
X332000D01*
X269000Y189507D02*
X270757Y187750D01*
X269000Y189507D02*
Y205071D01*
X258000Y189000D02*
X273000Y174000D01*
X258000Y189000D02*
Y211243D01*
X259757Y213000D01*
X247000Y187000D02*
X266000Y168000D01*
Y122000D02*
Y168000D01*
X289500Y466757D02*
Y506440D01*
X247000Y187000D02*
Y218000D01*
X250000Y221000D01*
X266000D01*
X340000Y387000D02*
Y459243D01*
X338243Y461000D02*
X340000Y459243D01*
X306757Y461000D02*
X338243D01*
X365760Y506000D02*
Y508000D01*
X340360Y485757D02*
Y508000D01*
Y485757D02*
X342117Y484000D01*
X315000Y475757D02*
X316757Y474000D01*
X305000Y462757D02*
X306757Y461000D01*
X305000Y462757D02*
Y491000D01*
X289560Y506440D02*
X305000Y491000D01*
X289560Y506440D02*
Y508000D01*
X290000Y126000D02*
Y165000D01*
X303750Y178750D01*
X289916Y108000D02*
X350920D01*
X287000Y101000D02*
X364000D01*
X273000Y124917D02*
X289916Y108000D01*
X266000Y122000D02*
X287000Y101000D01*
X364000D02*
X364500Y100500D01*
Y100000D02*
Y100500D01*
Y100000D02*
X370500D01*
X350920Y108000D02*
X366650Y123730D01*
X327250Y139130D02*
Y178250D01*
X273000Y124917D02*
Y174000D01*
X247000Y166500D02*
Y177000D01*
X238000Y186000D02*
X247000Y177000D01*
X548500Y416500D02*
X573750Y441750D01*
X583200D01*
X548500Y409308D02*
Y416500D01*
X555303Y412303D02*
X559303D01*
X583000Y436000D02*
X586500D01*
X559303Y412303D02*
X583000Y436000D01*
X555000Y412000D02*
X555303Y412303D01*
X586500Y436000D02*
X605500Y455000D01*
X548500Y409308D02*
X552000Y405808D01*
Y383000D02*
Y405808D01*
X546000Y377000D02*
X552000Y383000D01*
X564000Y246893D02*
X583893Y227000D01*
X564000Y404500D02*
X579000Y419500D01*
X564000Y246893D02*
Y404500D01*
X595000Y202000D02*
Y204180D01*
X546000Y253180D02*
X595000Y204180D01*
X546000Y253180D02*
Y377000D01*
X531000Y242780D02*
X571000Y202780D01*
Y201000D02*
Y202780D01*
X542000Y408737D02*
X544426Y406311D01*
X542000Y428071D02*
X568429Y454500D01*
X542000Y408737D02*
Y428071D01*
X544426Y402574D02*
X545000Y402000D01*
X544426Y402574D02*
Y406311D01*
X537000Y443500D02*
X567000Y473500D01*
X537000Y385000D02*
Y443500D01*
X531000Y379000D02*
X537000Y385000D01*
X531000Y242780D02*
Y379000D01*
X544000Y200000D02*
Y200862D01*
X536583Y206417D02*
X538445D01*
X518000Y225000D02*
X536583Y206417D01*
X538445D02*
X544000Y200862D01*
X528000Y392000D02*
Y453000D01*
X518000Y382000D02*
X528000Y392000D01*
X518000Y225000D02*
Y382000D01*
X528000Y453000D02*
X582750Y507750D01*
X519050Y401000D02*
Y463300D01*
X559250Y503500D01*
X519000Y397000D02*
Y401000D01*
X505000Y383000D02*
X519000Y397000D01*
X505000Y217980D02*
Y383000D01*
Y217980D02*
X519050Y203930D01*
Y201930D02*
Y203930D01*
X509750Y407500D02*
Y482350D01*
X533500Y506100D01*
X493650Y391400D02*
X509750Y407500D01*
X457000Y393000D02*
Y507500D01*
X417000Y353000D02*
X457000Y393000D01*
X423000Y346000D02*
X482600Y405600D01*
Y506100D01*
X429000Y339000D02*
X497250Y407250D01*
Y495250D01*
X493650Y201930D02*
Y391400D01*
X60750Y510250D02*
X81750D01*
X119000Y473000D02*
X200750D01*
X81750Y510250D02*
X119000Y473000D01*
X583893Y227000D02*
X607500D01*
X103500Y193250D02*
X110500D01*
X158000Y245521D02*
Y258000D01*
X156500Y244021D02*
X158000Y245521D01*
X156250Y200250D02*
X156500Y200500D01*
Y244021D01*
X103500Y214000D02*
X103750Y214250D01*
X110750D01*
X164750Y256750D02*
X166000Y258000D01*
X164750Y250743D02*
Y256750D01*
X164250Y250243D02*
X164750Y250743D01*
X164250Y244700D02*
Y250243D01*
X161500Y241950D02*
X164250Y244700D01*
X161500Y213312D02*
X163750Y211062D01*
X161500Y213312D02*
Y241950D01*
X163750Y210250D02*
Y211062D01*
X315500Y127380D02*
X327250Y139130D01*
X315500Y125500D02*
Y127380D01*
X120000Y433000D02*
X168500D01*
X63240Y460000D02*
X93000D01*
X120000Y433000D01*
X50800Y472440D02*
X63240Y460000D01*
X277996Y455254D02*
X289500Y466757D01*
X183504Y455254D02*
X277996D01*
X170750Y442500D02*
X183504Y455254D01*
X168500Y433000D02*
Y442250D01*
X168250Y442500D02*
X168500Y442250D01*
X168250Y442500D02*
X170750D01*
X636000Y430500D02*
X647700D01*
X659700Y418500D01*
X662000D01*
X49250Y194500D02*
X49750Y194000D01*
X83000Y171500D02*
X84500Y173000D01*
X61257Y171500D02*
X83000D01*
X56738Y194000D02*
X58995Y191743D01*
X49750Y194000D02*
X56738D01*
X12071Y267514D02*
X12653Y268097D01*
X12071Y252429D02*
Y267514D01*
X13500Y267558D02*
X13608D01*
X14902Y268852D01*
X16660Y274500D02*
X32250D01*
X14902Y268852D02*
Y272743D01*
X16660Y274500D01*
X281750Y419750D02*
X282000Y420000D01*
X281750Y407750D02*
Y419750D01*
X254000Y380000D02*
X281750Y407750D01*
X282000Y420000D02*
Y421000D01*
Y438750D02*
Y441000D01*
X254000Y410750D02*
X282000Y438750D01*
X254000Y398000D02*
Y410750D01*
X282000Y441500D02*
X282500D01*
X252500Y442000D02*
X252750D01*
X252750Y442000D01*
Y423000D02*
Y442000D01*
Y423000D02*
X253250Y422500D01*
X203750Y414257D02*
X205507Y412500D01*
X229743D02*
X231864Y414621D01*
X237000Y423000D02*
Y423250D01*
X231864Y417864D02*
X237000Y423000D01*
X231864Y414621D02*
Y417864D01*
X205507Y412500D02*
X229743D01*
X203750Y414257D02*
Y417500D01*
X195500Y423250D02*
X198000D01*
X203750Y417500D01*
X195500Y423250D02*
Y423500D01*
X595500Y371750D02*
X595750Y371500D01*
Y372000D02*
X596000D01*
X595250Y352750D02*
X595750Y353250D01*
Y371500D01*
X595500Y371750D02*
X595750Y372000D01*
X642500Y469000D02*
X662000D01*
X637750Y473750D02*
X642500Y469000D01*
X636500Y473750D02*
X637750D01*
X200750Y473000D02*
X226125Y498375D01*
X340500Y509000D02*
Y509860D01*
X328860Y521500D02*
X340500Y509860D01*
X332000Y187750D02*
X341250Y178500D01*
Y125730D02*
Y178500D01*
X231000Y521500D02*
X328860D01*
X226125Y498375D02*
Y516625D01*
X231000Y521500D01*
X50750Y498250D02*
Y500250D01*
X60750Y510250D01*
X50800Y497840D02*
Y498200D01*
X50750Y498250D02*
X50800Y498200D01*
X272250Y465000D02*
X281750Y474500D01*
X91129Y484466D02*
X114116Y465000D01*
X272250D01*
X315000Y475757D02*
Y508000D01*
X281750Y474500D02*
Y484000D01*
X366650Y123730D02*
Y125730D01*
X25400Y472440D02*
X32400Y478250D01*
X39056Y483774D02*
X39889Y484466D01*
X32400Y478250D02*
X39056Y483774D01*
X39889Y484466D02*
X91129Y484466D01*
X417250Y508250D02*
X417500Y508000D01*
X497250Y495250D02*
X508500Y506500D01*
Y507500D01*
X533500Y506100D02*
Y508000D01*
X559250Y503500D02*
Y507250D01*
X582750Y507750D02*
X584000D01*
X607113Y506613D02*
X609500Y509000D01*
X607113Y496613D02*
Y506613D01*
X584000Y473500D02*
X607113Y496613D01*
X567000Y473500D02*
X584000D01*
X583200Y441750D02*
X595000Y453550D01*
X628500Y501000D02*
X635250Y507750D01*
X628500Y494000D02*
Y501000D01*
X613000Y478500D02*
X628500Y494000D01*
X613000Y475500D02*
Y478500D01*
X605250Y473750D02*
X608000D01*
Y473500D02*
X611000D01*
X613000Y475500D01*
X603000Y471500D02*
X605250Y473750D01*
X603000Y468500D02*
Y471500D01*
X595000Y453550D02*
Y460000D01*
X594750Y460250D02*
X603000Y468500D01*
X75500Y196500D02*
X80000Y192000D01*
X84250D01*
X84750Y192500D01*
X67943Y197557D02*
X69000Y196500D01*
X58750Y201000D02*
X62193Y197557D01*
X69000Y196500D02*
X75500D01*
X48745Y201000D02*
X58750D01*
X62193Y197557D02*
X67943D01*
X68750Y210500D02*
X69000Y210750D01*
X75500D01*
X78750Y214000D01*
X84750D01*
X62250Y210500D02*
X68750D01*
X84750Y214000D02*
X85000Y213750D01*
X59250Y207500D02*
X62250Y210500D01*
X48745Y207500D02*
X59250D01*
X671750Y244000D02*
X673250Y245500D01*
X668750Y244000D02*
X671750D01*
X668250Y243500D02*
X668750Y244000D01*
X648500Y243500D02*
X668250D01*
X647750Y244250D02*
X648500Y243500D01*
X631500Y244250D02*
X647750D01*
X631000Y244750D02*
X631500Y244250D01*
X673250Y245500D02*
Y262250D01*
X673000Y262500D02*
X673250Y262250D01*
X608500D02*
Y262500D01*
Y262250D02*
X608750Y262500D01*
X673000D01*
X601000Y61400D02*
Y106080D01*
Y61400D02*
X635750Y26650D01*
Y24250D02*
Y26650D01*
X601000Y106080D02*
X620650Y125730D01*
X585000Y111473D02*
X595250Y121723D01*
X585000Y52000D02*
X610500Y26500D01*
X585000Y52000D02*
Y111473D01*
X595250Y121723D02*
Y125730D01*
X610500Y24500D02*
Y26500D01*
X584750Y25000D02*
Y26850D01*
X569850Y41750D02*
X584750Y26850D01*
X569850Y41750D02*
Y125730D01*
X544450Y120523D02*
Y125730D01*
Y120523D02*
X549500Y115473D01*
Y36250D02*
X560250Y25500D01*
Y25500D02*
Y25500D01*
X549500Y36250D02*
Y115473D01*
X519500Y123280D02*
X533400Y109380D01*
Y25400D02*
Y109380D01*
X519500Y123280D02*
Y125500D01*
X507250Y24000D02*
Y38250D01*
X520000Y51000D02*
Y99821D01*
X507250Y38250D02*
X520000Y51000D01*
X494091Y125730D02*
X520000Y99821D01*
X493650Y125730D02*
X494091D01*
X494500Y146250D02*
X651000D01*
X508000Y49000D02*
Y104750D01*
X482750Y23750D02*
X508000Y49000D01*
X500520Y112230D02*
X508000Y104750D01*
X481743Y133493D02*
X494500Y146250D01*
X620750Y187250D02*
Y202250D01*
Y187250D02*
X624750Y183250D01*
Y179558D02*
Y183250D01*
Y179558D02*
X633058Y171250D01*
X614150Y208850D02*
X620750Y202250D01*
X481743Y119374D02*
Y133493D01*
X482750Y16250D02*
Y23750D01*
X488887Y112230D02*
X500520D01*
X481743Y119374D02*
X488887Y112230D01*
X330200Y23550D02*
Y25400D01*
Y23550D02*
X344500Y9250D01*
X475750D01*
X482750Y16250D01*
X614150Y208850D02*
Y217350D01*
X607750Y223750D02*
X614150Y217350D01*
X650750Y146500D02*
Y157250D01*
Y146500D02*
X651000Y146250D01*
X636750Y171250D02*
X650750Y157250D01*
X633058Y171250D02*
X636750D01*
X648000Y208750D02*
Y224500D01*
X661000Y173500D02*
X661500Y173000D01*
X661000Y173500D02*
Y183550D01*
X658500Y186050D02*
X661000Y183550D01*
X658500Y186050D02*
Y200000D01*
X649500Y209000D02*
X658500Y200000D01*
X648250Y209000D02*
X649500D01*
X636000Y454500D02*
Y454750D01*
X623250D02*
X636000D01*
X622500Y455500D02*
X623250Y454750D01*
X667000Y163250D02*
Y164062D01*
X669250Y166312D01*
Y172250D01*
X670500Y173500D01*
X668750Y190500D02*
X670500Y188750D01*
Y173500D02*
Y188750D01*
X391750Y201500D02*
X408750Y218500D01*
Y239493D02*
X410507Y241250D01*
X417750D01*
X408750Y218500D02*
Y239493D01*
X417750Y241250D02*
X428250Y251750D01*
X408000Y284750D02*
X408250D01*
Y285000D02*
X408500D01*
X428250Y251750D02*
Y264750D01*
X408000Y284750D02*
X408250Y285000D01*
Y284750D02*
X428250Y264750D01*
X457250Y285000D02*
X457500D01*
X457000Y284750D02*
X457250Y285000D01*
X421257Y219757D02*
X427250Y225750D01*
X421257Y219757D02*
X421257D01*
X417000Y215500D02*
X421257Y219757D01*
X417000Y202000D02*
Y215500D01*
X427250Y225750D02*
Y229000D01*
X427500D02*
X428243Y229743D01*
X445500Y255500D02*
Y272500D01*
X456750Y283750D01*
Y284750D01*
X457000D02*
X465750Y276000D01*
X444750Y252750D02*
Y255250D01*
X442500Y250500D02*
X444750Y252750D01*
X428243Y242243D02*
X430000Y244000D01*
X434450D01*
X440950Y250500D02*
X442500D01*
X428243Y229743D02*
Y242243D01*
X434450Y244000D02*
X440950Y250500D01*
X172000Y387750D02*
X193750D01*
X212000Y406000D01*
X661650Y443250D02*
X662000Y443600D01*
X613250Y443250D02*
X661650D01*
X579000Y409000D02*
X613250Y443250D01*
X172000Y387500D02*
Y387750D01*
Y375500D02*
Y387500D01*
X150250Y353750D02*
X172000Y375500D01*
X150250Y343500D02*
Y353750D01*
X150000Y343250D02*
X150250Y343500D01*
X150000Y342000D02*
Y343250D01*
X182000Y342000D02*
X194000D01*
X219000Y367000D02*
X260000D01*
X194000Y342000D02*
X219000Y367000D01*
X260000D02*
X302000Y409000D01*
X321188D02*
X323188Y411000D01*
X324000D01*
X302000Y409000D02*
X321188D01*
X605500Y455000D02*
X608000D01*
X167750Y350950D02*
X180800Y364000D01*
X188000D01*
X222000Y398000D01*
X166000Y342000D02*
X167250Y343250D01*
Y349257D02*
X167750Y349757D01*
Y350950D01*
X167250Y343250D02*
Y349257D01*
X222000Y398000D02*
X238250D01*
X50800Y386080D02*
X54588D01*
X58721Y381948D01*
X59052D02*
X81500Y359500D01*
Y348250D02*
Y359500D01*
X58721Y381948D02*
X59052D01*
X134000Y341750D02*
Y342000D01*
X132750Y343000D02*
X134000Y341750D01*
X132750Y343000D02*
Y350450D01*
X129200Y354000D02*
X132750Y350450D01*
X100000Y351500D02*
X102500Y354000D01*
X100000Y349000D02*
Y351500D01*
X102500Y354000D02*
X129200D01*
X196000Y328000D02*
X200057D01*
X224500Y356500D02*
X264500D01*
X200057Y328000D02*
X201307Y329250D01*
Y333307D01*
X224500Y356500D01*
X264500D02*
X305000Y397000D01*
X331000D01*
X568429Y454500D02*
X581000D01*
X175250Y350450D02*
X180800Y356000D01*
X192000D01*
X215250Y379250D01*
X175250Y343250D02*
Y350450D01*
X215250Y379250D02*
X237750D01*
X174000Y342000D02*
X175250Y343250D01*
X237750Y379250D02*
X238500Y380000D01*
X110750Y273250D02*
X112000Y272000D01*
X96800Y369800D02*
X146000D01*
X96250Y369250D02*
X96800Y369800D01*
X95500Y369250D02*
X96250D01*
X99550Y277250D02*
X103550Y273250D01*
X99500Y277250D02*
X99550D01*
X103550Y273250D02*
X110750D01*
X99125Y276875D02*
X99500Y277250D01*
X89000Y276500D02*
X89375Y276875D01*
X99125D01*
X71000Y276500D02*
X89500D01*
X70250Y275750D02*
X71000Y276500D01*
X85679Y296000D02*
X112500D01*
X77079Y304600D02*
X85679Y296000D01*
X37400Y304600D02*
X77079D01*
X25400Y316600D02*
X37400Y304600D01*
X54439Y316750D02*
X59188Y312000D01*
X77000D01*
X85000Y304000D01*
X51000Y316750D02*
X54439D01*
X85000Y304000D02*
X112000D01*
X73468Y320000D02*
X76500D01*
X84500Y312000D01*
X64371Y320000D02*
X73468D01*
X112250Y312000D02*
X112500Y312250D01*
X84500Y312000D02*
X112000D01*
X112250D01*
X25500Y341900D02*
Y342000D01*
X25400Y342000D02*
X25500D01*
X25500Y342000D01*
X38800Y328600D02*
X55771D01*
X64371Y320000D01*
X25500Y341900D02*
X38800Y328600D01*
X112000Y320000D02*
X112000D01*
X67800Y325000D02*
X78571D01*
X83571Y320000D02*
X112000D01*
X112000Y320000D02*
X112000Y320000D01*
X78571Y325000D02*
X83571Y320000D01*
X149667Y420600D02*
X159500Y410767D01*
Y390437D02*
Y410767D01*
X50800Y342000D02*
X67800Y325000D01*
X86750Y369750D02*
X98300Y381300D01*
X150363D01*
X146000Y420600D02*
X149667D01*
X150363Y381300D02*
X159500Y390437D01*
X45000Y364000D02*
X68000D01*
X71500Y360500D01*
Y337811D02*
Y360500D01*
X38800Y370200D02*
Y391051D01*
Y370200D02*
X45000Y364000D01*
X48121Y408801D02*
X50800Y411480D01*
X48121Y400372D02*
Y408801D01*
X38800Y391051D02*
X48121Y400372D01*
X71500Y337811D02*
X73257Y336053D01*
X114000Y341500D02*
X125750D01*
X108553Y336053D02*
X114000Y341500D01*
X73257Y336053D02*
X108553D01*
X71929Y330000D02*
X80642D01*
X82642Y328000D01*
X111750D01*
X61775Y356468D02*
X63532Y354711D01*
Y338397D02*
Y354711D01*
X44532Y356468D02*
X61775D01*
X26163Y374837D02*
X44532Y356468D01*
X26163Y374837D02*
Y385317D01*
X25400Y386080D02*
X26163Y385317D01*
X63532Y338397D02*
X71929Y330000D01*
X111750Y328000D02*
X111750Y328000D01*
X136455Y392713D02*
X143513D01*
X135743Y392000D02*
X136455Y392713D01*
X99929Y392000D02*
X135743D01*
X94009Y386080D02*
X99929Y392000D01*
X143513Y392713D02*
X146000Y395200D01*
X76200Y386080D02*
X94009D01*
X90000Y237500D02*
X91500Y236000D01*
X60250Y248500D02*
X60500Y248250D01*
X40250Y251500D02*
X43250Y248500D01*
X31750Y251500D02*
X40250D01*
X31000Y252250D02*
X31750Y251500D01*
X60500Y239257D02*
Y248250D01*
X62257Y237500D02*
X90000D01*
X43250Y248500D02*
X60250D01*
X60500Y239257D02*
X62257Y237500D01*
X196000Y280000D02*
X197250Y281250D01*
X206000D01*
X209000Y284250D01*
X222750D01*
X233500Y284500D02*
X238500Y289500D01*
X247993D01*
X249750Y291257D01*
Y313750D01*
X239250Y340250D02*
Y342000D01*
Y340250D02*
X242500Y337000D01*
X250000Y313500D02*
Y340493D01*
X220000Y284500D02*
X233500D01*
X248243Y342250D02*
X250000Y340493D01*
X239750Y342250D02*
X248243D01*
X239250Y341750D02*
X239750Y342250D01*
X218493Y267007D02*
X219750Y265750D01*
X210993Y267007D02*
X218493D01*
X196243Y271757D02*
X206243D01*
X196000Y272000D02*
X196243Y271757D01*
X206243D02*
X210993Y267007D01*
X220000Y265500D02*
X249500D01*
X250000Y265000D01*
X249000Y263750D02*
X249500Y264250D01*
X247243Y236000D02*
X249000Y237757D01*
Y263750D01*
X239500Y236000D02*
X247243D01*
D11*
X657000Y134500D02*
X669500Y147000D01*
X671000D01*
X220500Y182000D02*
X229071Y173429D01*
Y166750D02*
Y173429D01*
Y166750D02*
X229321Y166500D01*
X229500D01*
D12*
X59000Y223000D02*
X59125Y223125D01*
Y230875D01*
X59000Y231000D02*
X59125Y230875D01*
X679750Y158000D02*
Y224250D01*
X273500Y66000D02*
X275500Y68000D01*
X389500Y99750D02*
X390775Y101025D01*
X289500Y82000D02*
Y85000D01*
X285593Y80500D02*
X288000D01*
X289500Y82000D01*
X283250Y78157D02*
X285593Y80500D01*
X280907Y68000D02*
X283250Y70343D01*
X275500Y68000D02*
X280907D01*
X283250Y70343D02*
Y78157D01*
X246500Y80500D02*
X261000Y66000D01*
X273500D01*
X246500Y15500D02*
Y80500D01*
X246500Y80500D02*
X246500D01*
X246500D02*
X246500Y80500D01*
X221843Y111500D02*
X231000D01*
X201750Y157250D02*
X202000D01*
X270500Y84500D02*
Y106750D01*
X201750Y157250D02*
X202750Y156250D01*
X265750Y111500D02*
X270500Y106750D01*
X202750Y156250D02*
X210250D01*
X231000Y111500D02*
X265750D01*
X210250Y156250D02*
X219500Y147000D01*
X202250Y166750D02*
X202500Y166500D01*
X219500Y113843D02*
Y147000D01*
X202500Y157750D02*
Y166500D01*
X202000Y157250D02*
X202500Y157750D01*
X219500Y113843D02*
X221843Y111500D01*
X390775Y124455D02*
X392050Y125730D01*
X389754Y123434D02*
X392050Y125730D01*
X389250Y100000D02*
Y110000D01*
X389754Y110504D01*
Y123434D01*
X229250Y147500D02*
X229500D01*
X229250Y147500D02*
X229250Y147500D01*
X229250Y147500D02*
X246500D01*
X184000Y288750D02*
X195250D01*
X196000Y288000D01*
X183750Y289000D02*
X184000Y288750D01*
X637291Y176750D02*
X640250D01*
X643500Y173500D01*
X651500D01*
X631250Y182250D02*
X631791D01*
X637291Y176750D01*
X231000Y130500D02*
Y139750D01*
X176250Y238250D02*
X184500Y230000D01*
Y165343D02*
Y230000D01*
X174021Y154864D02*
X184500Y165343D01*
X48745Y214000D02*
X53495D01*
X59000Y219505D01*
X651500Y128000D02*
X654000Y130500D01*
X481000Y105459D02*
X483250Y103209D01*
X481000Y105459D02*
Y106000D01*
X483250Y77000D02*
Y103209D01*
X152843Y193250D02*
X168500D01*
X148500Y197593D02*
Y214000D01*
Y197593D02*
X152843Y193250D01*
X196750Y296750D02*
X206500D01*
X196000Y296000D02*
X196750Y296750D01*
X176750Y291900D02*
X180851Y296000D01*
X196000D01*
X176750Y280325D02*
Y291900D01*
X182750Y246407D02*
X184500Y244657D01*
Y239343D02*
Y244657D01*
X182750Y246407D02*
Y257250D01*
X184500Y239343D02*
X194407D01*
X135250Y242750D02*
X139593D01*
X142000Y245157D02*
Y259500D01*
X139593Y242750D02*
X142000Y245157D01*
D13*
X50500Y249500D02*
D03*
X60000D02*
D03*
X69500Y276500D02*
D03*
Y249500D02*
D03*
X651500Y173500D02*
D03*
Y146500D02*
D03*
X661000Y173500D02*
D03*
X670500D02*
D03*
Y146500D02*
D03*
D14*
X48745Y214000D02*
D03*
Y207500D02*
D03*
Y201000D02*
D03*
Y188000D02*
D03*
Y194500D02*
D03*
D15*
X46495Y169000D02*
D03*
Y233000D02*
D03*
D16*
X21995Y189000D02*
D03*
Y213000D02*
D03*
X246500Y80500D02*
D03*
D17*
X161000Y176000D02*
D03*
D18*
Y114000D02*
D03*
X148300D02*
D03*
X135600D02*
D03*
X186400D02*
D03*
X173700D02*
D03*
D19*
X172000Y406500D02*
D03*
Y387500D02*
D03*
X89000Y276500D02*
D03*
Y257500D02*
D03*
X220000Y284500D02*
D03*
Y265500D02*
D03*
X608000Y454500D02*
D03*
Y473500D02*
D03*
X581000D02*
D03*
Y454500D02*
D03*
X636000Y411500D02*
D03*
Y430500D02*
D03*
X669000Y190500D02*
D03*
Y209500D02*
D03*
X32250Y293500D02*
D03*
Y274500D02*
D03*
X669000Y243500D02*
D03*
Y224500D02*
D03*
X274000Y47500D02*
D03*
Y66500D02*
D03*
X247000Y147500D02*
D03*
Y166500D02*
D03*
X648000Y243500D02*
D03*
Y224500D02*
D03*
X333000Y65500D02*
D03*
Y84500D02*
D03*
Y65500D02*
D03*
Y46500D02*
D03*
D20*
X301000Y441750D02*
D03*
X282000D02*
D03*
X281750Y420500D02*
D03*
X300750D02*
D03*
X81500Y349000D02*
D03*
X100500D02*
D03*
X84500Y214000D02*
D03*
X103500D02*
D03*
Y193000D02*
D03*
X84500D02*
D03*
Y173000D02*
D03*
X103500D02*
D03*
X370500Y99750D02*
D03*
X389500D02*
D03*
X607500Y227000D02*
D03*
X626500D02*
D03*
X252500Y442000D02*
D03*
X233500D02*
D03*
X427500Y229000D02*
D03*
X408500D02*
D03*
X595500Y353000D02*
D03*
X576500D02*
D03*
X31250Y252250D02*
D03*
X12250D02*
D03*
X270500Y85000D02*
D03*
X289500D02*
D03*
X129500Y214000D02*
D03*
X148500D02*
D03*
D21*
X69000Y225500D02*
D03*
Y210500D02*
D03*
Y196500D02*
D03*
Y181500D02*
D03*
D22*
X13500Y267558D02*
D03*
Y291942D02*
D03*
D23*
X605808Y243000D02*
D03*
X630192D02*
D03*
D24*
X306000Y47500D02*
D03*
Y66500D02*
D03*
X231000Y111500D02*
D03*
X636000Y473500D02*
D03*
X219000Y319500D02*
D03*
X218000Y238500D02*
D03*
Y201500D02*
D03*
X648000Y189500D02*
D03*
X231000Y130500D02*
D03*
X355000Y66500D02*
D03*
X214000Y422500D02*
D03*
X22750Y451250D02*
D03*
X196000Y219500D02*
D03*
X174000D02*
D03*
X208000Y130500D02*
D03*
X114000D02*
D03*
X648000Y208500D02*
D03*
X636000Y454500D02*
D03*
X174000Y238500D02*
D03*
X114000Y111500D02*
D03*
X444500Y59250D02*
D03*
X214000Y441500D02*
D03*
X22750Y432250D02*
D03*
X218000Y182500D02*
D03*
X196000Y182500D02*
D03*
X444500Y78250D02*
D03*
X219000Y300500D02*
D03*
X218000Y219500D02*
D03*
X196000Y238500D02*
D03*
Y201500D02*
D03*
X208000Y111500D02*
D03*
X355000Y47500D02*
D03*
D25*
X202500Y157000D02*
D03*
Y166500D02*
D03*
X168500Y433000D02*
D03*
Y442500D02*
D03*
X229500Y147500D02*
D03*
X195500Y423500D02*
D03*
X168500D02*
D03*
X202500Y147500D02*
D03*
X195500Y442500D02*
D03*
X229500Y166500D02*
D03*
D26*
X158000Y258000D02*
D03*
X166000D02*
D03*
X150000D02*
D03*
Y342000D02*
D03*
X182000D02*
D03*
X166000D02*
D03*
X134000D02*
D03*
X174000D02*
D03*
X126000D02*
D03*
X174000Y258000D02*
D03*
X182000D02*
D03*
X142000D02*
D03*
X134000D02*
D03*
X126000D02*
D03*
X142000Y342000D02*
D03*
X158000D02*
D03*
D27*
X254000Y380000D02*
D03*
Y398000D02*
D03*
X253000Y423000D02*
D03*
X237000D02*
D03*
X596000Y372000D02*
D03*
X580000D02*
D03*
X238000Y398000D02*
D03*
Y380000D02*
D03*
D28*
X597500Y332000D02*
D03*
X464500Y255500D02*
D03*
X445500Y230000D02*
D03*
X409500Y254000D02*
D03*
X262500Y485000D02*
D03*
X258500Y342000D02*
D03*
Y236000D02*
D03*
X670500Y128000D02*
D03*
X464250Y77000D02*
D03*
X461750Y98500D02*
D03*
X405750Y99000D02*
D03*
Y77000D02*
D03*
X402500Y50000D02*
D03*
X148500Y235000D02*
D03*
X110500Y236000D02*
D03*
X70500Y294000D02*
D03*
X40500Y522000D02*
D03*
X428500Y254000D02*
D03*
X445500Y255500D02*
D03*
X91500Y236000D02*
D03*
X239500Y342000D02*
D03*
Y236000D02*
D03*
X243500Y485000D02*
D03*
X442750Y98500D02*
D03*
X383500Y50000D02*
D03*
X578500Y332000D02*
D03*
X651500Y128000D02*
D03*
X464000Y55500D02*
D03*
X21500Y522000D02*
D03*
X51500Y294000D02*
D03*
X483250Y77000D02*
D03*
X483000Y55500D02*
D03*
X464500Y230000D02*
D03*
X424750Y77000D02*
D03*
Y99000D02*
D03*
X129500Y235000D02*
D03*
D29*
X196000Y288000D02*
D03*
Y328000D02*
D03*
X112000Y272000D02*
D03*
Y296000D02*
D03*
Y304000D02*
D03*
Y312000D02*
D03*
Y320000D02*
D03*
Y328000D02*
D03*
X196000Y280000D02*
D03*
Y272000D02*
D03*
Y296000D02*
D03*
X112000Y280000D02*
D03*
Y288000D02*
D03*
X196000Y320000D02*
D03*
Y312000D02*
D03*
Y304000D02*
D03*
D30*
X72000Y139500D02*
D03*
Y59500D02*
D03*
Y18500D02*
D03*
Y98500D02*
D03*
D31*
X408500Y285000D02*
D03*
X457500D02*
D03*
D32*
X250000Y313500D02*
D03*
Y264500D02*
D03*
D33*
X21000Y65000D02*
D03*
Y97000D02*
D03*
D61*
X673750Y262500D02*
D03*
D62*
X246500Y15500D02*
D03*
X201500D02*
D03*
Y80500D02*
D03*
X608750Y307500D02*
D03*
X673750D02*
D03*
X608750Y262500D02*
D03*
D68*
X109000Y518000D02*
D03*
X668000Y513000D02*
D03*
X670000Y20000D02*
D03*
X224000Y46000D02*
D03*
D69*
X50800Y291300D02*
Y292862D01*
X43000Y283500D02*
X50800Y291300D01*
X41500Y283500D02*
X43000D01*
X50750Y263843D02*
Y293066D01*
X76265Y257556D02*
X86614D01*
X73821Y260000D02*
X76265Y257556D01*
X578500Y243000D02*
X605808D01*
X633174Y189800D02*
X634038Y188937D01*
X647437D01*
X465750Y83000D02*
X472000Y89250D01*
X465750Y78500D02*
Y83000D01*
X464250Y77000D02*
X465750Y78500D01*
X472000Y89250D02*
Y89250D01*
X69500Y293000D02*
X70500Y292000D01*
X80000D01*
X58750Y451250D02*
X59000Y451000D01*
X22750Y451250D02*
X58750D01*
X191250Y148000D02*
X191750Y147500D01*
X202500D01*
X190750Y148000D02*
X191250D01*
X208000Y130500D02*
Y139250D01*
X160500Y131750D02*
X160750Y131500D01*
Y114250D02*
Y131500D01*
Y114250D02*
X161000Y114000D01*
X79750Y248750D02*
X80000Y248500D01*
X69750Y248750D02*
X79750D01*
X77750Y225500D02*
X79250D01*
X77750Y225500D02*
X77750Y225500D01*
X69000Y225500D02*
X77750D01*
X77000Y183000D02*
X77250D01*
X76500Y182500D02*
X77000Y183000D01*
X70000Y182500D02*
X76500D01*
X69000Y181500D02*
X70000Y182500D01*
X51250Y522250D02*
X51750D01*
X51000Y522000D02*
X51250Y522250D01*
X40500Y522000D02*
X51000D01*
X647437Y188937D02*
X648000Y189500D01*
X679750Y128000D02*
X680500Y128750D01*
X670500Y128000D02*
X679750D01*
X456250Y110000D02*
X457000D01*
X458032Y108968D01*
X459250Y107750D01*
Y101000D02*
Y107750D01*
Y101000D02*
X461750Y98500D01*
X110750Y250000D02*
Y250500D01*
X110500Y249750D02*
X110750Y250000D01*
X110500Y236000D02*
Y249750D01*
X137750Y223750D02*
X138250D01*
X138500Y224000D01*
X139500D01*
X148500Y233000D01*
Y235000D01*
X150000Y270750D02*
Y271750D01*
X150000Y270750D02*
X150000Y270750D01*
X150000Y258000D02*
Y270750D01*
X174250Y210750D02*
Y210750D01*
X174000Y211000D02*
X174250Y210750D01*
X174000Y211000D02*
Y219500D01*
X193000Y211000D02*
X193541D01*
X195884Y213343D01*
X196000D01*
Y219500D01*
X231709Y203000D02*
X232250D01*
X230459Y201750D02*
X231709Y203000D01*
X229500Y201750D02*
X230459D01*
X229250Y201500D02*
X229500Y201750D01*
X218000Y201500D02*
X229250D01*
X270000Y238000D02*
X270250Y238250D01*
X269250Y238000D02*
X270000D01*
X267250Y236000D02*
X269250Y238000D01*
X258500Y236000D02*
X267250D01*
X217250Y249750D02*
Y250250D01*
Y249750D02*
X218000Y249000D01*
Y238500D02*
Y249000D01*
X219000Y330500D02*
X219250Y330750D01*
X219000Y319500D02*
Y330500D01*
X258500Y342000D02*
X271250D01*
X262500Y484750D02*
X263330Y485580D01*
Y507170D01*
X264160Y508000D01*
X203000Y432250D02*
X209500Y425750D01*
Y425000D02*
X212000Y422500D01*
X209500Y425000D02*
Y425750D01*
X137500Y224000D02*
X137750Y223750D01*
X444000Y218000D02*
Y219500D01*
X444250Y219750D01*
Y228750D01*
X445500Y230000D01*
X475500Y254250D02*
X476000Y254750D01*
X465750Y254250D02*
X475500D01*
X464500Y255500D02*
X465750Y254250D01*
X394250D02*
X394500Y254000D01*
X409500D01*
X397250Y88250D02*
X398250Y87250D01*
Y86500D02*
Y87250D01*
Y86500D02*
X405750Y79000D01*
Y77000D02*
Y79000D01*
X405000Y110000D02*
Y110500D01*
Y110000D02*
X405250Y109750D01*
Y99500D02*
Y109750D01*
Y99500D02*
X405750Y99000D01*
X369000Y66500D02*
X369250Y66250D01*
X355000Y66500D02*
X369000D01*
X306750Y67250D02*
Y89500D01*
X306000Y66500D02*
X306750Y67250D01*
X208000Y139250D02*
X208250Y139500D01*
X177500Y423500D02*
X187750Y413250D01*
X168500Y423500D02*
X177500D01*
X212000Y422500D02*
X214000D01*
X442800Y98550D02*
Y125450D01*
X442750Y98500D02*
X442800Y98550D01*
X243000Y485750D02*
Y498513D01*
X242250Y485000D02*
X243000Y485750D01*
X239000Y502513D02*
X243000Y498513D01*
X239000Y502513D02*
Y507750D01*
X230000Y485000D02*
X242250D01*
X223750Y478750D02*
X230000Y485000D01*
X139000Y120000D02*
X139373Y120373D01*
Y146373D01*
X174000Y238250D02*
Y257750D01*
Y238250D02*
X176250D01*
X147864Y154864D02*
X174021D01*
X148300Y115000D02*
Y122000D01*
X139373Y146373D02*
X147864Y154864D01*
X114500Y89500D02*
X115500Y88500D01*
X675907Y284750D02*
X679750Y280907D01*
Y281250D01*
X682867Y233367D02*
X683250Y233750D01*
X682867Y227867D02*
Y233367D01*
X626500Y227000D02*
Y230000D01*
X310000Y420500D02*
X310250Y420750D01*
X301000Y441750D02*
Y441750D01*
X300875Y420125D02*
Y440875D01*
X300500Y441250D02*
X301000Y441750D01*
X300500Y441250D02*
X300875Y440875D01*
X300750Y420500D02*
X310000D01*
X577000Y349500D02*
Y352750D01*
X679500Y224500D02*
X682867Y227867D01*
X679500Y224500D02*
X679750Y224250D01*
X670000Y148250D02*
X679750Y158000D01*
X669000Y224500D02*
X679500D01*
X669000Y209500D02*
X669500Y209000D01*
X679500D01*
X464000Y42750D02*
Y55500D01*
X445500Y42750D02*
Y43041D01*
X464000Y42750D02*
X464500Y42250D01*
X444500Y44041D02*
Y59250D01*
Y44041D02*
X445500Y43041D01*
X225250Y441500D02*
Y442000D01*
X225750Y441500D01*
X224500Y442000D02*
X225000Y441500D01*
X233000D02*
X233500Y442000D01*
X214000Y442000D02*
X214000Y442000D01*
X224500D01*
X195500Y442500D02*
X196000Y442000D01*
X225000Y441500D02*
X225500D01*
X196000Y442000D02*
X214000D01*
X225750Y441500D02*
X233000D01*
X225250D02*
X225500Y441250D01*
X170500Y408000D02*
Y415500D01*
Y408000D02*
X171250Y407250D01*
X23450Y499800D02*
X25250Y498000D01*
X25000Y498500D02*
X25250Y498250D01*
X23450Y499800D02*
Y520050D01*
X25250Y498000D02*
Y498250D01*
X21500Y522000D02*
X23450Y520050D01*
X13827Y292250D02*
X27250D01*
X192500Y181000D02*
X194000Y182500D01*
X192500Y161500D02*
Y181000D01*
X293117Y66367D02*
X293500Y66750D01*
X293117Y63617D02*
Y66367D01*
X277000Y47500D02*
X293117Y63617D01*
X274000Y47500D02*
X277000D01*
X163364Y146864D02*
X177864D01*
X192500Y161500D01*
X13500Y284000D02*
Y291942D01*
X41500Y283500D02*
X41750Y283750D01*
X148500Y132000D02*
X163364Y146864D01*
X50750Y263843D02*
X54593Y260000D01*
X73821D01*
X466375Y204625D02*
X469250Y201750D01*
X464500Y230000D02*
X466375Y228125D01*
Y204625D02*
Y228125D01*
X168500Y193250D02*
X177500Y202250D01*
X176750Y280325D02*
X182000Y275075D01*
Y258000D02*
Y275075D01*
X207750Y211250D02*
X216000Y219500D01*
X207750Y211000D02*
X207750D01*
X201386Y204636D02*
X207750Y211000D01*
X201136Y204636D02*
X201386D01*
X197750Y201250D02*
X201136Y204636D01*
X196000Y201250D02*
X197750D01*
X207750Y211000D02*
Y211250D01*
X216000Y219500D02*
X218000D01*
X213500Y222000D02*
X216000Y219500D01*
X213500Y222000D02*
Y223000D01*
X198000Y238500D02*
X213500Y223000D01*
X196000Y238500D02*
X198000D01*
X194407Y239343D02*
X195500Y238250D01*
X182000Y258000D02*
X182750Y257250D01*
X218250Y300000D02*
X218500Y300250D01*
X209750Y300000D02*
X218250D01*
X206500Y296750D02*
X209750Y300000D01*
X129500Y237000D02*
X135250Y242750D01*
X129500Y235000D02*
Y237000D01*
Y213500D02*
Y214000D01*
X129250Y214250D02*
X129500Y214000D01*
X129250Y214250D02*
X129500Y214500D01*
Y235000D01*
X129500Y235000D02*
X129500Y235000D01*
D70*
X578500Y243000D02*
Y332000D01*
X606000Y244000D02*
X611500D01*
X626500Y229000D01*
Y227000D02*
Y229000D01*
X679000Y281000D02*
X680000D01*
X675000Y285000D02*
X679000Y281000D01*
X674750Y284750D02*
X675000Y285000D01*
X579000Y284750D02*
X674750D01*
X578000Y332500D02*
X578500Y332000D01*
X577000Y350500D02*
X578000Y349500D01*
Y332500D02*
Y349500D01*
X196000Y182000D02*
X196500Y182500D01*
X218000D01*
D71*
X614000Y72000D02*
Y92025D01*
X508651Y184930D02*
X601463D01*
X473471Y149750D02*
X508651Y184930D01*
X601533Y185000D02*
X607000D01*
X601463Y184930D02*
X601533Y185000D01*
X442850Y127730D02*
X464870Y149750D01*
X473471D01*
X442850Y125730D02*
Y127730D01*
X651000Y126500D02*
Y128500D01*
X657000Y134500D01*
X642175Y120200D02*
X644700D01*
X651000Y126500D01*
X614000Y92025D02*
X642175Y120200D01*
X614000Y65000D02*
Y72000D01*
X468500Y161750D02*
Y201500D01*
X468000Y202000D02*
X468500Y201500D01*
D72*
X21995Y168000D02*
D03*
Y234000D02*
D03*
D73*
X238760Y508000D02*
D03*
X213360D02*
D03*
X187960D02*
D03*
X264160D02*
D03*
X391160D02*
D03*
X314960D02*
D03*
X340360D02*
D03*
X289560D02*
D03*
X365760D02*
D03*
X167000Y88000D02*
D03*
X141600D02*
D03*
X609600Y508000D02*
D03*
X584200D02*
D03*
X558800D02*
D03*
X533400D02*
D03*
X508000D02*
D03*
X482600D02*
D03*
X457200D02*
D03*
X533400Y25400D02*
D03*
X558800D02*
D03*
X584200D02*
D03*
X609600D02*
D03*
X635000D02*
D03*
X457200D02*
D03*
X355600D02*
D03*
X304800D02*
D03*
X381000D02*
D03*
X330200D02*
D03*
X406400D02*
D03*
X431800D02*
D03*
X595250Y201930D02*
D03*
X569850D02*
D03*
X544450D02*
D03*
X519050D02*
D03*
X493650D02*
D03*
X468250D02*
D03*
X417450D02*
D03*
X392050D02*
D03*
X366650D02*
D03*
X341250D02*
D03*
X315850D02*
D03*
X290450D02*
D03*
X620650Y125730D02*
D03*
X595250D02*
D03*
X569850D02*
D03*
X544450D02*
D03*
X519050D02*
D03*
X493650D02*
D03*
X442850D02*
D03*
X417450D02*
D03*
X392050D02*
D03*
X366650D02*
D03*
X341250D02*
D03*
X315850D02*
D03*
X290450D02*
D03*
X468250D02*
D03*
X442850Y201930D02*
D03*
D74*
X416560Y508000D02*
D03*
X116200Y88000D02*
D03*
X635000Y508000D02*
D03*
X508000Y25400D02*
D03*
X279400D02*
D03*
X620650Y201930D02*
D03*
D75*
X146000Y395200D02*
D03*
Y420600D02*
D03*
Y369800D02*
D03*
X662000Y443600D02*
D03*
Y418200D02*
D03*
D76*
X146000Y446000D02*
D03*
X662000Y469000D02*
D03*
D77*
X50800Y342000D02*
D03*
X25400Y386080D02*
D03*
Y472440D02*
D03*
D78*
Y342000D02*
D03*
X50800Y316600D02*
D03*
X25400D02*
D03*
Y411480D02*
D03*
X76200Y386080D02*
D03*
X50800Y411480D02*
D03*
Y386080D02*
D03*
X76200Y411480D02*
D03*
X25400Y497840D02*
D03*
X76200Y472440D02*
D03*
Y497840D02*
D03*
X50800D02*
D03*
Y472440D02*
D03*
D79*
X148000Y507000D02*
D03*
D80*
X660400Y355600D02*
D03*
Y76200D02*
D03*
X139700Y25400D02*
D03*
D81*
X21044Y135572D02*
D03*
Y23572D02*
D03*
D82*
X100000Y154000D02*
D03*
X109000Y142000D02*
D03*
Y154000D02*
D03*
X119000Y153000D02*
D03*
X122000Y180000D02*
D03*
X134000Y168000D02*
D03*
Y180000D02*
D03*
X403000Y491000D02*
D03*
X410000D02*
D03*
X403000Y485000D02*
D03*
X410000D02*
D03*
Y369000D02*
D03*
X403000D02*
D03*
X410000Y375000D02*
D03*
X403000D02*
D03*
X309000Y229000D02*
D03*
X328000Y246000D02*
D03*
X238000Y186000D02*
D03*
X633174Y189800D02*
D03*
X110500Y193250D02*
D03*
X156250Y200250D02*
D03*
X110750Y214250D02*
D03*
X163750Y210250D02*
D03*
X327250Y178250D02*
D03*
X281750Y484000D02*
D03*
X303750Y178750D02*
D03*
X581000Y387000D02*
D03*
Y381000D02*
D03*
X472000Y89250D02*
D03*
X418250Y65500D02*
D03*
X432250D02*
D03*
X80000Y292000D02*
D03*
X59000Y451000D02*
D03*
X581000Y393000D02*
D03*
X476000Y254750D02*
D03*
X444000Y218000D02*
D03*
X394250Y254250D02*
D03*
X271250Y342000D02*
D03*
X219250Y330750D02*
D03*
X270250Y238250D02*
D03*
X217250Y250250D02*
D03*
X232250Y203000D02*
D03*
X680500Y128750D02*
D03*
X631250Y182250D02*
D03*
X456250Y110000D02*
D03*
X405000Y110500D02*
D03*
X397250Y88250D02*
D03*
X231000Y139750D02*
D03*
X306750Y89500D02*
D03*
X426250Y65500D02*
D03*
X369250Y66250D02*
D03*
X203000Y432250D02*
D03*
X187500Y413000D02*
D03*
X183750Y289000D02*
D03*
X150000Y271750D02*
D03*
X110750Y250500D02*
D03*
X51750Y522250D02*
D03*
X80000Y248500D02*
D03*
X79250Y225500D02*
D03*
X193000Y211000D02*
D03*
X174250Y210750D02*
D03*
X190750Y148000D02*
D03*
X208250Y139500D02*
D03*
X160500Y131750D02*
D03*
X137750Y223750D02*
D03*
X77250Y183000D02*
D03*
X134000Y190000D02*
D03*
X579000Y419500D02*
D03*
X622500Y455500D02*
D03*
X667000Y163250D02*
D03*
X579000Y409000D02*
D03*
X212000Y406000D02*
D03*
X555000Y412000D02*
D03*
X324000Y411000D02*
D03*
X545000Y402000D02*
D03*
X331000Y397000D02*
D03*
X95500Y369250D02*
D03*
X99500Y277250D02*
D03*
X86750Y369750D02*
D03*
Y320250D02*
D03*
X607000Y185000D02*
D03*
X223750Y478750D02*
D03*
X59000Y231000D02*
D03*
X59250Y222250D02*
D03*
X87750Y116250D02*
D03*
X88250Y98500D02*
D03*
X320000Y65000D02*
D03*
X614000Y72000D02*
D03*
X679750Y281250D02*
D03*
X683250Y233750D02*
D03*
X310250Y420750D02*
D03*
X614000Y65000D02*
D03*
X320000Y71000D02*
D03*
X445500Y42500D02*
D03*
X464500Y42250D02*
D03*
X225500Y441500D02*
D03*
X170500Y415500D02*
D03*
X116000Y414000D02*
D03*
X116250Y407500D02*
D03*
X122250D02*
D03*
X293500Y66250D02*
D03*
X13500Y284000D02*
D03*
X41500Y283500D02*
D03*
X148500Y132000D02*
D03*
X468500Y161750D02*
D03*
X481000Y106000D02*
D03*
X207750Y211000D02*
D03*
X177500Y202250D02*
D03*
M02*
