G04*
G04 #@! TF.GenerationSoftware,Altium Limited,Altium Designer,25.1.2 (22)*
G04*
G04 Layer_Physical_Order=2*
G04 Layer_Color=16711680*
%FSLAX44Y44*%
%MOMM*%
G71*
G04*
G04 #@! TF.SameCoordinates,5E672C01-8995-41B4-AFFF-24039E6A3FFE*
G04*
G04*
G04 #@! TF.FilePolarity,Positive*
G04*
G01*
G75*
%ADD10C,0.2000*%
%ADD11C,0.5000*%
%ADD12C,0.4000*%
%ADD16R,1.9000X1.9000*%
%ADD61R,1.9000X1.9000*%
%ADD62C,1.9000*%
%ADD71C,1.0000*%
G04:AMPARAMS|DCode=72|XSize=2mm|YSize=1.25mm|CornerRadius=0.375mm|HoleSize=0mm|Usage=FLASHONLY|Rotation=0.000|XOffset=0mm|YOffset=0mm|HoleType=Round|Shape=RoundedRectangle|*
%AMROUNDEDRECTD72*
21,1,2.0000,0.5000,0,0,0.0*
21,1,1.2500,1.2500,0,0,0.0*
1,1,0.7500,0.6250,-0.2500*
1,1,0.7500,-0.6250,-0.2500*
1,1,0.7500,-0.6250,0.2500*
1,1,0.7500,0.6250,0.2500*
%
%ADD72ROUNDEDRECTD72*%
%ADD73O,1.6000X2.0000*%
%ADD74R,1.6000X2.0000*%
%ADD75O,2.0000X1.6000*%
%ADD76R,2.0000X1.6000*%
%ADD77R,1.7000X1.7000*%
%ADD78C,1.7000*%
%ADD79C,3.2000*%
%ADD80C,7.4000*%
%ADD81C,4.0000*%
%ADD82C,0.6000*%
G36*
X684996Y478900D02*
X684100Y478000D01*
X675000D01*
Y480000D01*
X649000D01*
Y478000D01*
X286010D01*
X285505Y479270D01*
X286837Y480601D01*
X287750Y482807D01*
Y484232D01*
X290939Y487422D01*
X300460D01*
X300460Y487422D01*
X302021Y487732D01*
X303344Y488616D01*
X310619Y495892D01*
X312088Y495283D01*
X314960Y494905D01*
X317832Y495283D01*
X320508Y496391D01*
X322805Y498155D01*
X324568Y500452D01*
X325677Y503128D01*
X326055Y506000D01*
Y510000D01*
X325677Y512872D01*
X324568Y515547D01*
X322805Y517845D01*
X320508Y519608D01*
X317832Y520717D01*
X314960Y521095D01*
X312088Y520717D01*
X309412Y519608D01*
X307115Y517845D01*
X305352Y515547D01*
X304243Y512872D01*
X303865Y510000D01*
Y506000D01*
X304243Y503128D01*
X304852Y501659D01*
X298771Y495578D01*
X296134D01*
X295703Y496848D01*
X297405Y498155D01*
X299168Y500452D01*
X300277Y503128D01*
X300655Y506000D01*
Y510000D01*
X300277Y512872D01*
X299168Y515547D01*
X297405Y517845D01*
X295107Y519608D01*
X292432Y520717D01*
X289560Y521095D01*
X286688Y520717D01*
X284013Y519608D01*
X281715Y517845D01*
X279951Y515547D01*
X278843Y512872D01*
X278465Y510000D01*
Y506000D01*
X278843Y503128D01*
X279951Y500452D01*
X281715Y498155D01*
X284013Y496391D01*
X285909Y495606D01*
X286093Y495113D01*
X286124Y494142D01*
X281982Y490000D01*
X280557D01*
X278351Y489087D01*
X276663Y487399D01*
X275750Y485193D01*
Y482807D01*
X276663Y480601D01*
X277995Y479270D01*
X277491Y478000D01*
X272000D01*
Y479000D01*
X256738Y494262D01*
Y513590D01*
X256428Y515151D01*
X255544Y516474D01*
X255544Y516474D01*
X255000Y517018D01*
Y531000D01*
X684797D01*
X684996Y478900D01*
D02*
G37*
G36*
X92000Y476518D02*
X87013D01*
X86916Y476879D01*
X85402Y479501D01*
X83261Y481642D01*
X80639Y483156D01*
X77714Y483940D01*
X74686D01*
X71761Y483156D01*
X69139Y481642D01*
X66998Y479501D01*
X65484Y476879D01*
X64700Y473954D01*
Y470926D01*
X65484Y468001D01*
X66998Y465379D01*
X69139Y463238D01*
X71761Y461724D01*
X74686Y460940D01*
X77714D01*
X80639Y461724D01*
X83261Y463238D01*
X85402Y465379D01*
X86916Y468001D01*
X87013Y468362D01*
X92000D01*
Y392000D01*
X110941D01*
Y380905D01*
X110943Y380894D01*
X110941Y380882D01*
X111000Y380598D01*
Y376000D01*
X133385D01*
X134136Y374730D01*
X133283Y372672D01*
X132905Y369800D01*
X133283Y366928D01*
X134391Y364253D01*
X136155Y361955D01*
X138453Y360191D01*
X141128Y359083D01*
X144000Y358705D01*
X148000D01*
X150872Y359083D01*
X153547Y360191D01*
X155845Y361955D01*
X157608Y364253D01*
X158717Y366928D01*
X159095Y369800D01*
X158717Y372672D01*
X157864Y374730D01*
X158615Y376000D01*
X185000D01*
Y380705D01*
X185059Y381000D01*
Y385000D01*
Y410600D01*
X185000Y410895D01*
Y415105D01*
X185059Y415401D01*
Y434941D01*
X201203D01*
X201498Y435000D01*
X204502D01*
X204797Y434941D01*
X206941D01*
Y414000D01*
X206941Y414000D01*
X207174Y412830D01*
X207837Y411837D01*
X207837Y411837D01*
X208000Y411674D01*
Y410485D01*
X206914Y409399D01*
X206000Y407193D01*
Y404807D01*
X206914Y402601D01*
X208000Y401515D01*
Y380000D01*
X209000Y379000D01*
X543000D01*
X561000Y397000D01*
X586000D01*
X586000Y360000D01*
X559000Y333000D01*
Y205790D01*
X558755Y203930D01*
Y199930D01*
X559000Y198070D01*
Y187000D01*
X574000D01*
X582000Y179000D01*
X611000D01*
X613000Y177000D01*
Y188930D01*
X631650D01*
Y192000D01*
X634000D01*
X635000Y191204D01*
Y182575D01*
X631116Y178692D01*
X630232Y177368D01*
X629922Y175808D01*
X629922Y175807D01*
Y169439D01*
X610482Y150000D01*
X583000D01*
Y113000D01*
X592478D01*
X595250Y112635D01*
X598022Y113000D01*
X617878D01*
X620650Y112635D01*
X623422Y113000D01*
X633000D01*
Y135000D01*
X684000D01*
Y3000D01*
X683586Y2000D01*
X625059D01*
Y16200D01*
X626329Y16631D01*
X627155Y15555D01*
X629453Y13792D01*
X632128Y12683D01*
X635000Y12305D01*
X637872Y12683D01*
X640547Y13792D01*
X642845Y15555D01*
X644609Y17852D01*
X645717Y20528D01*
X646095Y23400D01*
Y27400D01*
X645717Y30272D01*
X644609Y32947D01*
X642845Y35245D01*
X640547Y37009D01*
X637872Y38117D01*
X635000Y38495D01*
X632128Y38117D01*
X629453Y37009D01*
X627155Y35245D01*
X626329Y34169D01*
X625059Y34600D01*
Y64940D01*
X624965Y65410D01*
X624909Y65886D01*
X624368Y67550D01*
X623459Y73293D01*
Y79107D01*
X623862Y81654D01*
X623857Y81776D01*
X623890Y81893D01*
X623834Y82369D01*
X623815Y82847D01*
X623764Y82957D01*
X623750Y83078D01*
X623516Y83496D01*
X623316Y83931D01*
X623226Y84013D01*
X623167Y84120D01*
X623000Y84251D01*
Y88000D01*
X620593Y85593D01*
X620410Y85629D01*
X619949Y85759D01*
X619829Y85745D01*
X619710Y85768D01*
X619240Y85675D01*
X618764Y85618D01*
X618658Y85559D01*
X618539Y85535D01*
X618141Y85269D01*
X617723Y85035D01*
X617648Y84940D01*
X617547Y84872D01*
X593733Y61059D01*
X426267D01*
X424281Y63045D01*
X423288Y63708D01*
X422118Y63941D01*
X422118D01*
X420947Y63708D01*
X419955Y63045D01*
X419916Y63007D01*
X419900Y63000D01*
X416600D01*
X416584Y63007D01*
X415428Y64163D01*
X414435Y64826D01*
X413265Y65059D01*
X413265Y65059D01*
X373485D01*
X372315Y64826D01*
X371322Y64163D01*
X370916Y63756D01*
X369835Y63309D01*
X368665D01*
X368000Y63584D01*
Y66000D01*
X347000Y87000D01*
X344296D01*
X344000Y87059D01*
X344000Y87059D01*
X309151D01*
X308855Y87000D01*
X304645D01*
X304349Y87059D01*
X279941D01*
X241000Y126000D01*
Y136000D01*
X230326D01*
X230163Y136163D01*
X229170Y136826D01*
X228000Y137059D01*
X228000Y137059D01*
X210651D01*
X209480Y136826D01*
X208835Y136559D01*
X207665D01*
X207020Y136826D01*
X205849Y137059D01*
X186000D01*
X186000Y137059D01*
X184830Y136826D01*
X183837Y136163D01*
X183837Y136163D01*
X177733Y130059D01*
X164235D01*
X163065Y129826D01*
X162288Y129307D01*
X161085Y128809D01*
X159915D01*
X158834Y129257D01*
X158006Y130084D01*
X157559Y131165D01*
Y132500D01*
X157326Y133671D01*
X156663Y134663D01*
X156663Y134663D01*
X154163Y137163D01*
X153170Y137826D01*
X153000Y137860D01*
X153000Y138000D01*
X152000Y138059D01*
X152000Y138059D01*
X151754Y138059D01*
X114553D01*
X113890Y139329D01*
X114470Y140730D01*
X109000D01*
Y143270D01*
X114470D01*
X113697Y145138D01*
X112138Y146697D01*
X110651Y147313D01*
Y148687D01*
X112138Y149303D01*
X112861Y150026D01*
X114303Y149862D01*
X115862Y148303D01*
X117730Y147530D01*
Y153000D01*
Y158470D01*
X115862Y157697D01*
X115139Y156974D01*
X113697Y157138D01*
X112138Y158697D01*
X110270Y159470D01*
Y154000D01*
X107730D01*
Y159470D01*
X105862Y158697D01*
X104500Y157335D01*
X103138Y158697D01*
X101270Y159470D01*
Y154000D01*
X98730D01*
Y159470D01*
X98115Y159215D01*
X97059Y159921D01*
Y168000D01*
X97059Y168000D01*
X96826Y169171D01*
X96163Y170163D01*
X86163Y180163D01*
X85170Y180826D01*
X84000Y181059D01*
X84000Y181059D01*
X80735D01*
X80735Y181059D01*
X79565Y180826D01*
X79365Y180693D01*
X77835Y180059D01*
X76665D01*
X75391Y180587D01*
X75163Y180928D01*
X74756Y181334D01*
X74309Y182415D01*
Y183585D01*
X74756Y184666D01*
X75163Y185072D01*
X75826Y186065D01*
X76059Y187235D01*
X76059Y187235D01*
Y237000D01*
X76000Y237295D01*
Y238000D01*
X75860D01*
X75826Y238171D01*
X75163Y239163D01*
X74170Y239826D01*
X73000Y240059D01*
X62310D01*
X62015Y240000D01*
X61713D01*
X61435Y239885D01*
X61140Y239826D01*
X60889Y239659D01*
X60611Y239543D01*
X60398Y239330D01*
X60147Y239163D01*
X59980Y238912D01*
X59767Y238699D01*
X59693Y238521D01*
X59357Y238421D01*
X58643Y238421D01*
X58307Y238521D01*
X58233Y238699D01*
X58020Y238912D01*
X57853Y239163D01*
X57602Y239330D01*
X57389Y239543D01*
X57111Y239659D01*
X56860Y239826D01*
X56565Y239885D01*
X56287Y240000D01*
X55985D01*
X55690Y240059D01*
X50059D01*
Y305100D01*
X52314D01*
X55239Y305884D01*
X57861Y307398D01*
X60002Y309539D01*
X61516Y312161D01*
X62300Y315086D01*
Y318114D01*
X61516Y321039D01*
X60002Y323661D01*
X57861Y325802D01*
X55239Y327316D01*
X52314Y328100D01*
X50059D01*
Y330500D01*
X62300D01*
Y353500D01*
X50059D01*
Y374580D01*
X52314D01*
X55239Y375364D01*
X57861Y376878D01*
X60002Y379019D01*
X61516Y381641D01*
X62300Y384566D01*
Y387594D01*
X61516Y390519D01*
X60002Y393141D01*
X57861Y395282D01*
X55239Y396796D01*
X52314Y397580D01*
X50059D01*
Y399980D01*
X52314D01*
X55239Y400764D01*
X57861Y402278D01*
X60002Y404419D01*
X61516Y407041D01*
X62300Y409966D01*
Y412994D01*
X61516Y415919D01*
X60002Y418541D01*
X57861Y420682D01*
X55239Y422196D01*
X52314Y422980D01*
X50059D01*
Y460940D01*
X52314D01*
X55239Y461724D01*
X57861Y463238D01*
X60002Y465379D01*
X61516Y468001D01*
X62300Y470926D01*
Y473954D01*
X61516Y476879D01*
X60002Y479501D01*
X57861Y481642D01*
X55239Y483156D01*
X52314Y483940D01*
X50059D01*
Y486340D01*
X52314D01*
X55239Y487124D01*
X57861Y488638D01*
X60002Y490779D01*
X61516Y493401D01*
X62300Y496326D01*
Y499354D01*
X61516Y502279D01*
X60002Y504901D01*
X57861Y507042D01*
X55239Y508556D01*
X52314Y509340D01*
X50000D01*
Y512000D01*
X45085D01*
X44989Y512033D01*
X44788Y512019D01*
X44590Y512059D01*
X3000D01*
X2000Y512940D01*
Y532000D01*
X92000D01*
Y476518D01*
D02*
G37*
G36*
X226000Y446000D02*
X229000D01*
X248000Y427000D01*
X249232D01*
X251866Y424366D01*
X251866Y424366D01*
X253189Y423482D01*
X254750Y423172D01*
X318000D01*
Y397000D01*
X227000D01*
X218000Y406000D01*
Y407193D01*
X217087Y409399D01*
X215399Y411087D01*
X213193Y412000D01*
X212000D01*
X210000Y414000D01*
Y438000D01*
X204797D01*
X204193Y438250D01*
X201807D01*
X201203Y438000D01*
X182000D01*
Y415401D01*
X181500Y414193D01*
Y411806D01*
X182000Y410600D01*
Y385000D01*
Y381000D01*
X150698Y380540D01*
X148000Y380895D01*
X144000D01*
X141128Y380517D01*
X140833Y380395D01*
X114905Y380013D01*
X114000Y380905D01*
Y396000D01*
X96000D01*
Y435000D01*
X164000D01*
Y453922D01*
X218078D01*
X226000Y446000D01*
D02*
G37*
G36*
X73000Y187235D02*
X72164Y186399D01*
X71250Y184193D01*
Y181807D01*
X72164Y179601D01*
X73000Y178765D01*
Y178000D01*
X73765D01*
X73851Y177913D01*
X76056Y177000D01*
X78443D01*
X80649Y177913D01*
X80735Y178000D01*
X84000D01*
X94000Y168000D01*
Y135295D01*
X93941Y135000D01*
Y119098D01*
X92671Y118846D01*
X92447Y119388D01*
X90888Y120947D01*
X89020Y121720D01*
Y116250D01*
Y110780D01*
X90888Y111553D01*
X92447Y113112D01*
X92671Y113654D01*
X93941Y113402D01*
Y102303D01*
X92671Y101913D01*
X91388Y103197D01*
X89520Y103970D01*
Y98500D01*
X88250D01*
Y97230D01*
X82780D01*
X83553Y95362D01*
X83683Y95232D01*
X83197Y94059D01*
X80059D01*
Y131000D01*
X80000Y131295D01*
Y132000D01*
X79819Y132181D01*
X79163Y133163D01*
X67059Y145267D01*
Y166000D01*
X67000Y166296D01*
Y167000D01*
X66819Y167181D01*
X66163Y168163D01*
X66163Y168163D01*
X50059Y184267D01*
Y237000D01*
X55690D01*
X55943Y235730D01*
X55862Y235697D01*
X54303Y234138D01*
X53530Y232270D01*
X64470D01*
X63697Y234138D01*
X62138Y235697D01*
X62057Y235730D01*
X62310Y237000D01*
X73000D01*
Y187235D01*
D02*
G37*
G36*
X218000Y106000D02*
X234000Y90000D01*
Y68000D01*
X272000D01*
X281000Y59000D01*
X335000D01*
X357000Y37000D01*
X366000D01*
Y16414D01*
X365000Y16000D01*
X347000D01*
Y26000D01*
X339004Y33996D01*
X338045Y35245D01*
X336796Y36204D01*
X335000Y38000D01*
X333354D01*
X333072Y38117D01*
X330200Y38495D01*
X327328Y38117D01*
X327046Y38000D01*
X307954D01*
X307672Y38117D01*
X304800Y38495D01*
X301928Y38117D01*
X301646Y38000D01*
X290400D01*
Y38400D01*
X277600D01*
X267000Y49000D01*
X216000D01*
X197751Y67249D01*
X198409Y68387D01*
X199854Y68000D01*
X203146D01*
X206325Y68852D01*
X209175Y70497D01*
X211502Y72825D01*
X213148Y75675D01*
X214000Y78854D01*
Y82146D01*
X213148Y85325D01*
X211502Y88175D01*
X209175Y90503D01*
X206325Y92148D01*
X203146Y93000D01*
X199854D01*
X196675Y92148D01*
X193825Y90503D01*
X191497Y88175D01*
X189852Y85325D01*
X189000Y82146D01*
Y78854D01*
X189387Y77409D01*
X188249Y76751D01*
X187244Y77755D01*
X157222D01*
X157000Y78000D01*
Y110000D01*
X158000D01*
X166000Y118000D01*
X218000D01*
Y106000D01*
D02*
G37*
G36*
X44930Y507730D02*
X43739Y507042D01*
X41598Y504901D01*
X40084Y502279D01*
X39300Y499354D01*
Y496326D01*
X40084Y493401D01*
X41598Y490779D01*
X43739Y488638D01*
X46361Y487124D01*
X47000Y486953D01*
Y483327D01*
X46361Y483156D01*
X43739Y481642D01*
X41598Y479501D01*
X40084Y476879D01*
X39300Y473954D01*
Y470926D01*
X40084Y468001D01*
X41598Y465379D01*
X43739Y463238D01*
X46361Y461724D01*
X47000Y461553D01*
Y422368D01*
X46361Y422196D01*
X43739Y420682D01*
X41598Y418541D01*
X40084Y415919D01*
X39300Y412994D01*
Y409966D01*
X40084Y407041D01*
X41598Y404419D01*
X43739Y402278D01*
X46361Y400764D01*
X47000Y400592D01*
Y396968D01*
X46361Y396796D01*
X43739Y395282D01*
X41598Y393141D01*
X40084Y390519D01*
X39300Y387594D01*
Y384566D01*
X40084Y381641D01*
X41598Y379019D01*
X43739Y376878D01*
X46361Y375364D01*
X47000Y375192D01*
Y353500D01*
X39300D01*
Y330500D01*
X47000D01*
Y327487D01*
X46361Y327316D01*
X43739Y325802D01*
X41598Y323661D01*
X40084Y321039D01*
X39300Y318114D01*
Y315086D01*
X40084Y312161D01*
X41598Y309539D01*
X43739Y307398D01*
X46361Y305884D01*
X47000Y305713D01*
Y183000D01*
X64000Y166000D01*
Y144000D01*
X77000Y131000D01*
Y91000D01*
X97000D01*
Y135000D01*
X152000D01*
X154500Y132500D01*
Y130556D01*
X155414Y128351D01*
X157101Y126663D01*
X159306Y125750D01*
X161693D01*
X163899Y126663D01*
X164235Y127000D01*
X179000D01*
X186000Y134000D01*
X205849D01*
X207057Y133500D01*
X209443D01*
X210651Y134000D01*
X228000D01*
X278000Y84000D01*
X304349D01*
X305557Y83500D01*
X307943D01*
X309151Y84000D01*
X344000D01*
X363467Y64533D01*
X364000Y63246D01*
Y62000D01*
X365015D01*
X365851Y61164D01*
X368056Y60250D01*
X370443D01*
X372649Y61164D01*
X373485Y62000D01*
X413265D01*
X414851Y60413D01*
X417057Y59500D01*
X419444D01*
X421649Y60413D01*
X422118Y60882D01*
X425000Y58000D01*
X595000D01*
X619710Y82710D01*
X620841Y82133D01*
X620400Y79348D01*
Y73052D01*
X621385Y66833D01*
X622000Y64940D01*
Y2000D01*
X396000D01*
Y16798D01*
X397270Y17229D01*
X398555Y15555D01*
X400853Y13792D01*
X403528Y12683D01*
X406400Y12305D01*
X409272Y12683D01*
X411948Y13792D01*
X414245Y15555D01*
X416008Y17852D01*
X417117Y20528D01*
X417495Y23400D01*
Y27400D01*
X417117Y30272D01*
X416008Y32947D01*
X414245Y35245D01*
X411948Y37009D01*
X409272Y38117D01*
X406400Y38495D01*
X403528Y38117D01*
X400853Y37009D01*
X398555Y35245D01*
X397270Y33571D01*
X396000Y34002D01*
Y41000D01*
X359000D01*
X339000Y61000D01*
Y62000D01*
X335296D01*
X335000Y62059D01*
X335000Y62059D01*
X282941D01*
X275000Y70000D01*
Y71000D01*
X272295D01*
X272000Y71059D01*
X272000Y71059D01*
X260000D01*
Y94000D01*
X235000D01*
X222000Y107000D01*
Y125000D01*
X165000D01*
X153000Y113000D01*
Y80000D01*
X153941Y79059D01*
Y78000D01*
X154044Y77485D01*
X154076Y77270D01*
X153464Y76225D01*
X153201Y76000D01*
X127200D01*
Y101000D01*
X105200D01*
Y97200D01*
X72000Y64000D01*
X3000D01*
Y119293D01*
X4270Y119819D01*
X6382Y117707D01*
X10149Y115190D01*
X14335Y113456D01*
X18779Y112572D01*
X23309D01*
X27753Y113456D01*
X31939Y115190D01*
X35706Y117707D01*
X38909Y120910D01*
X41426Y124677D01*
X43160Y128863D01*
X44044Y133307D01*
Y137837D01*
X43160Y142281D01*
X41426Y146467D01*
X38909Y150234D01*
X35706Y153437D01*
X31939Y155954D01*
X28320Y157453D01*
X28314Y157561D01*
X28551Y158732D01*
X30007Y158924D01*
X31649Y159604D01*
X33059Y160686D01*
X34141Y162096D01*
X34821Y163738D01*
X35053Y165500D01*
Y170500D01*
X34821Y172262D01*
X34141Y173904D01*
X33059Y175314D01*
X31649Y176396D01*
X30007Y177076D01*
X28245Y177308D01*
X15745D01*
X13983Y177076D01*
X12341Y176396D01*
X10931Y175314D01*
X9849Y173904D01*
X9169Y172262D01*
X8937Y170500D01*
Y165500D01*
X9169Y163738D01*
X9849Y162096D01*
X10931Y160686D01*
X12341Y159604D01*
X13983Y158924D01*
X14195Y157736D01*
X14167Y157619D01*
X10149Y155954D01*
X6382Y153437D01*
X4270Y151325D01*
X3000Y151851D01*
Y509000D01*
X44590D01*
X44930Y507730D01*
D02*
G37*
G36*
X124000Y75000D02*
X124340D01*
X124374Y74830D01*
X125037Y73837D01*
X126029Y73174D01*
X127200Y72941D01*
X153201D01*
X153669Y73034D01*
X154143Y73090D01*
X154251Y73150D01*
X154371Y73174D01*
X154768Y73439D01*
X155185Y73672D01*
X155449Y73897D01*
X155765Y74298D01*
X156105Y74680D01*
X156230Y74894D01*
X156566Y74827D01*
X157076Y74700D01*
X157149Y74711D01*
X157222Y74697D01*
X183303D01*
X213000Y45000D01*
X266000D01*
X268000Y43000D01*
Y13000D01*
X268400D01*
Y12400D01*
X290400D01*
Y13000D01*
X301163D01*
X301928Y12683D01*
X304800Y12305D01*
X307672Y12683D01*
X308437Y13000D01*
X326563D01*
X327328Y12683D01*
X330200Y12305D01*
X333072Y12683D01*
X333837Y13000D01*
X346704D01*
X347000Y12941D01*
X352105D01*
X352728Y12683D01*
X355600Y12305D01*
X358472Y12683D01*
X359095Y12941D01*
X365000D01*
X365295Y13000D01*
X369000D01*
X370000Y14000D01*
Y37941D01*
X392941D01*
Y34002D01*
X392961Y33903D01*
X392948Y33802D01*
X393000Y33607D01*
Y17193D01*
X392948Y16998D01*
X392961Y16897D01*
X392941Y16798D01*
Y2000D01*
X249320D01*
X249153Y3270D01*
X251325Y3852D01*
X254175Y5498D01*
X256502Y7825D01*
X258148Y10675D01*
X259000Y13854D01*
Y17146D01*
X258148Y20325D01*
X256502Y23175D01*
X254175Y25503D01*
X251325Y27148D01*
X248146Y28000D01*
X244854D01*
X241675Y27148D01*
X238825Y25503D01*
X236497Y23175D01*
X234852Y20325D01*
X234000Y17146D01*
Y13854D01*
X234852Y10675D01*
X236497Y7825D01*
X238825Y5498D01*
X241675Y3852D01*
X243847Y3270D01*
X243680Y2000D01*
X204320D01*
X204153Y3270D01*
X206325Y3852D01*
X209175Y5498D01*
X211502Y7825D01*
X213148Y10675D01*
X214000Y13854D01*
Y17146D01*
X213148Y20325D01*
X211502Y23175D01*
X209175Y25503D01*
X206325Y27148D01*
X203146Y28000D01*
X199854D01*
X196675Y27148D01*
X193825Y25503D01*
X191497Y23175D01*
X189852Y20325D01*
X189000Y17146D01*
Y13854D01*
X189852Y10675D01*
X191497Y7825D01*
X193825Y5498D01*
X196675Y3852D01*
X198847Y3270D01*
X198680Y2000D01*
X173540D01*
X172964Y3132D01*
X173911Y4435D01*
X176770Y10045D01*
X178715Y16033D01*
X179700Y22252D01*
Y28548D01*
X178715Y34767D01*
X176770Y40755D01*
X173911Y46365D01*
X170210Y51458D01*
X165758Y55910D01*
X160665Y59611D01*
X155055Y62470D01*
X149067Y64415D01*
X142848Y65400D01*
X136552D01*
X130333Y64415D01*
X124345Y62470D01*
X118735Y59611D01*
X113642Y55910D01*
X109190Y51458D01*
X105489Y46365D01*
X102631Y40755D01*
X100685Y34767D01*
X99700Y28548D01*
Y22252D01*
X100685Y16033D01*
X102631Y10045D01*
X105489Y4435D01*
X106436Y3132D01*
X105860Y2000D01*
X2000D01*
X2000Y2000D01*
X1995Y3201D01*
Y60063D01*
X3000Y60941D01*
X72000D01*
X72000Y60941D01*
X72296Y61000D01*
X73000D01*
X73181Y61181D01*
X74163Y61837D01*
X107363Y95037D01*
X108006Y96000D01*
X124000D01*
Y75000D01*
D02*
G37*
%LPC*%
G36*
X646000Y521000D02*
X624000D01*
Y495000D01*
X646000D01*
Y521000D01*
D02*
G37*
G36*
X427560D02*
X405560D01*
Y495000D01*
X427560D01*
Y521000D01*
D02*
G37*
G36*
X609600Y521095D02*
X606728Y520717D01*
X604053Y519608D01*
X601755Y517845D01*
X599991Y515547D01*
X598883Y512872D01*
X598505Y510000D01*
Y506000D01*
X598883Y503128D01*
X599991Y500452D01*
X601755Y498155D01*
X604053Y496391D01*
X606728Y495283D01*
X609600Y494905D01*
X612472Y495283D01*
X615148Y496391D01*
X617445Y498155D01*
X619208Y500452D01*
X620317Y503128D01*
X620695Y506000D01*
Y510000D01*
X620317Y512872D01*
X619208Y515547D01*
X617445Y517845D01*
X615148Y519608D01*
X612472Y520717D01*
X609600Y521095D01*
D02*
G37*
G36*
X584200D02*
X581328Y520717D01*
X578652Y519608D01*
X576355Y517845D01*
X574591Y515547D01*
X573483Y512872D01*
X573105Y510000D01*
Y506000D01*
X573483Y503128D01*
X574591Y500452D01*
X576355Y498155D01*
X578652Y496391D01*
X581328Y495283D01*
X584200Y494905D01*
X587072Y495283D01*
X589748Y496391D01*
X592045Y498155D01*
X593809Y500452D01*
X594917Y503128D01*
X595295Y506000D01*
Y510000D01*
X594917Y512872D01*
X593809Y515547D01*
X592045Y517845D01*
X589748Y519608D01*
X587072Y520717D01*
X584200Y521095D01*
D02*
G37*
G36*
X558800D02*
X555928Y520717D01*
X553252Y519608D01*
X550955Y517845D01*
X549192Y515547D01*
X548083Y512872D01*
X547705Y510000D01*
Y506000D01*
X548083Y503128D01*
X549192Y500452D01*
X550955Y498155D01*
X553252Y496391D01*
X555928Y495283D01*
X558800Y494905D01*
X561672Y495283D01*
X564347Y496391D01*
X566645Y498155D01*
X568409Y500452D01*
X569517Y503128D01*
X569895Y506000D01*
Y510000D01*
X569517Y512872D01*
X568409Y515547D01*
X566645Y517845D01*
X564347Y519608D01*
X561672Y520717D01*
X558800Y521095D01*
D02*
G37*
G36*
X533400D02*
X530528Y520717D01*
X527853Y519608D01*
X525555Y517845D01*
X523792Y515547D01*
X522683Y512872D01*
X522305Y510000D01*
Y506000D01*
X522683Y503128D01*
X523792Y500452D01*
X525555Y498155D01*
X527853Y496391D01*
X530528Y495283D01*
X533400Y494905D01*
X536272Y495283D01*
X538947Y496391D01*
X541245Y498155D01*
X543008Y500452D01*
X544117Y503128D01*
X544495Y506000D01*
Y510000D01*
X544117Y512872D01*
X543008Y515547D01*
X541245Y517845D01*
X538947Y519608D01*
X536272Y520717D01*
X533400Y521095D01*
D02*
G37*
G36*
X508000D02*
X505128Y520717D01*
X502453Y519608D01*
X500155Y517845D01*
X498391Y515547D01*
X497283Y512872D01*
X496905Y510000D01*
Y506000D01*
X497283Y503128D01*
X498391Y500452D01*
X500155Y498155D01*
X502453Y496391D01*
X505128Y495283D01*
X508000Y494905D01*
X510872Y495283D01*
X513548Y496391D01*
X515845Y498155D01*
X517608Y500452D01*
X518717Y503128D01*
X519095Y506000D01*
Y510000D01*
X518717Y512872D01*
X517608Y515547D01*
X515845Y517845D01*
X513548Y519608D01*
X510872Y520717D01*
X508000Y521095D01*
D02*
G37*
G36*
X482600D02*
X479728Y520717D01*
X477052Y519608D01*
X474755Y517845D01*
X472991Y515547D01*
X471883Y512872D01*
X471505Y510000D01*
Y506000D01*
X471883Y503128D01*
X472991Y500452D01*
X474755Y498155D01*
X477052Y496391D01*
X479728Y495283D01*
X482600Y494905D01*
X485472Y495283D01*
X488148Y496391D01*
X490445Y498155D01*
X492209Y500452D01*
X493317Y503128D01*
X493695Y506000D01*
Y510000D01*
X493317Y512872D01*
X492209Y515547D01*
X490445Y517845D01*
X488148Y519608D01*
X485472Y520717D01*
X482600Y521095D01*
D02*
G37*
G36*
X457200D02*
X454328Y520717D01*
X451652Y519608D01*
X449355Y517845D01*
X447592Y515547D01*
X446483Y512872D01*
X446105Y510000D01*
Y506000D01*
X446483Y503128D01*
X447592Y500452D01*
X449355Y498155D01*
X451652Y496391D01*
X454328Y495283D01*
X457200Y494905D01*
X460072Y495283D01*
X462747Y496391D01*
X465045Y498155D01*
X466809Y500452D01*
X467917Y503128D01*
X468295Y506000D01*
Y510000D01*
X467917Y512872D01*
X466809Y515547D01*
X465045Y517845D01*
X462747Y519608D01*
X460072Y520717D01*
X457200Y521095D01*
D02*
G37*
G36*
X391160D02*
X388288Y520717D01*
X385612Y519608D01*
X383315Y517845D01*
X381552Y515547D01*
X380443Y512872D01*
X380065Y510000D01*
Y506000D01*
X380443Y503128D01*
X381552Y500452D01*
X383315Y498155D01*
X385612Y496391D01*
X388288Y495283D01*
X391160Y494905D01*
X394032Y495283D01*
X396707Y496391D01*
X399005Y498155D01*
X400769Y500452D01*
X401877Y503128D01*
X402255Y506000D01*
Y510000D01*
X401877Y512872D01*
X400769Y515547D01*
X399005Y517845D01*
X396707Y519608D01*
X394032Y520717D01*
X391160Y521095D01*
D02*
G37*
G36*
X365760D02*
X362888Y520717D01*
X360213Y519608D01*
X357915Y517845D01*
X356152Y515547D01*
X355043Y512872D01*
X354665Y510000D01*
Y506000D01*
X355043Y503128D01*
X356152Y500452D01*
X357915Y498155D01*
X360213Y496391D01*
X362888Y495283D01*
X365760Y494905D01*
X368632Y495283D01*
X371307Y496391D01*
X373605Y498155D01*
X375368Y500452D01*
X376477Y503128D01*
X376855Y506000D01*
Y510000D01*
X376477Y512872D01*
X375368Y515547D01*
X373605Y517845D01*
X371307Y519608D01*
X368632Y520717D01*
X365760Y521095D01*
D02*
G37*
G36*
X340360D02*
X337488Y520717D01*
X334813Y519608D01*
X332515Y517845D01*
X330751Y515547D01*
X329643Y512872D01*
X329265Y510000D01*
Y506000D01*
X329643Y503128D01*
X330751Y500452D01*
X332515Y498155D01*
X334813Y496391D01*
X337488Y495283D01*
X340360Y494905D01*
X343232Y495283D01*
X345908Y496391D01*
X348205Y498155D01*
X349968Y500452D01*
X351077Y503128D01*
X351455Y506000D01*
Y510000D01*
X351077Y512872D01*
X349968Y515547D01*
X348205Y517845D01*
X345908Y519608D01*
X343232Y520717D01*
X340360Y521095D01*
D02*
G37*
G36*
X77714Y397580D02*
X74686D01*
X71761Y396796D01*
X69139Y395282D01*
X66998Y393141D01*
X65484Y390519D01*
X64700Y387594D01*
Y384566D01*
X65484Y381641D01*
X66998Y379019D01*
X69139Y376878D01*
X71761Y375364D01*
X74686Y374580D01*
X77714D01*
X80639Y375364D01*
X83261Y376878D01*
X85402Y379019D01*
X86916Y381641D01*
X87700Y384566D01*
Y387594D01*
X86916Y390519D01*
X85402Y393141D01*
X83261Y395282D01*
X80639Y396796D01*
X77714Y397580D01*
D02*
G37*
G36*
X87943Y375750D02*
X85556D01*
X83351Y374837D01*
X81663Y373149D01*
X80750Y370943D01*
Y368557D01*
X81663Y366351D01*
X82672Y365343D01*
Y324657D01*
X81663Y323649D01*
X80750Y321443D01*
Y319056D01*
X81663Y316851D01*
X83351Y315163D01*
X85556Y314250D01*
X87943D01*
X90149Y315163D01*
X91837Y316851D01*
X91898Y317000D01*
X95422D01*
Y281657D01*
X94413Y280649D01*
X93500Y278444D01*
Y276056D01*
X94413Y273851D01*
X96101Y272163D01*
X98307Y271250D01*
X100694D01*
X102899Y272163D01*
X104587Y273851D01*
X105500Y276056D01*
Y278444D01*
X104587Y280649D01*
X103578Y281657D01*
Y364438D01*
X103268Y365999D01*
X102384Y367322D01*
X102384Y367322D01*
X101500Y368206D01*
Y370443D01*
X100587Y372649D01*
X100000Y373235D01*
Y375000D01*
X97297D01*
X96693Y375250D01*
X94306D01*
X93703Y375000D01*
X89754D01*
X87943Y375750D01*
D02*
G37*
G36*
X329193Y252000D02*
X326806D01*
X324601Y251087D01*
X322914Y249399D01*
X322000Y247194D01*
Y244806D01*
X322914Y242601D01*
X323922Y241593D01*
Y213202D01*
X322652Y212576D01*
X321398Y213538D01*
X318722Y214647D01*
X315850Y215025D01*
X314033Y214786D01*
X313078Y215623D01*
Y224593D01*
X314086Y225601D01*
X315000Y227806D01*
Y230194D01*
X314086Y232399D01*
X312399Y234087D01*
X310194Y235000D01*
X307806D01*
X305601Y234087D01*
X303913Y232399D01*
X303000Y230194D01*
Y227806D01*
X303913Y225601D01*
X304922Y224593D01*
Y215692D01*
X300866Y211636D01*
X300464Y211035D01*
X298916Y210967D01*
X298295Y211775D01*
X295998Y213538D01*
X293322Y214647D01*
X290450Y215025D01*
X287578Y214647D01*
X284902Y213538D01*
X282605Y211775D01*
X280842Y209478D01*
X279733Y206802D01*
X279629Y206008D01*
X253930D01*
X252369Y205698D01*
X251046Y204814D01*
X251046Y204814D01*
X238232Y192000D01*
X236807D01*
X234601Y191087D01*
X232913Y189399D01*
X232000Y187194D01*
Y184806D01*
X232913Y182601D01*
X234601Y180914D01*
X236807Y180000D01*
X239193D01*
X241399Y180914D01*
X243087Y182601D01*
X244000Y184806D01*
Y186232D01*
X255619Y197852D01*
X279629D01*
X279733Y197058D01*
X280842Y194382D01*
X282605Y192085D01*
X284902Y190322D01*
X287578Y189213D01*
X290450Y188835D01*
X293322Y189213D01*
X295998Y190322D01*
X298295Y192085D01*
X298469Y192311D01*
X299672Y191903D01*
Y183157D01*
X298663Y182149D01*
X297750Y179944D01*
Y177556D01*
X298663Y175351D01*
X300351Y173664D01*
X302556Y172750D01*
X304944D01*
X307149Y173664D01*
X308836Y175351D01*
X309750Y177556D01*
Y179944D01*
X308836Y182149D01*
X307828Y183157D01*
Y190619D01*
X309098Y191245D01*
X310303Y190322D01*
X312978Y189213D01*
X315850Y188835D01*
X318722Y189213D01*
X321398Y190322D01*
X322033Y190809D01*
X323172Y190247D01*
Y182657D01*
X322163Y181649D01*
X321250Y179443D01*
Y177057D01*
X322163Y174851D01*
X323851Y173164D01*
X326057Y172250D01*
X328443D01*
X330649Y173164D01*
X332337Y174851D01*
X333250Y177057D01*
Y179443D01*
X332337Y181649D01*
X331328Y182657D01*
Y192705D01*
X332598Y193136D01*
X333405Y192085D01*
X335703Y190322D01*
X338378Y189213D01*
X341250Y188835D01*
X344122Y189213D01*
X346797Y190322D01*
X349095Y192085D01*
X350858Y194382D01*
X351967Y197058D01*
X352345Y199930D01*
Y203930D01*
X351967Y206802D01*
X350858Y209478D01*
X349095Y211775D01*
X346797Y213538D01*
X344122Y214647D01*
X341250Y215025D01*
X338378Y214647D01*
X335703Y213538D01*
X333405Y211775D01*
X333281Y211614D01*
X332078Y212022D01*
Y241593D01*
X333087Y242601D01*
X334000Y244806D01*
Y247194D01*
X333087Y249399D01*
X331399Y251087D01*
X329193Y252000D01*
D02*
G37*
G36*
X208944Y217000D02*
X206556D01*
X204351Y216087D01*
X202663Y214399D01*
X201761Y212221D01*
X196888Y207348D01*
X180871D01*
X178694Y208250D01*
X176307D01*
X174101Y207337D01*
X172414Y205649D01*
X171500Y203444D01*
Y201057D01*
X172414Y198851D01*
X174101Y197164D01*
X176307Y196250D01*
X178694D01*
X180871Y197152D01*
X199000D01*
X200951Y197540D01*
X202605Y198645D01*
X208971Y205011D01*
X211149Y205914D01*
X212837Y207601D01*
X213750Y209806D01*
Y212194D01*
X212837Y214399D01*
X211149Y216087D01*
X208944Y217000D01*
D02*
G37*
G36*
X111944Y220250D02*
X109557D01*
X107351Y219336D01*
X105663Y217649D01*
X104750Y215443D01*
Y213057D01*
X105663Y210851D01*
X107351Y209163D01*
X109557Y208250D01*
X110982D01*
X112116Y207116D01*
X113439Y206232D01*
X115000Y205922D01*
X115000Y205922D01*
X115758D01*
X116143Y204652D01*
X116116Y204634D01*
X110732Y199250D01*
X109306D01*
X107101Y198337D01*
X105413Y196649D01*
X104500Y194443D01*
Y192057D01*
X105413Y189851D01*
X107101Y188163D01*
X109306Y187250D01*
X111693D01*
X113899Y188163D01*
X115587Y189851D01*
X116500Y192057D01*
Y193482D01*
X120689Y197672D01*
X134780D01*
X135085Y197366D01*
X135085Y197366D01*
X136408Y196482D01*
X137969Y196172D01*
X151843D01*
X152851Y195163D01*
X155056Y194250D01*
X157444D01*
X159649Y195163D01*
X161337Y196851D01*
X162250Y199056D01*
Y201444D01*
X161471Y203325D01*
X162208Y204272D01*
X162316Y204349D01*
X162556Y204250D01*
X164944D01*
X167149Y205163D01*
X168836Y206851D01*
X169750Y209056D01*
Y211444D01*
X168836Y213649D01*
X167149Y215337D01*
X164944Y216250D01*
X162556D01*
X160351Y215337D01*
X159093Y214078D01*
X116750D01*
Y215443D01*
X115836Y217649D01*
X114149Y219336D01*
X111944Y220250D01*
D02*
G37*
G36*
X135270Y195470D02*
Y191270D01*
X139470D01*
X138697Y193138D01*
X137138Y194697D01*
X135270Y195470D01*
D02*
G37*
G36*
X132730D02*
X130862Y194697D01*
X129303Y193138D01*
X128530Y191270D01*
X132730D01*
Y195470D01*
D02*
G37*
G36*
X544450Y215025D02*
X541578Y214647D01*
X538903Y213538D01*
X536605Y211775D01*
X534841Y209478D01*
X533733Y206802D01*
X533355Y203930D01*
Y199930D01*
X533733Y197058D01*
X534841Y194382D01*
X536605Y192085D01*
X538903Y190322D01*
X541578Y189213D01*
X544450Y188835D01*
X547322Y189213D01*
X549997Y190322D01*
X552295Y192085D01*
X554058Y194382D01*
X555167Y197058D01*
X555545Y199930D01*
Y203930D01*
X555167Y206802D01*
X554058Y209478D01*
X552295Y211775D01*
X549997Y213538D01*
X547322Y214647D01*
X544450Y215025D01*
D02*
G37*
G36*
X519050D02*
X516178Y214647D01*
X513503Y213538D01*
X511205Y211775D01*
X509441Y209478D01*
X508333Y206802D01*
X507955Y203930D01*
Y199930D01*
X508333Y197058D01*
X509441Y194382D01*
X511205Y192085D01*
X513503Y190322D01*
X516178Y189213D01*
X519050Y188835D01*
X521922Y189213D01*
X524598Y190322D01*
X526895Y192085D01*
X528658Y194382D01*
X529767Y197058D01*
X530145Y199930D01*
Y203930D01*
X529767Y206802D01*
X528658Y209478D01*
X526895Y211775D01*
X524598Y213538D01*
X521922Y214647D01*
X519050Y215025D01*
D02*
G37*
G36*
X493650D02*
X490778Y214647D01*
X488102Y213538D01*
X485805Y211775D01*
X484041Y209478D01*
X482933Y206802D01*
X482555Y203930D01*
Y199930D01*
X482933Y197058D01*
X484041Y194382D01*
X485805Y192085D01*
X488102Y190322D01*
X490778Y189213D01*
X493650Y188835D01*
X496522Y189213D01*
X499198Y190322D01*
X501495Y192085D01*
X503259Y194382D01*
X504367Y197058D01*
X504745Y199930D01*
Y203930D01*
X504367Y206802D01*
X503259Y209478D01*
X501495Y211775D01*
X499198Y213538D01*
X496522Y214647D01*
X493650Y215025D01*
D02*
G37*
G36*
X468250D02*
X465378Y214647D01*
X462702Y213538D01*
X460405Y211775D01*
X458642Y209478D01*
X457533Y206802D01*
X457155Y203930D01*
Y199930D01*
X457533Y197058D01*
X458642Y194382D01*
X460405Y192085D01*
X462702Y190322D01*
X465378Y189213D01*
X468250Y188835D01*
X471122Y189213D01*
X473797Y190322D01*
X476095Y192085D01*
X477859Y194382D01*
X478967Y197058D01*
X479345Y199930D01*
Y203930D01*
X478967Y206802D01*
X477859Y209478D01*
X476095Y211775D01*
X473797Y213538D01*
X471122Y214647D01*
X468250Y215025D01*
D02*
G37*
G36*
X417450D02*
X414578Y214647D01*
X411903Y213538D01*
X409605Y211775D01*
X407841Y209478D01*
X406733Y206802D01*
X406355Y203930D01*
Y199930D01*
X406733Y197058D01*
X407841Y194382D01*
X409605Y192085D01*
X411903Y190322D01*
X414578Y189213D01*
X417450Y188835D01*
X420322Y189213D01*
X422998Y190322D01*
X425295Y192085D01*
X427058Y194382D01*
X428167Y197058D01*
X428545Y199930D01*
Y203930D01*
X428167Y206802D01*
X427058Y209478D01*
X425295Y211775D01*
X422998Y213538D01*
X420322Y214647D01*
X417450Y215025D01*
D02*
G37*
G36*
X392050D02*
X389178Y214647D01*
X386502Y213538D01*
X384205Y211775D01*
X382441Y209478D01*
X381333Y206802D01*
X380955Y203930D01*
Y199930D01*
X381333Y197058D01*
X382441Y194382D01*
X384205Y192085D01*
X386502Y190322D01*
X389178Y189213D01*
X392050Y188835D01*
X394922Y189213D01*
X397598Y190322D01*
X399895Y192085D01*
X401659Y194382D01*
X402767Y197058D01*
X403145Y199930D01*
Y203930D01*
X402767Y206802D01*
X401659Y209478D01*
X399895Y211775D01*
X397598Y213538D01*
X394922Y214647D01*
X392050Y215025D01*
D02*
G37*
G36*
X366650D02*
X363778Y214647D01*
X361102Y213538D01*
X358805Y211775D01*
X357042Y209478D01*
X355933Y206802D01*
X355555Y203930D01*
Y199930D01*
X355933Y197058D01*
X357042Y194382D01*
X358805Y192085D01*
X361102Y190322D01*
X363778Y189213D01*
X366650Y188835D01*
X369522Y189213D01*
X372197Y190322D01*
X374495Y192085D01*
X376259Y194382D01*
X377367Y197058D01*
X377745Y199930D01*
Y203930D01*
X377367Y206802D01*
X376259Y209478D01*
X374495Y211775D01*
X372197Y213538D01*
X369522Y214647D01*
X366650Y215025D01*
D02*
G37*
G36*
X139470Y188730D02*
X128530D01*
X129303Y186862D01*
X130336Y185830D01*
X130721Y185000D01*
X130336Y184170D01*
X129303Y183138D01*
X128687Y181651D01*
X127313D01*
X126697Y183138D01*
X125138Y184697D01*
X123270Y185470D01*
Y180000D01*
Y174530D01*
X125138Y175303D01*
X126697Y176862D01*
X127313Y178349D01*
X128687D01*
X129303Y176862D01*
X130862Y175303D01*
X132349Y174687D01*
Y173313D01*
X130862Y172697D01*
X129303Y171138D01*
X128530Y169270D01*
X139470D01*
X138697Y171138D01*
X137138Y172697D01*
X135651Y173313D01*
Y174687D01*
X137138Y175303D01*
X138697Y176862D01*
X139470Y178730D01*
X134000D01*
Y181270D01*
X139470D01*
X138697Y183138D01*
X137664Y184170D01*
X137279Y185000D01*
X137664Y185830D01*
X138697Y186862D01*
X139470Y188730D01*
D02*
G37*
G36*
X120730Y185470D02*
X118862Y184697D01*
X117303Y183138D01*
X116530Y181270D01*
X120730D01*
Y185470D01*
D02*
G37*
G36*
Y178730D02*
X116530D01*
X117303Y176862D01*
X118862Y175303D01*
X120730Y174530D01*
Y178730D01*
D02*
G37*
G36*
X139470Y166730D02*
X135270D01*
Y162530D01*
X137138Y163303D01*
X138697Y164862D01*
X139470Y166730D01*
D02*
G37*
G36*
X132730D02*
X128530D01*
X129303Y164862D01*
X130862Y163303D01*
X132730Y162530D01*
Y166730D01*
D02*
G37*
G36*
X120270Y158470D02*
Y154270D01*
X124470D01*
X123697Y156138D01*
X122138Y157697D01*
X120270Y158470D01*
D02*
G37*
G36*
X124470Y151730D02*
X120270D01*
Y147530D01*
X122138Y148303D01*
X123697Y149862D01*
X124470Y151730D01*
D02*
G37*
G36*
X569850Y138825D02*
X566978Y138447D01*
X564302Y137338D01*
X562005Y135575D01*
X560242Y133278D01*
X559133Y130602D01*
X558755Y127730D01*
Y123730D01*
X559133Y120858D01*
X560242Y118182D01*
X562005Y115885D01*
X564302Y114122D01*
X566978Y113013D01*
X569850Y112635D01*
X572722Y113013D01*
X575397Y114122D01*
X577695Y115885D01*
X579459Y118182D01*
X580567Y120858D01*
X580945Y123730D01*
Y127730D01*
X580567Y130602D01*
X579459Y133278D01*
X577695Y135575D01*
X575397Y137338D01*
X572722Y138447D01*
X569850Y138825D01*
D02*
G37*
G36*
X544450D02*
X541578Y138447D01*
X538903Y137338D01*
X536605Y135575D01*
X534841Y133278D01*
X533733Y130602D01*
X533355Y127730D01*
Y123730D01*
X533733Y120858D01*
X534841Y118182D01*
X536605Y115885D01*
X538903Y114122D01*
X541578Y113013D01*
X544450Y112635D01*
X547322Y113013D01*
X549997Y114122D01*
X552295Y115885D01*
X554058Y118182D01*
X555167Y120858D01*
X555545Y123730D01*
Y127730D01*
X555167Y130602D01*
X554058Y133278D01*
X552295Y135575D01*
X549997Y137338D01*
X547322Y138447D01*
X544450Y138825D01*
D02*
G37*
G36*
X519050D02*
X516178Y138447D01*
X513503Y137338D01*
X511205Y135575D01*
X509441Y133278D01*
X508333Y130602D01*
X507955Y127730D01*
Y123730D01*
X508333Y120858D01*
X509441Y118182D01*
X511205Y115885D01*
X513503Y114122D01*
X516178Y113013D01*
X519050Y112635D01*
X521922Y113013D01*
X524598Y114122D01*
X526895Y115885D01*
X528658Y118182D01*
X529767Y120858D01*
X530145Y123730D01*
Y127730D01*
X529767Y130602D01*
X528658Y133278D01*
X526895Y135575D01*
X524598Y137338D01*
X521922Y138447D01*
X519050Y138825D01*
D02*
G37*
G36*
X469693Y167750D02*
X467307D01*
X467292Y167744D01*
X464792D01*
X464251Y167636D01*
X463706Y167544D01*
X463667Y167520D01*
X463622Y167511D01*
X463163Y167204D01*
X462694Y166911D01*
X462668Y166873D01*
X462630Y166848D01*
X462323Y166389D01*
X462002Y165938D01*
X461992Y165894D01*
X461967Y165856D01*
X461859Y165314D01*
X461735Y164775D01*
X461698Y163521D01*
X461706Y163475D01*
X461697Y163430D01*
Y160112D01*
X461802Y159583D01*
X461888Y159048D01*
X461918Y158999D01*
X461929Y158942D01*
X462229Y158493D01*
X462513Y158032D01*
X462560Y157998D01*
X462592Y157949D01*
X462991Y157683D01*
X463159Y157515D01*
Y144182D01*
X463159Y144182D01*
X463392Y143011D01*
X464055Y142019D01*
X464055Y142019D01*
X470377Y135696D01*
X471370Y135033D01*
X472255Y134667D01*
X473914Y133394D01*
X475187Y131735D01*
X475987Y129803D01*
X476286Y127529D01*
Y123931D01*
X475987Y121657D01*
X475185Y119721D01*
X475011Y119368D01*
X474788Y119035D01*
X474749Y118837D01*
X474660Y118656D01*
X474634Y118257D01*
X474556Y117864D01*
Y103000D01*
X474788Y101830D01*
X475451Y100837D01*
X476444Y100174D01*
X477614Y99941D01*
X484000D01*
X485171Y100174D01*
X486163Y100837D01*
X486826Y101830D01*
X487059Y103000D01*
Y113506D01*
X488329Y114028D01*
X490778Y113013D01*
X493650Y112635D01*
X496522Y113013D01*
X499198Y114122D01*
X501495Y115885D01*
X503259Y118182D01*
X504367Y120858D01*
X504745Y123730D01*
Y127730D01*
X504367Y130602D01*
X503259Y133278D01*
X501495Y135575D01*
X499198Y137338D01*
X496522Y138447D01*
X493650Y138825D01*
X490778Y138447D01*
X488102Y137338D01*
X486452Y136072D01*
X474722Y147801D01*
Y164685D01*
X474489Y165856D01*
X473826Y166848D01*
X472834Y167511D01*
X471663Y167744D01*
X469708D01*
X469693Y167750D01*
D02*
G37*
G36*
X442850Y138825D02*
X439978Y138447D01*
X437303Y137338D01*
X435005Y135575D01*
X433242Y133278D01*
X432133Y130602D01*
X431755Y127730D01*
Y123730D01*
X432133Y120858D01*
X433242Y118182D01*
X435005Y115885D01*
X437303Y114122D01*
X439978Y113013D01*
X442850Y112635D01*
X445722Y113013D01*
X448397Y114122D01*
X450695Y115885D01*
X452458Y118182D01*
X453567Y120858D01*
X453945Y123730D01*
Y127730D01*
X453567Y130602D01*
X452458Y133278D01*
X450695Y135575D01*
X448397Y137338D01*
X445722Y138447D01*
X442850Y138825D01*
D02*
G37*
G36*
X417450D02*
X414578Y138447D01*
X411903Y137338D01*
X409605Y135575D01*
X407841Y133278D01*
X406733Y130602D01*
X406355Y127730D01*
Y123730D01*
X406733Y120858D01*
X407841Y118182D01*
X409605Y115885D01*
X411903Y114122D01*
X414578Y113013D01*
X417450Y112635D01*
X420322Y113013D01*
X422998Y114122D01*
X425295Y115885D01*
X427058Y118182D01*
X428167Y120858D01*
X428545Y123730D01*
Y127730D01*
X428167Y130602D01*
X427058Y133278D01*
X425295Y135575D01*
X422998Y137338D01*
X420322Y138447D01*
X417450Y138825D01*
D02*
G37*
G36*
X392050D02*
X389178Y138447D01*
X386502Y137338D01*
X384205Y135575D01*
X382441Y133278D01*
X381333Y130602D01*
X380955Y127730D01*
Y123730D01*
X381333Y120858D01*
X382441Y118182D01*
X384205Y115885D01*
X386502Y114122D01*
X389178Y113013D01*
X392050Y112635D01*
X394922Y113013D01*
X397598Y114122D01*
X399895Y115885D01*
X401659Y118182D01*
X402767Y120858D01*
X403145Y123730D01*
Y127730D01*
X402767Y130602D01*
X401659Y133278D01*
X399895Y135575D01*
X397598Y137338D01*
X394922Y138447D01*
X392050Y138825D01*
D02*
G37*
G36*
X366650D02*
X363778Y138447D01*
X361102Y137338D01*
X358805Y135575D01*
X357042Y133278D01*
X355933Y130602D01*
X355555Y127730D01*
Y123730D01*
X355933Y120858D01*
X357042Y118182D01*
X358805Y115885D01*
X361102Y114122D01*
X363778Y113013D01*
X366650Y112635D01*
X369522Y113013D01*
X372197Y114122D01*
X374495Y115885D01*
X376259Y118182D01*
X377367Y120858D01*
X377745Y123730D01*
Y127730D01*
X377367Y130602D01*
X376259Y133278D01*
X374495Y135575D01*
X372197Y137338D01*
X369522Y138447D01*
X366650Y138825D01*
D02*
G37*
G36*
X341250D02*
X338378Y138447D01*
X335703Y137338D01*
X333405Y135575D01*
X331642Y133278D01*
X330533Y130602D01*
X330155Y127730D01*
Y123730D01*
X330533Y120858D01*
X331642Y118182D01*
X333405Y115885D01*
X335703Y114122D01*
X338378Y113013D01*
X341250Y112635D01*
X344122Y113013D01*
X346797Y114122D01*
X349095Y115885D01*
X350858Y118182D01*
X351967Y120858D01*
X352345Y123730D01*
Y127730D01*
X351967Y130602D01*
X350858Y133278D01*
X349095Y135575D01*
X346797Y137338D01*
X344122Y138447D01*
X341250Y138825D01*
D02*
G37*
G36*
X315850D02*
X312978Y138447D01*
X310303Y137338D01*
X308005Y135575D01*
X306241Y133278D01*
X305133Y130602D01*
X304755Y127730D01*
Y123730D01*
X305133Y120858D01*
X306241Y118182D01*
X308005Y115885D01*
X310303Y114122D01*
X312978Y113013D01*
X315850Y112635D01*
X318722Y113013D01*
X321398Y114122D01*
X323695Y115885D01*
X325458Y118182D01*
X326567Y120858D01*
X326945Y123730D01*
Y127730D01*
X326567Y130602D01*
X325458Y133278D01*
X323695Y135575D01*
X321398Y137338D01*
X318722Y138447D01*
X315850Y138825D01*
D02*
G37*
G36*
X290450D02*
X287578Y138447D01*
X284902Y137338D01*
X282605Y135575D01*
X280842Y133278D01*
X279733Y130602D01*
X279355Y127730D01*
Y123730D01*
X279733Y120858D01*
X280842Y118182D01*
X282605Y115885D01*
X284902Y114122D01*
X287578Y113013D01*
X290450Y112635D01*
X293322Y113013D01*
X295998Y114122D01*
X298295Y115885D01*
X300058Y118182D01*
X301167Y120858D01*
X301545Y123730D01*
Y127730D01*
X301167Y130602D01*
X300058Y133278D01*
X298295Y135575D01*
X295998Y137338D01*
X293322Y138447D01*
X290450Y138825D01*
D02*
G37*
%LPD*%
G36*
X471663Y146534D02*
X484412Y133786D01*
X484000Y133373D01*
Y133177D01*
X482933Y130602D01*
X482555Y127730D01*
Y123730D01*
X482933Y120858D01*
X484000Y118283D01*
Y103000D01*
X477614D01*
Y117864D01*
X477859Y118182D01*
X478967Y120858D01*
X479345Y123730D01*
Y127730D01*
X478967Y130602D01*
X477859Y133278D01*
X476095Y135575D01*
X473797Y137338D01*
X472540Y137859D01*
X466218Y144182D01*
Y158782D01*
X465000Y160000D01*
X464755Y160112D01*
Y163430D01*
X464792Y164685D01*
X471663D01*
Y146534D01*
D02*
G37*
%LPC*%
G36*
X148000Y431695D02*
X144000D01*
X141128Y431317D01*
X138453Y430209D01*
X136155Y428445D01*
X134391Y426147D01*
X133283Y423472D01*
X132905Y420600D01*
X133283Y417728D01*
X134391Y415053D01*
X136155Y412755D01*
X138453Y410992D01*
X141128Y409883D01*
X144000Y409505D01*
X148000D01*
X150872Y409883D01*
X153547Y410992D01*
X155845Y412755D01*
X157608Y415053D01*
X158717Y417728D01*
X159095Y420600D01*
X158717Y423472D01*
X157608Y426147D01*
X155845Y428445D01*
X153547Y430209D01*
X150872Y431317D01*
X148000Y431695D01*
D02*
G37*
G36*
Y406295D02*
X144000D01*
X141128Y405917D01*
X138453Y404809D01*
X136155Y403045D01*
X134391Y400747D01*
X133283Y398072D01*
X132905Y395200D01*
X133283Y392328D01*
X134391Y389653D01*
X136155Y387355D01*
X138453Y385592D01*
X141128Y384483D01*
X144000Y384105D01*
X148000D01*
X150872Y384483D01*
X153547Y385592D01*
X155845Y387355D01*
X157608Y389653D01*
X158717Y392328D01*
X159095Y395200D01*
X158717Y398072D01*
X157608Y400747D01*
X155845Y403045D01*
X153547Y404809D01*
X150872Y405917D01*
X148000Y406295D01*
D02*
G37*
G36*
X64470Y229730D02*
X53530D01*
X54303Y227862D01*
X55665Y226500D01*
X54553Y225388D01*
X53780Y223520D01*
X64720D01*
X63947Y225388D01*
X62585Y226750D01*
X63697Y227862D01*
X64470Y229730D01*
D02*
G37*
G36*
X64720Y220980D02*
X60520D01*
Y216780D01*
X62388Y217553D01*
X63947Y219112D01*
X64720Y220980D01*
D02*
G37*
G36*
X57980D02*
X53780D01*
X54553Y219112D01*
X56112Y217553D01*
X57980Y216780D01*
Y220980D01*
D02*
G37*
G36*
X86480Y121720D02*
X84612Y120947D01*
X83053Y119388D01*
X82280Y117520D01*
X86480D01*
Y121720D01*
D02*
G37*
G36*
Y114980D02*
X82280D01*
X83053Y113112D01*
X84612Y111553D01*
X86480Y110780D01*
Y114980D01*
D02*
G37*
G36*
X86980Y103970D02*
X85112Y103197D01*
X83553Y101638D01*
X82780Y99770D01*
X86980D01*
Y103970D01*
D02*
G37*
G36*
X36900Y483940D02*
X13900D01*
Y460940D01*
X36900D01*
Y483940D01*
D02*
G37*
G36*
Y397580D02*
X13900D01*
Y374580D01*
X36900D01*
Y397580D01*
D02*
G37*
G36*
X26914Y353500D02*
X23886D01*
X20961Y352716D01*
X18339Y351202D01*
X16198Y349061D01*
X14684Y346439D01*
X13900Y343514D01*
Y340486D01*
X14684Y337561D01*
X16198Y334939D01*
X18339Y332798D01*
X20961Y331284D01*
X23886Y330500D01*
X26914D01*
X29839Y331284D01*
X32461Y332798D01*
X34602Y334939D01*
X36116Y337561D01*
X36900Y340486D01*
Y343514D01*
X36116Y346439D01*
X34602Y349061D01*
X32461Y351202D01*
X29839Y352716D01*
X26914Y353500D01*
D02*
G37*
G36*
Y328100D02*
X23886D01*
X20961Y327316D01*
X18339Y325802D01*
X16198Y323661D01*
X14684Y321039D01*
X13900Y318114D01*
Y315086D01*
X14684Y312161D01*
X16198Y309539D01*
X18339Y307398D01*
X20961Y305884D01*
X23886Y305100D01*
X26914D01*
X29839Y305884D01*
X32461Y307398D01*
X34602Y309539D01*
X36116Y312161D01*
X36900Y315086D01*
Y318114D01*
X36116Y321039D01*
X34602Y323661D01*
X32461Y325802D01*
X29839Y327316D01*
X26914Y328100D01*
D02*
G37*
G36*
X28245Y243308D02*
X15745D01*
X13983Y243076D01*
X12341Y242396D01*
X10931Y241314D01*
X9849Y239904D01*
X9169Y238262D01*
X8937Y236500D01*
Y231500D01*
X9169Y229738D01*
X9849Y228096D01*
X10931Y226686D01*
X12341Y225604D01*
X13983Y224924D01*
X15745Y224692D01*
X28245D01*
X30007Y224924D01*
X31649Y225604D01*
X33059Y226686D01*
X34141Y228096D01*
X34821Y229738D01*
X35053Y231500D01*
Y236500D01*
X34821Y238262D01*
X34141Y239904D01*
X33059Y241314D01*
X31649Y242396D01*
X30007Y243076D01*
X28245Y243308D01*
D02*
G37*
G36*
X519000Y38400D02*
X497000D01*
Y12400D01*
X519000D01*
Y38400D01*
D02*
G37*
G36*
X609600Y38495D02*
X606728Y38117D01*
X604053Y37009D01*
X601755Y35245D01*
X599991Y32947D01*
X598883Y30272D01*
X598505Y27400D01*
Y23400D01*
X598883Y20528D01*
X599991Y17852D01*
X601755Y15555D01*
X604053Y13792D01*
X606728Y12683D01*
X609600Y12305D01*
X612472Y12683D01*
X615148Y13792D01*
X617445Y15555D01*
X619208Y17852D01*
X620317Y20528D01*
X620695Y23400D01*
Y27400D01*
X620317Y30272D01*
X619208Y32947D01*
X617445Y35245D01*
X615148Y37009D01*
X612472Y38117D01*
X609600Y38495D01*
D02*
G37*
G36*
X584200D02*
X581328Y38117D01*
X578652Y37009D01*
X576355Y35245D01*
X574591Y32947D01*
X573483Y30272D01*
X573105Y27400D01*
Y23400D01*
X573483Y20528D01*
X574591Y17852D01*
X576355Y15555D01*
X578652Y13792D01*
X581328Y12683D01*
X584200Y12305D01*
X587072Y12683D01*
X589748Y13792D01*
X592045Y15555D01*
X593809Y17852D01*
X594917Y20528D01*
X595295Y23400D01*
Y27400D01*
X594917Y30272D01*
X593809Y32947D01*
X592045Y35245D01*
X589748Y37009D01*
X587072Y38117D01*
X584200Y38495D01*
D02*
G37*
G36*
X558800D02*
X555928Y38117D01*
X553252Y37009D01*
X550955Y35245D01*
X549192Y32947D01*
X548083Y30272D01*
X547705Y27400D01*
Y23400D01*
X548083Y20528D01*
X549192Y17852D01*
X550955Y15555D01*
X553252Y13792D01*
X555928Y12683D01*
X558800Y12305D01*
X561672Y12683D01*
X564347Y13792D01*
X566645Y15555D01*
X568409Y17852D01*
X569517Y20528D01*
X569895Y23400D01*
Y27400D01*
X569517Y30272D01*
X568409Y32947D01*
X566645Y35245D01*
X564347Y37009D01*
X561672Y38117D01*
X558800Y38495D01*
D02*
G37*
G36*
X533400D02*
X530528Y38117D01*
X527853Y37009D01*
X525555Y35245D01*
X523792Y32947D01*
X522683Y30272D01*
X522305Y27400D01*
Y23400D01*
X522683Y20528D01*
X523792Y17852D01*
X525555Y15555D01*
X527853Y13792D01*
X530528Y12683D01*
X533400Y12305D01*
X536272Y12683D01*
X538947Y13792D01*
X541245Y15555D01*
X543008Y17852D01*
X544117Y20528D01*
X544495Y23400D01*
Y27400D01*
X544117Y30272D01*
X543008Y32947D01*
X541245Y35245D01*
X538947Y37009D01*
X536272Y38117D01*
X533400Y38495D01*
D02*
G37*
G36*
X457200D02*
X454328Y38117D01*
X451652Y37009D01*
X449355Y35245D01*
X447592Y32947D01*
X446483Y30272D01*
X446105Y27400D01*
Y23400D01*
X446483Y20528D01*
X447592Y17852D01*
X449355Y15555D01*
X451652Y13792D01*
X454328Y12683D01*
X457200Y12305D01*
X460072Y12683D01*
X462747Y13792D01*
X465045Y15555D01*
X466809Y17852D01*
X467917Y20528D01*
X468295Y23400D01*
Y27400D01*
X467917Y30272D01*
X466809Y32947D01*
X465045Y35245D01*
X462747Y37009D01*
X460072Y38117D01*
X457200Y38495D01*
D02*
G37*
G36*
X431800D02*
X428928Y38117D01*
X426253Y37009D01*
X423955Y35245D01*
X422192Y32947D01*
X421083Y30272D01*
X420705Y27400D01*
Y23400D01*
X421083Y20528D01*
X422192Y17852D01*
X423955Y15555D01*
X426253Y13792D01*
X428928Y12683D01*
X431800Y12305D01*
X434672Y12683D01*
X437347Y13792D01*
X439645Y15555D01*
X441409Y17852D01*
X442517Y20528D01*
X442895Y23400D01*
Y27400D01*
X442517Y30272D01*
X441409Y32947D01*
X439645Y35245D01*
X437347Y37009D01*
X434672Y38117D01*
X431800Y38495D01*
D02*
G37*
%LPD*%
D10*
X212000Y405218D02*
X226717Y390500D01*
X546500D02*
X565000Y409000D01*
X226717Y390500D02*
X546500D01*
X303750Y178750D02*
Y208752D01*
X309000Y214002D01*
Y229000D01*
X327350Y208693D02*
X328000Y209343D01*
Y246000D01*
X238000Y186000D02*
X253930Y201930D01*
X290180D01*
X639000Y200238D02*
X644674Y194564D01*
X634000Y175808D02*
X639674Y181481D01*
X634000Y198167D02*
X639674Y192493D01*
X639000Y200238D02*
Y213601D01*
X634000Y198167D02*
Y211530D01*
X639000Y173737D02*
X644674Y179410D01*
X639674Y181481D02*
Y192493D01*
X644674Y179410D02*
Y194564D01*
X624750Y227851D02*
X639000Y213601D01*
X110500Y193250D02*
X119000Y201750D01*
X136469D01*
X137969Y200250D02*
X156250D01*
X136469Y201750D02*
X137969Y200250D01*
X110750Y214250D02*
X115000Y210000D01*
X163750D01*
X327250Y195067D02*
X327350Y195167D01*
Y208693D01*
X327250Y178250D02*
Y195067D01*
X315750Y506790D02*
Y507500D01*
X289250Y491500D02*
X300460D01*
X281750Y484000D02*
X289250Y491500D01*
X300460D02*
X315750Y506790D01*
X290180Y201930D02*
X290250Y202000D01*
X624750Y227851D02*
Y326903D01*
X610000Y341653D02*
X624750Y326903D01*
X589000Y469000D02*
X614900Y443100D01*
Y354408D02*
Y443100D01*
X268250Y469000D02*
X589000D01*
X187750Y507750D02*
Y513308D01*
X610000Y349508D02*
X614900Y354408D01*
X610000Y341653D02*
Y349508D01*
X639000Y159750D02*
Y173737D01*
X620650Y141400D02*
X639000Y159750D01*
X620650Y125730D02*
Y141400D01*
X195750Y521500D02*
X244750D01*
X252660Y513590D01*
X193129Y518879D02*
X195750Y521500D01*
X252660Y484590D02*
X268250Y469000D01*
X252660Y484590D02*
Y513590D01*
X193129Y518686D02*
Y518879D01*
X187750Y513308D02*
X193129Y518686D01*
X267000Y458000D02*
X586000D01*
X609900Y356479D02*
Y434100D01*
X586000Y458000D02*
X609900Y434100D01*
X217847Y503513D02*
X221487D01*
X213360Y508000D02*
X217847Y503513D01*
X221487D02*
X267000Y458000D01*
X634000Y167750D02*
Y175808D01*
X630100Y215430D02*
X634000Y211530D01*
X595750Y129500D02*
X634000Y167750D01*
X620570Y215430D02*
X630100D01*
X595750Y240250D02*
X620570Y215430D01*
X595750Y126250D02*
Y129500D01*
X595750Y240250D02*
Y312885D01*
X605000Y322135D02*
Y351579D01*
X609900Y356479D01*
X595750Y312885D02*
X605000Y322135D01*
X119560Y472440D02*
X137500Y454500D01*
X76200Y472440D02*
X119560D01*
X137500Y452500D02*
Y454500D01*
Y452500D02*
X144000Y446000D01*
X148000D01*
X160000Y458000D02*
X224000D01*
X254750Y427250D02*
X571250D01*
X224000Y458000D02*
X254750Y427250D01*
X571250D02*
X579000Y419500D01*
X148000Y446000D02*
X160000Y458000D01*
X660500Y178250D02*
Y225750D01*
Y178250D02*
X667000Y171750D01*
X633250Y253000D02*
X660500Y225750D01*
X667000Y163250D02*
Y171750D01*
X615000Y343724D02*
X633250Y325474D01*
X615000Y345837D02*
X619900Y350737D01*
X615000Y343724D02*
Y345837D01*
X622500Y435113D02*
Y455500D01*
X619900Y350737D02*
Y432513D01*
X622500Y435113D01*
X633250Y253000D02*
Y325474D01*
X565000Y409000D02*
X579000D01*
X212000Y405218D02*
Y406000D01*
X553188Y411000D02*
X554188Y412000D01*
X555000D01*
X324000Y411000D02*
X553188D01*
X539394Y397000D02*
X544394Y402000D01*
X545000D01*
X331000Y397000D02*
X539394D01*
X95500Y368438D02*
X99500Y364438D01*
X95500Y368438D02*
Y369250D01*
X99500Y277250D02*
Y364438D01*
X86750Y320250D02*
Y369750D01*
D11*
X582350Y195152D02*
X592502Y185000D01*
X582350Y195152D02*
Y212243D01*
X582550Y212443D01*
X592502Y185000D02*
X607000D01*
D12*
X667843Y281250D02*
X679750D01*
X654000Y267407D02*
X667843Y281250D01*
X654000Y247250D02*
Y267407D01*
X667500Y233750D02*
X683250D01*
X654000Y247250D02*
X667500Y233750D01*
X207750Y211000D02*
X208000D01*
X199000Y202250D02*
X207750Y211000D01*
X177500Y202250D02*
X199000D01*
D16*
X246500Y80500D02*
D03*
D61*
X673750Y262500D02*
D03*
D62*
X246500Y15500D02*
D03*
X201500D02*
D03*
Y80500D02*
D03*
X608750Y307500D02*
D03*
X673750D02*
D03*
X608750Y262500D02*
D03*
D71*
X598000Y356600D02*
Y419000D01*
X575000Y442000D02*
X598000Y419000D01*
X578000Y336600D02*
X598000Y356600D01*
X578000Y216993D02*
X582550Y212443D01*
X578000Y216993D02*
Y336600D01*
X260500Y442000D02*
X575000D01*
X223750Y478750D02*
X260500Y442000D01*
D72*
X21995Y168000D02*
D03*
Y234000D02*
D03*
D73*
X238760Y508000D02*
D03*
X213360D02*
D03*
X187960D02*
D03*
X264160D02*
D03*
X391160D02*
D03*
X314960D02*
D03*
X340360D02*
D03*
X289560D02*
D03*
X365760D02*
D03*
X167000Y88000D02*
D03*
X141600D02*
D03*
X609600Y508000D02*
D03*
X584200D02*
D03*
X558800D02*
D03*
X533400D02*
D03*
X508000D02*
D03*
X482600D02*
D03*
X457200D02*
D03*
X533400Y25400D02*
D03*
X558800D02*
D03*
X584200D02*
D03*
X609600D02*
D03*
X635000D02*
D03*
X457200D02*
D03*
X355600D02*
D03*
X304800D02*
D03*
X381000D02*
D03*
X330200D02*
D03*
X406400D02*
D03*
X431800D02*
D03*
X595250Y201930D02*
D03*
X569850D02*
D03*
X544450D02*
D03*
X519050D02*
D03*
X493650D02*
D03*
X468250D02*
D03*
X417450D02*
D03*
X392050D02*
D03*
X366650D02*
D03*
X341250D02*
D03*
X315850D02*
D03*
X290450D02*
D03*
X620650Y125730D02*
D03*
X595250D02*
D03*
X569850D02*
D03*
X544450D02*
D03*
X519050D02*
D03*
X493650D02*
D03*
X442850D02*
D03*
X417450D02*
D03*
X392050D02*
D03*
X366650D02*
D03*
X341250D02*
D03*
X315850D02*
D03*
X290450D02*
D03*
X468250D02*
D03*
X442850Y201930D02*
D03*
D74*
X416560Y508000D02*
D03*
X116200Y88000D02*
D03*
X635000Y508000D02*
D03*
X508000Y25400D02*
D03*
X279400D02*
D03*
X620650Y201930D02*
D03*
D75*
X146000Y395200D02*
D03*
Y420600D02*
D03*
Y369800D02*
D03*
X662000Y443600D02*
D03*
Y418200D02*
D03*
D76*
X146000Y446000D02*
D03*
X662000Y469000D02*
D03*
D77*
X50800Y342000D02*
D03*
X25400Y386080D02*
D03*
Y472440D02*
D03*
D78*
Y342000D02*
D03*
X50800Y316600D02*
D03*
X25400D02*
D03*
Y411480D02*
D03*
X76200Y386080D02*
D03*
X50800Y411480D02*
D03*
Y386080D02*
D03*
X76200Y411480D02*
D03*
X25400Y497840D02*
D03*
X76200Y472440D02*
D03*
Y497840D02*
D03*
X50800D02*
D03*
Y472440D02*
D03*
D79*
X148000Y507000D02*
D03*
D80*
X660400Y355600D02*
D03*
Y76200D02*
D03*
X139700Y25400D02*
D03*
D81*
X21044Y135572D02*
D03*
Y23572D02*
D03*
D82*
X100000Y154000D02*
D03*
X109000Y142000D02*
D03*
Y154000D02*
D03*
X119000Y153000D02*
D03*
X122000Y180000D02*
D03*
X134000Y168000D02*
D03*
Y180000D02*
D03*
X403000Y491000D02*
D03*
X410000D02*
D03*
X403000Y485000D02*
D03*
X410000D02*
D03*
Y369000D02*
D03*
X403000D02*
D03*
X410000Y375000D02*
D03*
X403000D02*
D03*
X309000Y229000D02*
D03*
X328000Y246000D02*
D03*
X238000Y186000D02*
D03*
X633174Y189800D02*
D03*
X110500Y193250D02*
D03*
X156250Y200250D02*
D03*
X110750Y214250D02*
D03*
X163750Y210250D02*
D03*
X327250Y178250D02*
D03*
X281750Y484000D02*
D03*
X303750Y178750D02*
D03*
X581000Y387000D02*
D03*
Y381000D02*
D03*
X472000Y89250D02*
D03*
X418250Y65500D02*
D03*
X432250D02*
D03*
X80000Y292000D02*
D03*
X59000Y451000D02*
D03*
X581000Y393000D02*
D03*
X476000Y254750D02*
D03*
X444000Y218000D02*
D03*
X394250Y254250D02*
D03*
X271250Y342000D02*
D03*
X219250Y330750D02*
D03*
X270250Y238250D02*
D03*
X217250Y250250D02*
D03*
X232250Y203000D02*
D03*
X680500Y128750D02*
D03*
X631250Y182250D02*
D03*
X456250Y110000D02*
D03*
X405000Y110500D02*
D03*
X397250Y88250D02*
D03*
X231000Y139750D02*
D03*
X306750Y89500D02*
D03*
X426250Y65500D02*
D03*
X369250Y66250D02*
D03*
X203000Y432250D02*
D03*
X187500Y413000D02*
D03*
X183750Y289000D02*
D03*
X150000Y271750D02*
D03*
X110750Y250500D02*
D03*
X51750Y522250D02*
D03*
X80000Y248500D02*
D03*
X79250Y225500D02*
D03*
X193000Y211000D02*
D03*
X174250Y210750D02*
D03*
X190750Y148000D02*
D03*
X208250Y139500D02*
D03*
X160500Y131750D02*
D03*
X137750Y223750D02*
D03*
X77250Y183000D02*
D03*
X134000Y190000D02*
D03*
X579000Y419500D02*
D03*
X622500Y455500D02*
D03*
X667000Y163250D02*
D03*
X579000Y409000D02*
D03*
X212000Y406000D02*
D03*
X555000Y412000D02*
D03*
X324000Y411000D02*
D03*
X545000Y402000D02*
D03*
X331000Y397000D02*
D03*
X95500Y369250D02*
D03*
X99500Y277250D02*
D03*
X86750Y369750D02*
D03*
Y320250D02*
D03*
X607000Y185000D02*
D03*
X223750Y478750D02*
D03*
X59000Y231000D02*
D03*
X59250Y222250D02*
D03*
X87750Y116250D02*
D03*
X88250Y98500D02*
D03*
X320000Y65000D02*
D03*
X614000Y72000D02*
D03*
X679750Y281250D02*
D03*
X683250Y233750D02*
D03*
X310250Y420750D02*
D03*
X614000Y65000D02*
D03*
X320000Y71000D02*
D03*
X445500Y42500D02*
D03*
X464500Y42250D02*
D03*
X225500Y441500D02*
D03*
X170500Y415500D02*
D03*
X116000Y414000D02*
D03*
X116250Y407500D02*
D03*
X122250D02*
D03*
X293500Y66250D02*
D03*
X13500Y284000D02*
D03*
X41500Y283500D02*
D03*
X148500Y132000D02*
D03*
X468500Y161750D02*
D03*
X481000Y106000D02*
D03*
X207750Y211000D02*
D03*
X177500Y202250D02*
D03*
M02*
