M48
;Layer_Color=9474304
;FILE_FORMAT=4:4
METRIC,LZ
;TYPE=PLATED
T01F00S00C0.3000
T03F00S00C1.0000
T04F00S00C1.1000
T05F00S00C1.5000
T06F00S00C3.2000
;TYPE=NON_PLATED
T07F00S00C3.2000
%
T01
X0036925Y0006625
X0041825Y000655
X0042625
X0043225
X004455Y000425
X004645Y0004225
X00472Y0008925
X00481Y00106
X0045625Y0011
X00405Y001105
X0039725Y0008825
X004685Y0016175
X00444Y00218
X00476Y0025475
X0039425Y0025425
X00328Y00246
X0032725Y0017825
X00607Y00185
X0063125Y0018225
X00633174Y001898
X00667Y0016325
X006805Y0012875
X0068325Y0023375
X0067975Y0028125
X00614Y00072
Y00065
X0032
Y00071
X002935Y0006625
X0030675Y000895
X0030375Y0017875
X00309Y00229
X0027025Y0023825
X0021725Y0025025
X0020775Y00211
X00193
X0017425Y0021075
X0016375Y0021025
X0015625Y0020025
X001775Y0020225
X0023225Y00203
X00238Y00186
X00231Y0013975
X0020825Y001395
X0019075Y00148
X001605Y0013175
X001485Y00132
X00109Y00142
Y00154
X001
X00119Y00153
X00122Y0018
X00134
Y0019
Y00168
X001105Y0019325
X0011075Y0021425
Y002505
X0008Y002485
X0007925Y002255
X0005925Y0022225
X00059Y00231
X0007725Y00183
X0008775Y0011625
X0008825Y000985
X0013775Y0022375
X0015Y0027175
X0018375Y00289
X000995Y0027725
X0008Y00292
X000415Y002835
X000135Y00284
X0008675Y0032025
Y0036975
X000955Y0036925
X0011625Y004075
X0012225
X00116Y00414
X001705Y004155
X001875Y00413
X00212Y00406
X00203Y0043225
X002255Y004415
X0022375Y0047875
X0028175Y00484
X0031025Y0042075
X0027125Y00342
X0021925Y0033075
X00059Y00451
X0005175Y0052225
X00403Y00491
Y00485
X0041
Y00491
Y00375
Y00369
X00403
Y00375
X00331Y00397
X00324Y00411
X00545Y00402
X00555Y00412
X00579Y00409
Y004195
X00581Y00393
Y00387
Y00381
X006225Y004555
T03
X0060875Y002625
Y003075
X0067375
Y002625
X002465Y000805
X002015
Y000155
X002465
T04
X003302Y000254
X003556
X00381
X004064
X004318
X004572
X00508
X005334
X005588
X005842
X006096
X00635
X0062065Y0012573
X0059525
X0056985
X0054445
X0051905
X0049365
X0046825
X0044285
X0041745
X0039205
X0036665
X0034125
Y0020193
X0036665
X0039205
X0041745
X0044285
X0046825
X0049365
X0051905
X0054445
X0056985
X0059525
X0062065
X0031585
X0029045
Y0012573
X0031585
X003048Y000254
X002794
X00167Y00088
X001416
X001162
X000508Y003166
Y00342
X000254
Y003166
Y0038608
Y0041148
X000508
Y0038608
X000762
Y0041148
Y0047244
Y0049784
X000508
X000254
Y0047244
X000508
X00146Y00446
Y004206
Y003952
Y003698
X0018796Y00508
X0021336
X0023876
X0026416
X0028956
X0031496
X0034036
X0036576
X0039116
X0041656
X004572
X004826
X00508
X005334
X005588
X005842
X006096
X00635
X00662Y00469
Y004436
Y004182
T05
X00021044Y00023572
Y00135572
T06
X006604Y000762
X001397Y000254
X006604Y003556
T07
X00148Y00507
M30
