G04*
G04 #@! TF.GenerationSoftware,Altium Limited,Altium Designer,25.1.2 (22)*
G04*
G04 Layer_Color=8388736*
%FSLAX44Y44*%
%MOMM*%
G71*
G04*
G04 #@! TF.SameCoordinates,5E672C01-8995-41B4-AFFF-24039E6A3FFE*
G04*
G04*
G04 #@! TF.FilePolarity,Negative*
G04*
G01*
G75*
%ADD34R,0.7500X1.2000*%
%ADD35R,1.4500X0.5000*%
%ADD36R,1.6000X1.8000*%
%ADD37R,2.1000X2.1000*%
%ADD38R,3.7000X2.4000*%
%ADD39R,0.8000X2.4000*%
%ADD40R,1.5000X0.9000*%
%ADD41R,0.9000X1.5000*%
%ADD42R,1.1000X0.8000*%
%ADD43R,0.8858X0.7588*%
%ADD44R,0.7588X0.8858*%
%ADD45R,1.5000X1.1000*%
%ADD46C,3.0480*%
%ADD47R,1.2000X0.7500*%
%ADD48R,0.6700X1.6200*%
%ADD49R,1.0000X1.0000*%
%ADD50R,1.1000X1.5000*%
%ADD51R,1.6200X0.6700*%
%ADD52R,1.8000X3.2000*%
%ADD53R,2.7000X2.8000*%
%ADD54R,2.8000X2.7000*%
%ADD55R,2.9000X2.2000*%
G04:AMPARAMS|DCode=56|XSize=2.2mm|YSize=1.45mm|CornerRadius=0.475mm|HoleSize=0mm|Usage=FLASHONLY|Rotation=0.000|XOffset=0mm|YOffset=0mm|HoleType=Round|Shape=RoundedRectangle|*
%AMROUNDEDRECTD56*
21,1,2.2000,0.5000,0,0,0.0*
21,1,1.2500,1.4500,0,0,0.0*
1,1,0.9500,0.6250,-0.2500*
1,1,0.9500,-0.6250,-0.2500*
1,1,0.9500,-0.6250,0.2500*
1,1,0.9500,0.6250,0.2500*
%
%ADD56ROUNDEDRECTD56*%
%ADD57O,1.8000X2.2000*%
%ADD58R,1.8000X2.2000*%
%ADD59O,2.2000X1.8000*%
%ADD60R,2.2000X1.8000*%
%ADD61R,1.9000X1.9000*%
%ADD62C,1.9000*%
%ADD63C,3.4000*%
%ADD64C,2.1000*%
%ADD65C,7.6000*%
%ADD66C,4.2000*%
%ADD67R,2.1000X2.1000*%
D34*
X50500Y249500D02*
D03*
X60000D02*
D03*
X69500Y276500D02*
D03*
Y249500D02*
D03*
X651500Y173500D02*
D03*
Y146500D02*
D03*
X661000Y173500D02*
D03*
X670500D02*
D03*
Y146500D02*
D03*
D35*
X48745Y214000D02*
D03*
Y207500D02*
D03*
Y201000D02*
D03*
Y188000D02*
D03*
Y194500D02*
D03*
D36*
X46495Y169000D02*
D03*
Y233000D02*
D03*
D37*
X21995Y189000D02*
D03*
Y213000D02*
D03*
X246500Y80500D02*
D03*
D38*
X161000Y176000D02*
D03*
D39*
Y114000D02*
D03*
X148300D02*
D03*
X135600D02*
D03*
X186400D02*
D03*
X173700D02*
D03*
D40*
X172000Y406500D02*
D03*
Y387500D02*
D03*
X89000Y276500D02*
D03*
Y257500D02*
D03*
X220000Y284500D02*
D03*
Y265500D02*
D03*
X608000Y454500D02*
D03*
Y473500D02*
D03*
X581000D02*
D03*
Y454500D02*
D03*
X636000Y411500D02*
D03*
Y430500D02*
D03*
X669000Y190500D02*
D03*
Y209500D02*
D03*
X32250Y293500D02*
D03*
Y274500D02*
D03*
X669000Y243500D02*
D03*
Y224500D02*
D03*
X274000Y47500D02*
D03*
Y66500D02*
D03*
X247000Y147500D02*
D03*
Y166500D02*
D03*
X648000Y243500D02*
D03*
Y224500D02*
D03*
X333000Y65500D02*
D03*
Y84500D02*
D03*
Y65500D02*
D03*
Y46500D02*
D03*
D41*
X301000Y441750D02*
D03*
X282000D02*
D03*
X281750Y420500D02*
D03*
X300750D02*
D03*
X81500Y349000D02*
D03*
X100500D02*
D03*
X84500Y214000D02*
D03*
X103500D02*
D03*
Y193000D02*
D03*
X84500D02*
D03*
Y173000D02*
D03*
X103500D02*
D03*
X370500Y99750D02*
D03*
X389500D02*
D03*
X607500Y227000D02*
D03*
X626500D02*
D03*
X252500Y442000D02*
D03*
X233500D02*
D03*
X427500Y229000D02*
D03*
X408500D02*
D03*
X595500Y353000D02*
D03*
X576500D02*
D03*
X31250Y252250D02*
D03*
X12250D02*
D03*
X270500Y85000D02*
D03*
X289500D02*
D03*
X129500Y214000D02*
D03*
X148500D02*
D03*
D42*
X69000Y225500D02*
D03*
Y210500D02*
D03*
Y196500D02*
D03*
Y181500D02*
D03*
D43*
X13500Y267558D02*
D03*
Y291942D02*
D03*
D44*
X605808Y243000D02*
D03*
X630192D02*
D03*
D45*
X306000Y47500D02*
D03*
Y66500D02*
D03*
X231000Y111500D02*
D03*
X636000Y473500D02*
D03*
X219000Y319500D02*
D03*
X218000Y238500D02*
D03*
Y201500D02*
D03*
X648000Y189500D02*
D03*
X231000Y130500D02*
D03*
X355000Y66500D02*
D03*
X214000Y422500D02*
D03*
X22750Y451250D02*
D03*
X196000Y219500D02*
D03*
X174000D02*
D03*
X208000Y130500D02*
D03*
X114000D02*
D03*
X648000Y208500D02*
D03*
X636000Y454500D02*
D03*
X174000Y238500D02*
D03*
X114000Y111500D02*
D03*
X444500Y59250D02*
D03*
X214000Y441500D02*
D03*
X22750Y432250D02*
D03*
X218000Y182500D02*
D03*
X196000Y182500D02*
D03*
X444500Y78250D02*
D03*
X219000Y300500D02*
D03*
X218000Y219500D02*
D03*
X196000Y238500D02*
D03*
Y201500D02*
D03*
X208000Y111500D02*
D03*
X355000Y47500D02*
D03*
D46*
X109000Y518000D02*
D03*
X668000Y513000D02*
D03*
X670000Y20000D02*
D03*
X224000Y46000D02*
D03*
D47*
X202500Y157000D02*
D03*
Y166500D02*
D03*
X168500Y433000D02*
D03*
Y442500D02*
D03*
X229500Y147500D02*
D03*
X195500Y423500D02*
D03*
X168500D02*
D03*
X202500Y147500D02*
D03*
X195500Y442500D02*
D03*
X229500Y166500D02*
D03*
D48*
X158000Y258000D02*
D03*
X166000D02*
D03*
X150000D02*
D03*
Y342000D02*
D03*
X182000D02*
D03*
X166000D02*
D03*
X134000D02*
D03*
X174000D02*
D03*
X126000D02*
D03*
X174000Y258000D02*
D03*
X182000D02*
D03*
X142000D02*
D03*
X134000D02*
D03*
X126000D02*
D03*
X142000Y342000D02*
D03*
X158000D02*
D03*
D49*
X254000Y380000D02*
D03*
Y398000D02*
D03*
X253000Y423000D02*
D03*
X237000D02*
D03*
X596000Y372000D02*
D03*
X580000D02*
D03*
X238000Y398000D02*
D03*
Y380000D02*
D03*
D50*
X597500Y332000D02*
D03*
X464500Y255500D02*
D03*
X445500Y230000D02*
D03*
X409500Y254000D02*
D03*
X262500Y485000D02*
D03*
X258500Y342000D02*
D03*
Y236000D02*
D03*
X670500Y128000D02*
D03*
X464250Y77000D02*
D03*
X461750Y98500D02*
D03*
X405750Y99000D02*
D03*
Y77000D02*
D03*
X402500Y50000D02*
D03*
X148500Y235000D02*
D03*
X110500Y236000D02*
D03*
X70500Y294000D02*
D03*
X40500Y522000D02*
D03*
X428500Y254000D02*
D03*
X445500Y255500D02*
D03*
X91500Y236000D02*
D03*
X239500Y342000D02*
D03*
Y236000D02*
D03*
X243500Y485000D02*
D03*
X442750Y98500D02*
D03*
X383500Y50000D02*
D03*
X578500Y332000D02*
D03*
X651500Y128000D02*
D03*
X464000Y55500D02*
D03*
X21500Y522000D02*
D03*
X51500Y294000D02*
D03*
X483250Y77000D02*
D03*
X483000Y55500D02*
D03*
X464500Y230000D02*
D03*
X424750Y77000D02*
D03*
Y99000D02*
D03*
X129500Y235000D02*
D03*
D51*
X196000Y288000D02*
D03*
Y328000D02*
D03*
X112000Y272000D02*
D03*
Y296000D02*
D03*
Y304000D02*
D03*
Y312000D02*
D03*
Y320000D02*
D03*
Y328000D02*
D03*
X196000Y280000D02*
D03*
Y272000D02*
D03*
Y296000D02*
D03*
X112000Y280000D02*
D03*
Y288000D02*
D03*
X196000Y320000D02*
D03*
Y312000D02*
D03*
Y304000D02*
D03*
D52*
X72000Y139500D02*
D03*
Y59500D02*
D03*
Y18500D02*
D03*
Y98500D02*
D03*
D53*
X408500Y285000D02*
D03*
X457500D02*
D03*
D54*
X250000Y313500D02*
D03*
Y264500D02*
D03*
D55*
X21000Y65000D02*
D03*
Y97000D02*
D03*
D56*
X21995Y168000D02*
D03*
Y234000D02*
D03*
D57*
X238760Y508000D02*
D03*
X213360D02*
D03*
X187960D02*
D03*
X264160D02*
D03*
X391160D02*
D03*
X314960D02*
D03*
X340360D02*
D03*
X289560D02*
D03*
X365760D02*
D03*
X167000Y88000D02*
D03*
X141600D02*
D03*
X609600Y508000D02*
D03*
X584200D02*
D03*
X558800D02*
D03*
X533400D02*
D03*
X508000D02*
D03*
X482600D02*
D03*
X457200D02*
D03*
X533400Y25400D02*
D03*
X558800D02*
D03*
X584200D02*
D03*
X609600D02*
D03*
X635000D02*
D03*
X457200D02*
D03*
X355600D02*
D03*
X304800D02*
D03*
X381000D02*
D03*
X330200D02*
D03*
X406400D02*
D03*
X431800D02*
D03*
X595250Y201930D02*
D03*
X569850D02*
D03*
X544450D02*
D03*
X519050D02*
D03*
X493650D02*
D03*
X468250D02*
D03*
X417450D02*
D03*
X392050D02*
D03*
X366650D02*
D03*
X341250D02*
D03*
X315850D02*
D03*
X290450D02*
D03*
X620650Y125730D02*
D03*
X595250D02*
D03*
X569850D02*
D03*
X544450D02*
D03*
X519050D02*
D03*
X493650D02*
D03*
X442850D02*
D03*
X417450D02*
D03*
X392050D02*
D03*
X366650D02*
D03*
X341250D02*
D03*
X315850D02*
D03*
X290450D02*
D03*
X468250D02*
D03*
X442850Y201930D02*
D03*
D58*
X416560Y508000D02*
D03*
X116200Y88000D02*
D03*
X635000Y508000D02*
D03*
X508000Y25400D02*
D03*
X279400D02*
D03*
X620650Y201930D02*
D03*
D59*
X146000Y395200D02*
D03*
Y420600D02*
D03*
Y369800D02*
D03*
X662000Y443600D02*
D03*
Y418200D02*
D03*
D60*
X146000Y446000D02*
D03*
X662000Y469000D02*
D03*
D61*
X50800Y342000D02*
D03*
X25400Y386080D02*
D03*
Y472440D02*
D03*
D62*
Y342000D02*
D03*
X50800Y316600D02*
D03*
X25400D02*
D03*
Y411480D02*
D03*
X76200Y386080D02*
D03*
X50800Y411480D02*
D03*
Y386080D02*
D03*
X76200Y411480D02*
D03*
X25400Y497840D02*
D03*
X76200Y472440D02*
D03*
Y497840D02*
D03*
X50800D02*
D03*
Y472440D02*
D03*
D63*
X148000Y507000D02*
D03*
D64*
X246500Y15500D02*
D03*
X201500D02*
D03*
Y80500D02*
D03*
X608750Y307500D02*
D03*
X673750D02*
D03*
X608750Y262500D02*
D03*
D65*
X660400Y355600D02*
D03*
Y76200D02*
D03*
X139700Y25400D02*
D03*
D66*
X21044Y135572D02*
D03*
Y23572D02*
D03*
D67*
X673750Y262500D02*
D03*
M02*
