G04*
G04 #@! TF.GenerationSoftware,Altium Limited,Altium Designer,25.1.2 (22)*
G04*
G04 Layer_Color=16711935*
%FSLAX44Y44*%
%MOMM*%
G71*
G04*
G04 #@! TF.SameCoordinates,5E672C01-8995-41B4-AFFF-24039E6A3FFE*
G04*
G04*
G04 #@! TF.FilePolarity,Negative*
G04*
G01*
G75*
%ADD37R,2.1000X2.1000*%
G04:AMPARAMS|DCode=56|XSize=2.2mm|YSize=1.45mm|CornerRadius=0.475mm|HoleSize=0mm|Usage=FLASHONLY|Rotation=0.000|XOffset=0mm|YOffset=0mm|HoleType=Round|Shape=RoundedRectangle|*
%AMROUNDEDRECTD56*
21,1,2.2000,0.5000,0,0,0.0*
21,1,1.2500,1.4500,0,0,0.0*
1,1,0.9500,0.6250,-0.2500*
1,1,0.9500,-0.6250,-0.2500*
1,1,0.9500,-0.6250,0.2500*
1,1,0.9500,0.6250,0.2500*
%
%ADD56ROUNDEDRECTD56*%
%ADD57O,1.8000X2.2000*%
%ADD58R,1.8000X2.2000*%
%ADD59O,2.2000X1.8000*%
%ADD60R,2.2000X1.8000*%
%ADD61R,1.9000X1.9000*%
%ADD62C,1.9000*%
%ADD63C,3.4000*%
%ADD64C,2.1000*%
%ADD65C,7.6000*%
%ADD66C,4.2000*%
%ADD67R,2.1000X2.1000*%
D37*
X246500Y80500D02*
D03*
D56*
X21995Y168000D02*
D03*
Y234000D02*
D03*
D57*
X238760Y508000D02*
D03*
X213360D02*
D03*
X187960D02*
D03*
X264160D02*
D03*
X391160D02*
D03*
X314960D02*
D03*
X340360D02*
D03*
X289560D02*
D03*
X365760D02*
D03*
X167000Y88000D02*
D03*
X141600D02*
D03*
X609600Y508000D02*
D03*
X584200D02*
D03*
X558800D02*
D03*
X533400D02*
D03*
X508000D02*
D03*
X482600D02*
D03*
X457200D02*
D03*
X533400Y25400D02*
D03*
X558800D02*
D03*
X584200D02*
D03*
X609600D02*
D03*
X635000D02*
D03*
X457200D02*
D03*
X355600D02*
D03*
X304800D02*
D03*
X381000D02*
D03*
X330200D02*
D03*
X406400D02*
D03*
X431800D02*
D03*
X595250Y201930D02*
D03*
X569850D02*
D03*
X544450D02*
D03*
X519050D02*
D03*
X493650D02*
D03*
X468250D02*
D03*
X417450D02*
D03*
X392050D02*
D03*
X366650D02*
D03*
X341250D02*
D03*
X315850D02*
D03*
X290450D02*
D03*
X620650Y125730D02*
D03*
X595250D02*
D03*
X569850D02*
D03*
X544450D02*
D03*
X519050D02*
D03*
X493650D02*
D03*
X442850D02*
D03*
X417450D02*
D03*
X392050D02*
D03*
X366650D02*
D03*
X341250D02*
D03*
X315850D02*
D03*
X290450D02*
D03*
X468250D02*
D03*
X442850Y201930D02*
D03*
D58*
X416560Y508000D02*
D03*
X116200Y88000D02*
D03*
X635000Y508000D02*
D03*
X508000Y25400D02*
D03*
X279400D02*
D03*
X620650Y201930D02*
D03*
D59*
X146000Y395200D02*
D03*
Y420600D02*
D03*
Y369800D02*
D03*
X662000Y443600D02*
D03*
Y418200D02*
D03*
D60*
X146000Y446000D02*
D03*
X662000Y469000D02*
D03*
D61*
X50800Y342000D02*
D03*
X25400Y386080D02*
D03*
Y472440D02*
D03*
D62*
Y342000D02*
D03*
X50800Y316600D02*
D03*
X25400D02*
D03*
Y411480D02*
D03*
X76200Y386080D02*
D03*
X50800Y411480D02*
D03*
Y386080D02*
D03*
X76200Y411480D02*
D03*
X25400Y497840D02*
D03*
X76200Y472440D02*
D03*
Y497840D02*
D03*
X50800D02*
D03*
Y472440D02*
D03*
D63*
X148000Y507000D02*
D03*
D64*
X246500Y15500D02*
D03*
X201500D02*
D03*
Y80500D02*
D03*
X608750Y307500D02*
D03*
X673750D02*
D03*
X608750Y262500D02*
D03*
D65*
X660400Y355600D02*
D03*
Y76200D02*
D03*
X139700Y25400D02*
D03*
D66*
X21044Y135572D02*
D03*
Y23572D02*
D03*
D67*
X673750Y262500D02*
D03*
M02*
